<?xml version="1.0" encoding="utf-8"?>
<!-- Generator: Adobe Illustrator 27.2.0, SVG Export Plug-In . SVG Version: 6.00 Build 0)  -->
<svg version="1.1" id="Layer_1" xmlns="http://www.w3.org/2000/svg" xmlns:xlink="http://www.w3.org/1999/xlink" x="0px" y="0px"
	 viewBox="0 0 32.4 38" style="enable-background:new 0 0 32.4 38;" xml:space="preserve">
<style type="text/css">
	.st0{fill:#DE5C2C;}
</style>
<g>
	<path class="st0" d="M18.3,7.7c1-0.5,1.9-1.1,2.7-1.8c0.2-0.2,0.3-0.5,0.2-0.8l-1.9-3.3c-1.4-2.4-4.9-2.4-6.3,0L8.6,9.3
		c-0.2,0.4,0.1,0.9,0.5,0.9C12.3,10.2,15.5,9.3,18.3,7.7z"/>
	<path class="st0" d="M9.2,11.9c2.3,1.6,4.5,3.2,7.1,4.3c2.6,1.2,5.5,1.8,8.3,2.1c1.4,0.2,2.7,0.3,4.1,0.4c0.1,0,0.2-0.1,0.1-0.2
		L22.2,7c0-0.1-0.1-0.1-0.2,0c-2.8,2.2-6.2,3.8-9.8,4.4c-1,0.2-2,0.3-2.9,0.3C9.2,11.7,9.1,11.8,9.2,11.9
		C9.2,11.9,9.2,11.9,9.2,11.9z"/>
	<path class="st0" d="M30,20.4c-0.1-0.1-0.2-0.2-0.3-0.2c-4.7-0.2-9.6-0.8-13.9-2.7c-2.6-1.2-5-2.8-7.4-4.5c-0.3-0.2-0.7-0.5-1-0.7
		c-0.2-0.1-0.5-0.1-0.6,0.1L0.3,23.7c-0.8,1.3,0.2,3,1.7,3h28.2c1.5,0,2.5-1.6,1.7-3L30,20.4z"/>
	<path class="st0" d="M1.1,28.2c-0.7,0-1.2,0.7-1,1.3C1.5,34.4,8.2,38,16.2,38c8.1,0,14.8-3.7,16.1-8.5c0.2-0.7-0.3-1.3-1-1.3H1.1z"
		/>
</g>
</svg>
