<?xml version="1.0" encoding="utf-8"?>
<!-- Generator: Adobe Illustrator 27.2.0, SVG Export Plug-In . SVG Version: 6.00 Build 0)  -->
<svg version="1.1" id="Layer_1" xmlns="http://www.w3.org/2000/svg" xmlns:xlink="http://www.w3.org/1999/xlink" x="0px" y="0px"
	 viewBox="0 0 42.6 42.6" style="enable-background:new 0 0 42.6 42.6;" xml:space="preserve">
<style type="text/css">
	.st0{clip-path:url(#SVGID_00000082336038485339071970000012466082571387805865_);}
	.st1{fill:#DE5C2C;}
	.st2{fill:none;stroke:#000000;stroke-width:2;stroke-miterlimit:10;}
</style>
<g>
	<defs>
		<path id="SVGID_1_" d="M2.3,0.3h38c1.1,0,2,0.9,2,2v38c0,1.1-0.9,2-2,2h-38c-1.1,0-2-0.9-2-2v-38C0.3,1.2,1.2,0.3,2.3,0.3z"/>
	</defs>
	<clipPath id="SVGID_00000087404107144733583570000004509643077194463136_">
		<use xlink:href="#SVGID_1_"  style="overflow:visible;"/>
	</clipPath>
	<g style="clip-path:url(#SVGID_00000087404107144733583570000004509643077194463136_);">
		<path class="st1" d="M2.3,0.3h38c1.1,0,2,0.9,2,2v38c0,1.1-0.9,2-2,2h-38c-1.1,0-2-0.9-2-2v-38C0.3,1.2,1.2,0.3,2.3,0.3z"/>
		<path class="st2" d="M41.6,1H1v40.6h40.6V1z"/>
		<path d="M22.7,13.3c0.7-0.4,1.3-0.8,1.9-1.3c0.2-0.1,0.2-0.4,0.1-0.5l-1.3-2.3c-1-1.7-3.5-1.7-4.5,0l-3,5.3
			c-0.2,0.3,0,0.6,0.4,0.6C18.6,15.1,20.8,14.4,22.7,13.3L22.7,13.3z"/>
		<path d="M16.4,16.3c1.6,1.1,3.2,2.2,5,3c1.8,0.8,3.9,1.2,5.8,1.5c1,0.1,1.9,0.2,2.9,0.3c0.1,0,0.1-0.1,0.1-0.1l-4.7-8.1
			c0,0-0.1-0.1-0.1,0c-2,1.6-4.4,2.7-6.9,3.1c-0.7,0.1-1.4,0.2-2.1,0.2C16.4,16.1,16.3,16.2,16.4,16.3L16.4,16.3z"/>
		<path d="M31,22.3c0-0.1-0.1-0.1-0.2-0.1C27.4,22,24,21.6,21,20.3c-1.9-0.8-3.5-2-5.2-3.1c-0.2-0.2-0.5-0.3-0.7-0.5
			c-0.1-0.1-0.3-0.1-0.4,0.1l-4.6,7.9c-0.5,0.9,0.1,2.1,1.2,2.1h19.8c1.1,0,1.7-1.2,1.2-2.1L31,22.3L31,22.3z"/>
		<path d="M10.7,27.8c-0.5,0-0.8,0.5-0.7,0.9c1,3.4,5.7,6,11.4,6c5.7,0,10.4-2.6,11.4-6c0.1-0.5-0.2-0.9-0.7-0.9H10.7z"/>
	</g>
</g>
</svg>
