<svg width="42" height="42" viewBox="0 0 42 42" fill="none" xmlns="http://www.w3.org/2000/svg">
<g clip-path="url(#clip0_6_49)">
<path d="M41.3039 0.697266H0.697266V41.3039H41.3039V0.697266Z" stroke="black" stroke-width="2" stroke-miterlimit="10"/>
<path d="M22.4369 13.0348C23.1126 12.6551 23.7431 12.2266 24.3458 11.7599C24.513 11.631 24.5583 11.3976 24.4538 11.213L23.1231 8.91039C22.1338 7.19654 19.6605 7.19654 18.6712 8.91039L15.6337 14.1704C15.4699 14.4526 15.6755 14.8044 16.0029 14.8044C18.2497 14.7974 20.4861 14.1321 22.4334 13.0313L22.4369 13.0348Z" fill="black"/>
<path d="M16.1006 15.9955C17.6926 17.0962 19.288 18.2249 21.0646 19.0156C22.8969 19.8273 24.9347 20.2592 26.9133 20.517C27.8747 20.6424 28.8431 20.7225 29.8115 20.7748C29.8812 20.7782 29.93 20.7016 29.8951 20.6389L25.2238 12.5468C25.1959 12.4981 25.1332 12.4876 25.0914 12.5225C23.0954 14.09 20.7267 15.1978 18.2256 15.6402C17.5358 15.7621 16.8426 15.8248 16.1529 15.8317C16.0658 15.8317 16.031 15.9467 16.1041 15.9955H16.1006Z" fill="black"/>
<path d="M30.6717 21.9845C30.6229 21.9009 30.5323 21.8451 30.4348 21.8417C27.0942 21.7163 23.7152 21.2913 20.6568 19.9606C18.7966 19.149 17.1315 17.9646 15.4699 16.8185C15.2295 16.6513 14.9927 16.4876 14.7558 16.3204C14.6164 16.2228 14.4283 16.2647 14.3412 16.411L9.78141 24.3114C9.24844 25.238 9.91378 26.3945 10.9832 26.3945H30.8075C31.877 26.3945 32.5458 25.238 32.0093 24.3114L30.6682 21.988L30.6717 21.9845Z" fill="black"/>
<path d="M10.374 27.4668C9.88634 27.4668 9.52406 27.9371 9.65643 28.4108C10.6179 31.8002 15.3379 34.3745 21.016 34.3745C26.694 34.3745 31.4141 31.8002 32.3755 28.4108C32.5114 27.9371 32.1456 27.4668 31.6579 27.4668H10.374Z" fill="black"/>
</g>
<defs>
<clipPath id="clip0_6_49">
<rect width="42" height="42" rx="2" fill="white"/>
</clipPath>
</defs>
</svg>

