<svg width="118" height="118" viewBox="0 0 118 118" fill="none" xmlns="http://www.w3.org/2000/svg">
    <path
        d="M58.7593 0C26.3829 0 0 26.3829 0 58.7593C0 91.1357 26.3829 117.519 58.7593 117.519C91.1357 117.519 117.519 91.1357 117.519 58.7593C117.519 26.3829 91.1357 0 58.7593 0ZM75.1532 61.8736L54.4111 82.6156C53.5298 83.497 52.4133 83.9083 51.2969 83.9083C50.1805 83.9083 49.064 83.497 48.1827 82.6156C46.4786 80.9116 46.4786 78.0912 48.1827 76.3871L65.8105 58.7593L48.1827 41.1315C46.4786 39.4275 46.4786 36.6071 48.1827 34.903C49.8867 33.199 52.7071 33.199 54.4111 34.903L75.1532 55.6451C76.916 57.3491 76.916 60.1696 75.1532 61.8736Z"
        fill="#292D32" />
</svg>