<svg width="118" height="118" viewBox="0 0 118 118" fill="none" xmlns="http://www.w3.org/2000/svg">
    <path
        d="M58.76 0C26.3832 0 0 26.3832 0 58.76C0 91.1368 26.3832 117.52 58.76 117.52C91.1368 117.52 117.52 91.1368 117.52 58.76C117.52 26.3832 91.1368 0 58.76 0ZM69.278 76.388C70.9821 78.092 70.9821 80.9125 69.278 82.6166C68.3966 83.498 67.2802 83.9093 66.1638 83.9093C65.0473 83.9093 63.9309 83.498 63.0495 82.6166L42.3072 61.8743C40.6032 60.1702 40.6032 57.3498 42.3072 55.6457L63.0495 34.9034C64.7535 33.1994 67.574 33.1994 69.278 34.9034C70.9821 36.6075 70.9821 39.428 69.278 41.132L51.65 58.76L69.278 76.388Z"
        fill="#292D32" />
</svg>