<svg width="537" height="448" viewBox="0 0 537 448" fill="none" xmlns="http://www.w3.org/2000/svg">
    <path fill-rule="evenodd" clip-rule="evenodd"
        d="M285.924 0.286731C284.331 0.76163 214.789 0.621638 184.472 7.6547C121.315 22.3076 76.9025 69.6186 61.5367 126.657C57.286 142.436 45.1092 154.251 40.8076 170.22C34.1404 194.968 39.8916 219.391 29.4591 243.594C19.7174 266.195 -24.2527 355.834 18.0851 375.478C56.1749 393.152 131.994 414.291 173.128 423.835C249.299 441.507 275.659 455.697 368.876 443.339C516.978 423.705 575.112 240.233 511.434 141.745C493.827 114.513 450.374 58.2023 422.937 39.6785C405.389 27.8315 297.97 -3.30616 285.924 0.286731V0.286731Z"
        fill="#F8AC67" />
</svg>