<svg width="202" height="206" viewBox="0 0 202 206" fill="none" xmlns="http://www.w3.org/2000/svg">
<path d="M8.57768 0C3.8404 0 0 3.8404 0 8.57768C0 13.315 3.8404 17.1554 8.57768 17.1554H12.7928C16.6225 17.1554 19.9882 19.6942 21.0404 23.3766L48.2412 118.579C51.3975 129.626 61.4948 137.243 72.9841 137.243H151.362C161.883 137.243 171.346 130.837 175.254 121.067L200.546 57.8374C205.053 46.5688 196.753 34.3107 184.618 34.3107H42.0063L37.5356 18.6637C34.3794 7.61647 24.282 0 12.7928 0H8.57768Z" fill="#212121"/>
<path d="M77.1999 205.865C91.4119 205.865 102.933 194.343 102.933 180.131C102.933 165.92 91.4119 154.398 77.1999 154.398C62.9878 154.398 51.4668 165.92 51.4668 180.131C51.4668 194.343 62.9878 205.865 77.1999 205.865Z" fill="#212121"/>
<path d="M145.821 205.865C160.032 205.865 171.554 194.343 171.554 180.131C171.554 165.92 160.032 154.398 145.821 154.398C131.609 154.398 120.088 165.92 120.088 180.131C120.088 194.343 131.609 205.865 145.821 205.865Z" fill="#212121"/>
</svg>
