<?xml version="1.0" encoding="utf-8"?>
<!-- Generator: Adobe Illustrator 27.2.0, SVG Export Plug-In . SVG Version: 6.00 Build 0)  -->
<svg version="1.1" id="Layer_1" xmlns="http://www.w3.org/2000/svg" xmlns:xlink="http://www.w3.org/1999/xlink" x="0px" y="0px"
	 viewBox="0 0 65.5 76.8" style="enable-background:new 0 0 65.5 76.8;" xml:space="preserve">
<g>
	<path d="M36.9,15.5c1.9-1.1,3.7-2.3,5.5-3.7c0.5-0.4,0.6-1,0.3-1.6l-3.8-6.6c-2.8-4.9-9.9-4.9-12.8,0l-8.7,15.1
		c-0.5,0.8,0.1,1.8,1.1,1.8C24.9,20.6,31.3,18.7,36.9,15.5z"/>
	<path d="M18.7,24c4.6,3.2,9.2,6.4,14.2,8.7C38.2,35,44,36.3,49.7,37c2.8,0.4,5.5,0.6,8.3,0.7c0.2,0,0.3-0.2,0.2-0.4L44.9,14.1
		c-0.1-0.1-0.3-0.2-0.4-0.1c-5.7,4.5-12.5,7.7-19.7,9c-2,0.4-4,0.5-6,0.5C18.6,23.6,18.5,23.9,18.7,24C18.7,24,18.7,24,18.7,24z"/>
	<path d="M60.5,41.4c-0.1-0.2-0.4-0.4-0.7-0.4c-9.6-0.4-19.3-1.6-28.1-5.4c-5.3-2.3-10.1-5.7-14.9-9c-0.7-0.5-1.4-1-2-1.4
		c-0.4-0.3-0.9-0.2-1.2,0.3L0.5,48C-1,50.7,0.9,54,4,54h56.9c3.1,0,5-3.3,3.5-6L60.5,41.4z"/>
	<path d="M2.2,57c-1.4,0-2.4,1.3-2.1,2.7c2.8,9.7,16.3,17.1,32.6,17.1s29.9-7.4,32.6-17.1c0.4-1.4-0.7-2.7-2.1-2.7H2.2z"/>
</g>
</svg>
