
<svg width="158" height="95" viewBox="0 0 158 95" fill="none" xmlns="http://www.w3.org/2000/svg">
<path d="M80.4462 17.9612C81.1275 17.5779 81.7632 17.1454 82.3707 16.6741C82.5393 16.544 82.585 16.3084 82.4796 16.122L81.138 13.7976C80.1406 12.0675 77.6471 12.0675 76.6497 13.7976L73.5873 19.1076C73.4222 19.3924 73.6294 19.7476 73.9595 19.7476C76.2248 19.7406 78.4795 19.0689 80.4427 17.9577L80.4462 17.9612Z" fill="#D9D9D9"/>
<path d="M74.0619 20.9467C75.6669 22.058 77.2754 23.1973 79.0665 23.9956C80.9138 24.8149 82.9683 25.251 84.9631 25.5112C85.9324 25.6378 86.9087 25.7187 87.8851 25.7714C87.9553 25.775 88.0045 25.6976 87.9693 25.6343L83.2598 17.4654C83.2317 17.4161 83.1685 17.4056 83.1263 17.4408C81.114 19.0232 78.7258 20.1415 76.2042 20.5881C75.5088 20.7111 74.8099 20.7744 74.1146 20.7815C74.0268 20.7815 73.9916 20.8975 74.0654 20.9467H74.0619Z" fill="#D9D9D9"/>
<path d="M88.749 26.9952C88.6999 26.9108 88.6085 26.8545 88.5102 26.851C85.1422 26.7244 81.7356 26.2954 78.6521 24.9521C76.7767 24.1327 75.0979 22.9371 73.4227 21.7802C73.1804 21.6114 72.9416 21.4461 72.7028 21.2773C72.5623 21.1788 72.3726 21.221 72.2848 21.3687L67.6911 29.3407C67.1538 30.2761 67.8246 31.4436 68.9028 31.4436H88.8895C89.9677 31.4436 90.642 30.2761 90.1011 29.3407L88.749 26.9952Z" fill="#D9D9D9"/>
<path d="M68.2883 32.5267C67.7967 32.5267 67.4314 33.0015 67.5649 33.4797C68.5342 36.9013 73.2929 39.5 79.0174 39.5C84.742 39.5 89.5007 36.9013 90.47 33.4797C90.607 33.0015 90.2382 32.5267 89.7466 32.5267H68.2883Z" fill="#D9D9D9"/>
<path d="M38.412 68.64C38.556 68.64 38.796 68.592 39.132 68.496L39.78 73.464C39.252 73.704 38.604 73.884 37.836 74.004C37.092 74.148 36.348 74.22 35.604 74.22C33.996 74.22 32.748 73.812 31.86 72.996C30.996 72.156 30.564 70.956 30.564 69.396C30.564 68.94 30.6 68.484 30.672 68.028L33.048 51C32.568 50.904 32.064 50.856 31.536 50.856C30.648 50.856 30.012 51.072 29.628 51.504C29.244 51.912 28.98 52.596 28.836 53.556L28.728 54.276H31.68L30.24 59.1H28.044L26.424 70.764C25.992 73.884 24.912 76.26 23.184 77.892C21.48 79.524 19.224 80.784 16.416 81.672L14.724 76.596C16.188 76.092 17.28 75.432 18 74.616C18.72 73.8 19.188 72.636 19.404 71.124L21.06 59.1H18.54L19.188 54.276H21.744L21.888 53.124C22.176 51.036 23.064 49.332 24.552 48.012C26.064 46.668 28.08 45.996 30.6 45.996C32.208 45.996 33.66 46.188 34.956 46.572L40.716 45.996L37.728 67.344C37.704 67.44 37.692 67.584 37.692 67.776C37.692 68.352 37.932 68.64 38.412 68.64ZM52.0636 53.556C53.4796 53.556 54.9316 53.748 56.4196 54.132C57.9076 54.492 59.2876 55.056 60.5596 55.824L58.9036 67.308C58.8556 67.788 58.8316 68.088 58.8316 68.208C58.8316 68.544 58.8916 68.82 59.0116 69.036C59.1316 69.228 59.3596 69.396 59.6956 69.54L57.6796 74.076C56.4796 74.004 55.4236 73.704 54.5116 73.176C53.5996 72.648 52.9636 71.892 52.6036 70.908C51.9076 71.94 51.1036 72.756 50.1916 73.356C49.2796 73.932 48.1756 74.22 46.8796 74.22C44.8636 74.22 43.3036 73.524 42.1996 72.132C41.1196 70.74 40.5796 68.832 40.5796 66.408C40.5796 64.344 40.9636 62.34 41.7316 60.396C42.5236 58.428 43.7716 56.796 45.4756 55.5C47.2036 54.204 49.3996 53.556 52.0636 53.556ZM51.7756 58.452C50.3836 58.452 49.3636 59.268 48.7156 60.9C48.0676 62.508 47.7436 64.332 47.7436 66.372C47.7436 67.452 47.8756 68.184 48.1396 68.568C48.4276 68.928 48.8116 69.108 49.2916 69.108C50.2996 69.108 51.2236 68.388 52.0636 66.948L53.2876 58.668C52.7596 58.524 52.2556 58.452 51.7756 58.452ZM81.1277 54.276L72.9557 73.5H64.5677L61.4717 54.276H68.9597L69.4997 68.352L73.8557 54.276H81.1277ZM87.7123 74.22C85.0723 74.22 83.0083 73.488 81.5203 72.024C80.0323 70.56 79.2883 68.52 79.2883 65.904C79.2883 63.816 79.6483 61.836 80.3683 59.964C81.1123 58.092 82.3123 56.556 83.9683 55.356C85.6483 54.156 87.8083 53.556 90.4483 53.556C93.0883 53.556 95.1523 54.3 96.6403 55.788C98.1523 57.252 98.9083 59.256 98.9083 61.8C98.9083 63.888 98.5363 65.868 97.7923 67.74C97.0723 69.612 95.8723 71.16 94.1923 72.384C92.5363 73.608 90.3763 74.22 87.7123 74.22ZM88.2883 69.108C89.6563 69.108 90.5803 68.292 91.0603 66.66C91.5403 65.004 91.7803 63.228 91.7803 61.332C91.7803 60.396 91.6243 59.724 91.3123 59.316C91.0003 58.884 90.5203 58.668 89.8723 58.668C88.5283 58.668 87.6163 59.472 87.1363 61.08C86.6563 62.664 86.4163 64.392 86.4163 66.264C86.4163 67.272 86.5603 68.004 86.8483 68.46C87.1603 68.892 87.6403 69.108 88.2883 69.108ZM113.678 53.664C114.35 53.664 114.986 53.772 115.586 53.988L113.606 60.864C112.958 60.672 112.406 60.576 111.95 60.576C110.894 60.576 110.054 60.996 109.43 61.836C108.806 62.676 108.23 63.864 107.702 65.4L106.55 73.5H99.5659L102.23 54.276H108.314L108.35 57.696C108.974 56.4 109.754 55.404 110.69 54.708C111.626 54.012 112.622 53.664 113.678 53.664ZM123.349 53.556C124.789 53.556 126.157 53.784 127.453 54.24C128.749 54.696 129.865 55.308 130.801 56.076L127.813 59.82C127.141 59.412 126.409 59.088 125.617 58.848C124.849 58.608 124.117 58.488 123.421 58.488C122.221 58.488 121.621 58.812 121.621 59.46C121.621 59.7 121.705 59.892 121.873 60.036C122.041 60.18 122.413 60.372 122.989 60.612C123.565 60.828 124.309 61.08 125.221 61.368C128.389 62.424 129.973 64.38 129.973 67.236C129.973 68.412 129.697 69.528 129.145 70.584C128.593 71.616 127.645 72.48 126.301 73.176C124.957 73.872 123.181 74.22 120.973 74.22C119.269 74.22 117.649 73.908 116.113 73.284C114.577 72.66 113.365 71.844 112.477 70.836L115.861 67.272C117.373 68.616 119.077 69.288 120.973 69.288C122.389 69.288 123.097 68.892 123.097 68.1C123.097 67.812 123.001 67.584 122.809 67.416C122.641 67.248 122.329 67.068 121.873 66.876C121.441 66.684 120.637 66.384 119.461 65.976C117.853 65.4 116.653 64.656 115.861 63.744C115.093 62.832 114.709 61.644 114.709 60.18C114.709 58.932 115.045 57.804 115.717 56.796C116.413 55.788 117.409 54.996 118.705 54.42C120.025 53.844 121.573 53.556 123.349 53.556ZM133.733 74.22C132.773 74.22 131.993 73.908 131.393 73.284C130.793 72.66 130.493 71.856 130.493 70.872C130.493 69.768 130.889 68.82 131.681 68.028C132.497 67.212 133.481 66.804 134.633 66.804C135.569 66.804 136.337 67.116 136.937 67.74C137.537 68.34 137.837 69.12 137.837 70.08C137.837 71.208 137.441 72.18 136.649 72.996C135.857 73.812 134.885 74.22 133.733 74.22Z" fill="#D9D9D9"/>
</svg>
