<svg width="56" height="19" viewBox="0 0 56 19" fill="none" xmlns="http://www.w3.org/2000/svg">
<path d="M11.072 12.84C11.136 12.84 11.2427 12.8187 11.392 12.776L11.68 14.984C11.4453 15.0907 11.1573 15.1707 10.816 15.224C10.4853 15.288 10.1547 15.32 9.824 15.32C9.10933 15.32 8.55467 15.1387 8.16 14.776C7.776 14.4027 7.584 13.8693 7.584 13.176C7.584 12.9733 7.6 12.7707 7.632 12.568L8.688 5C8.47467 4.95733 8.25067 4.936 8.016 4.936C7.62133 4.936 7.33867 5.032 7.168 5.224C6.99733 5.40533 6.88 5.70933 6.816 6.136L6.768 6.456H8.08L7.44 8.6H6.464L5.744 13.784C5.552 15.1707 5.072 16.2267 4.304 16.952C3.54667 17.6773 2.544 18.2373 1.296 18.632L0.544 16.376C1.19467 16.152 1.68 15.8587 2 15.496C2.32 15.1333 2.528 14.616 2.624 13.944L3.36 8.6H2.24L2.528 6.456H3.664L3.728 5.944C3.856 5.016 4.25067 4.25867 4.912 3.672C5.584 3.07467 6.48 2.776 7.6 2.776C8.31467 2.776 8.96 2.86133 9.536 3.032L12.096 2.776L10.768 12.264C10.7573 12.3067 10.752 12.3707 10.752 12.456C10.752 12.712 10.8587 12.84 11.072 12.84ZM17.1394 6.136C17.7687 6.136 18.414 6.22133 19.0754 6.392C19.7367 6.552 20.35 6.80267 20.9154 7.144L20.1794 12.248C20.158 12.4613 20.1474 12.5947 20.1474 12.648C20.1474 12.7973 20.174 12.92 20.2274 13.016C20.2807 13.1013 20.382 13.176 20.5314 13.24L19.6354 15.256C19.102 15.224 18.6327 15.0907 18.2274 14.856C17.822 14.6213 17.5394 14.2853 17.3794 13.848C17.07 14.3067 16.7127 14.6693 16.3074 14.936C15.902 15.192 15.4114 15.32 14.8354 15.32C13.9394 15.32 13.246 15.0107 12.7554 14.392C12.2754 13.7733 12.0354 12.9253 12.0354 11.848C12.0354 10.9307 12.206 10.04 12.5474 9.176C12.8994 8.30133 13.454 7.576 14.2114 7C14.9794 6.424 15.9554 6.136 17.1394 6.136ZM17.0114 8.312C16.3927 8.312 15.9394 8.67467 15.6514 9.4C15.3634 10.1147 15.2194 10.9253 15.2194 11.832C15.2194 12.312 15.278 12.6373 15.3954 12.808C15.5234 12.968 15.694 13.048 15.9074 13.048C16.3554 13.048 16.766 12.728 17.1394 12.088L17.6834 8.408C17.4487 8.344 17.2247 8.312 17.0114 8.312ZM30.0568 6.456L26.4248 15H22.6968L21.3208 6.456H24.6488L24.8888 12.712L26.8248 6.456H30.0568ZM32.9833 15.32C31.8099 15.32 30.8926 14.9947 30.2313 14.344C29.5699 13.6933 29.2393 12.7867 29.2393 11.624C29.2393 10.696 29.3993 9.816 29.7193 8.984C30.0499 8.152 30.5833 7.46933 31.3193 6.936C32.0659 6.40267 33.0259 6.136 34.1993 6.136C35.3726 6.136 36.2899 6.46667 36.9513 7.128C37.6233 7.77867 37.9593 8.66933 37.9593 9.8C37.9593 10.728 37.7939 11.608 37.4633 12.44C37.1433 13.272 36.6099 13.96 35.8633 14.504C35.1273 15.048 34.1673 15.32 32.9833 15.32ZM33.2393 13.048C33.8473 13.048 34.2579 12.6853 34.4713 11.96C34.6846 11.224 34.7913 10.4347 34.7913 9.592C34.7913 9.176 34.7219 8.87733 34.5833 8.696C34.4446 8.504 34.2313 8.408 33.9433 8.408C33.3459 8.408 32.9406 8.76533 32.7273 9.48C32.5139 10.184 32.4073 10.952 32.4073 11.784C32.4073 12.232 32.4713 12.5573 32.5993 12.76C32.7379 12.952 32.9513 13.048 33.2393 13.048ZM44.5235 6.184C44.8222 6.184 45.1048 6.232 45.3715 6.328L44.4915 9.384C44.2035 9.29867 43.9582 9.256 43.7555 9.256C43.2862 9.256 42.9128 9.44267 42.6355 9.816C42.3582 10.1893 42.1022 10.7173 41.8675 11.4L41.3555 15H38.2515L39.4355 6.456H42.1395L42.1555 7.976C42.4328 7.4 42.7795 6.95733 43.1955 6.648C43.6115 6.33867 44.0542 6.184 44.5235 6.184ZM48.8219 6.136C49.4619 6.136 50.0699 6.23733 50.6459 6.44C51.2219 6.64267 51.7179 6.91467 52.1339 7.256L50.8059 8.92C50.5072 8.73867 50.1819 8.59467 49.8299 8.488C49.4885 8.38133 49.1632 8.328 48.8539 8.328C48.3205 8.328 48.0539 8.472 48.0539 8.76C48.0539 8.86667 48.0912 8.952 48.1659 9.016C48.2405 9.08 48.4059 9.16533 48.6619 9.272C48.9179 9.368 49.2485 9.48 49.6539 9.608C51.0619 10.0773 51.7659 10.9467 51.7659 12.216C51.7659 12.7387 51.6432 13.2347 51.3979 13.704C51.1525 14.1627 50.7312 14.5467 50.1339 14.856C49.5365 15.1653 48.7472 15.32 47.7659 15.32C47.0085 15.32 46.2885 15.1813 45.6059 14.904C44.9232 14.6267 44.3845 14.264 43.9899 13.816L45.4939 12.232C46.1659 12.8293 46.9232 13.128 47.7659 13.128C48.3952 13.128 48.7099 12.952 48.7099 12.6C48.7099 12.472 48.6672 12.3707 48.5819 12.296C48.5072 12.2213 48.3685 12.1413 48.1659 12.056C47.9739 11.9707 47.6165 11.8373 47.0939 11.656C46.3792 11.4 45.8459 11.0693 45.4939 10.664C45.1525 10.2587 44.9819 9.73067 44.9819 9.08C44.9819 8.52533 45.1312 8.024 45.4299 7.576C45.7392 7.128 46.1819 6.776 46.7579 6.52C47.3445 6.264 48.0325 6.136 48.8219 6.136ZM53.437 15.32C53.0103 15.32 52.6637 15.1813 52.397 14.904C52.1303 14.6267 51.997 14.2693 51.997 13.832C51.997 13.3413 52.173 12.92 52.525 12.568C52.8877 12.2053 53.325 12.024 53.837 12.024C54.253 12.024 54.5943 12.1627 54.861 12.44C55.1277 12.7067 55.261 13.0533 55.261 13.48C55.261 13.9813 55.085 14.4133 54.733 14.776C54.381 15.1387 53.949 15.32 53.437 15.32Z" fill="black"/>
</svg>
