<svg width="508" height="508" viewBox="0 0 508 508" fill="none" xmlns="http://www.w3.org/2000/svg">
    <g clip-path="url(#clip0_367_247)">
        <path fill-rule="evenodd" clip-rule="evenodd"
            d="M381.69 142.353C380.924 137.639 368.269 108.509 353.869 103.709C344.54 100.599 335.088 99.7889 325.624 101.141C307.235 103.768 299.584 124.942 283.684 130.242C268.88 135.177 257.013 119.184 234.897 130.242C223.718 135.831 217.475 173.706 209.647 185.448C205.613 191.5 198.463 202.81 191.245 206.418C188.315 207.884 179.24 211.622 177.979 215.406C176.327 220.36 178.752 225.923 177.123 230.812C173.929 240.394 159.302 246.416 153.157 255.633C139.169 276.615 109.661 345.115 118.065 370.326C121.766 381.432 148.786 354.29 152.729 351.924C170.867 341.041 190.512 333.076 211.359 330.098C237.242 326.4 253.737 332.661 280.26 319.399C294.486 312.287 297.054 275.856 310.217 271.468C343.613 260.336 382.502 279.136 409.867 238.088C420.781 221.718 427.711 203.325 409.076 194.008C401.881 190.411 388.306 186.706 384.254 178.601C380.618 171.328 376.116 164.237 378.691 156.775C379.509 154.403 382.257 145.848 381.69 142.353V142.353Z"
            fill="#B3B4CC" />
        <g clip-path="url(#clip1_367_247)">
            <path
                d="M194.819 186.472C195.263 185.64 195.625 184.862 196.029 184.106C196.319 183.565 196.563 182.938 197.005 182.551C198.567 181.181 199.385 179.395 199.932 177.481C200.446 175.681 200.795 173.833 201.221 172.008C201.259 171.848 201.284 171.628 201.395 171.55C202.458 170.802 202.518 169.576 202.931 168.505C203.238 167.709 203.759 166.998 204.15 166.232C204.35 165.84 204.423 165.38 204.644 165.005C205.197 164.064 205.848 163.178 206.37 162.221C206.684 161.647 206.824 160.978 207.05 160.354C207.162 160.043 207.242 159.704 207.423 159.436C208.074 158.471 208.663 157.479 209.411 156.558C210.307 155.454 210.621 153.897 211.385 152.658C212.28 151.205 212.279 149.363 213.614 148.086C214.189 147.536 214.278 146.513 214.738 145.801C215.514 144.599 215.739 143.059 217.037 142.162C217.364 141.937 217.459 141.393 217.701 141.023C217.836 140.818 218.037 140.641 218.242 140.502C218.658 140.221 219.146 140.029 219.516 139.701C220.037 139.238 220.471 138.689 221.271 138.717C221.44 138.723 221.693 138.6 221.776 138.459C222.426 137.358 223.684 137.11 224.633 136.44C225.592 135.762 226.762 135.392 227.803 134.82C228.661 134.349 229.447 133.748 230.3 133.268C230.849 132.958 231.451 132.729 232.05 132.523C233.02 132.191 234.006 131.908 234.986 131.605C235.065 131.581 235.172 131.585 235.222 131.533C236.519 130.195 238.187 130.772 239.656 130.853C240.619 130.906 241.515 130.931 242.488 130.849C243.985 130.723 245.533 131.014 247.037 131.262C247.694 131.371 248.284 131.843 248.927 132.088C249.368 132.255 249.844 132.374 250.313 132.413C252.14 132.565 253.999 132.938 255.792 132.739C258.137 132.478 260.476 132.541 262.806 132.363C263.537 132.307 264.193 132.298 264.92 132.372C265.802 132.462 266.721 132.076 267.625 132.067C268.771 132.055 269.874 132.108 270.599 130.985C270.674 130.868 270.885 130.818 271.044 130.78C272.323 130.477 273.606 130.185 274.887 129.89C274.915 129.883 274.965 129.898 274.973 129.885C275.598 128.828 276.75 128.545 277.755 128.164C279.765 127.4 280.666 125.307 282.388 124.392C283.607 123.744 284.36 122.384 285.885 122.232C286.271 122.194 286.68 121.766 286.963 121.423C287.652 120.588 288.532 120.167 289.546 119.843C290.538 119.526 291.506 119.084 292.457 118.644C293.348 118.232 294.48 118.318 295.139 117.343C296.796 117.231 297.506 115.788 298.606 114.89C298.923 114.631 299.331 114.484 299.698 114.289C299.869 114.198 300.119 114.158 300.203 114.017C300.859 112.924 302.111 112.667 303.063 112.003C303.642 111.599 304.495 111.597 305.215 111.381C305.716 111.231 306.203 111.03 306.692 110.839C307.129 110.669 307.624 110.565 307.98 110.285C308.848 109.603 309.88 109.785 310.83 109.555C312.403 109.174 313.96 109.31 315.524 109.217C315.954 109.192 316.372 108.968 316.799 108.847C318.884 108.256 320.973 107.68 323.053 107.07C323.58 106.916 324.065 106.623 324.588 106.455C325.015 106.319 325.529 106.1 325.903 106.224C327.019 106.595 328.115 106.358 329.22 106.318C329.308 106.315 329.417 106.338 329.479 106.296C330.817 105.379 332.024 106.107 333.27 106.558C333.638 106.691 334.071 106.716 334.467 106.688C335.87 106.586 337.185 106.866 338.459 107.447C338.732 107.571 339.083 107.609 339.385 107.574C340.684 107.424 341.782 107.819 342.81 108.603C343.139 108.853 343.665 108.827 344.078 108.985C345.805 109.647 347.529 110.317 349.242 111.014C349.906 111.284 350.532 111.647 351.188 111.94C351.59 112.12 352.017 112.246 352.43 112.402C353.774 112.908 355.125 113.395 356.452 113.941C356.733 114.057 356.949 114.369 357.152 114.625C358.077 115.793 359.292 116.451 360.713 116.855C361.787 117.161 362.546 117.89 362.791 119.043C362.803 119.1 362.77 119.202 362.796 119.217C364.102 119.965 363.911 121.725 365.085 122.589C365.412 122.83 365.541 123.341 365.755 123.73C365.794 123.802 365.792 123.898 365.837 123.964C366.455 124.874 367.079 125.78 367.701 126.688C367.876 126.943 368.171 127.19 368.196 127.461C368.276 128.325 368.779 128.897 369.397 129.385C370.34 130.13 370.904 131.083 371.164 132.244C371.223 132.508 371.31 132.823 371.496 132.994C372.564 133.978 372.78 135.263 372.949 136.616C373.117 137.955 373.45 139.273 373.682 140.606C373.742 140.95 373.698 141.313 373.698 141.667C373.697 142.293 373.715 142.921 373.686 143.546C373.638 144.607 373.842 145.672 373.33 146.713C372.69 148.016 372.986 149.459 372.917 150.847C372.895 151.283 372.703 151.71 372.601 152.144C372.531 152.446 372.388 152.77 372.441 153.054C372.605 153.931 372.972 154.785 373.03 155.664C373.13 157.2 373.052 158.748 373.061 160.291C373.064 160.783 373.126 161.276 373.125 161.769C373.123 162.877 373.108 163.986 373.076 165.093C373.067 165.402 372.971 165.708 372.933 166.017C372.801 167.069 372.597 168.121 372.582 169.175C372.574 169.76 372.95 170.339 373.04 170.938C373.127 171.516 373.163 172.134 373.047 172.699C372.943 173.202 372.922 173.548 373.342 173.915C373.791 174.307 374.15 174.707 374.273 175.422C374.368 175.979 375.165 176.397 375.592 176.923C375.868 177.264 376.034 177.692 376.26 178.076C376.401 178.317 376.528 178.58 376.718 178.779C377.379 179.469 378.083 180.119 378.73 180.821C378.968 181.08 379.186 181.425 379.25 181.762C379.468 182.925 380.244 183.552 381.274 183.856C382.288 184.155 382.845 184.715 383.097 185.766C383.324 186.709 383.636 187.634 384.46 188.346C385.61 189.339 386.628 190.484 387.712 191.555C388.28 192.117 388.763 192.755 389.668 192.91C390.062 192.977 390.341 193.616 390.748 193.733C393.253 194.452 394.418 196.747 396.181 198.322C396.778 198.856 396.989 199.817 397.391 200.575C397.665 201.09 397.878 201.679 398.275 202.078C398.789 202.593 399.065 203.162 399.245 203.841C399.654 205.385 400.32 206.83 400.341 208.508C400.383 211.905 400.487 215.317 400.883 218.685C401.051 220.104 401.108 221.511 401.197 222.926C401.24 223.618 401.067 224.191 400.497 224.61C400.027 224.956 400.008 225.448 399.887 225.978C399.585 227.299 399.633 228.712 398.785 229.912C398.317 230.576 398.142 231.438 397.744 232.161C397.232 233.091 396.709 234.036 396.042 234.852C395.478 235.541 395.275 236.328 394.963 237.104C394.736 237.666 394.409 238.219 394.011 238.674C393.324 239.459 392.543 240.161 391.81 240.906C391.428 241.294 390.923 241.596 391.025 242.298C391.05 242.473 390.706 242.684 390.577 242.904C390.297 243.383 390.045 243.878 389.786 244.368C389.67 244.588 389.618 244.884 389.442 245.024C388.523 245.75 388.305 246.808 387.996 247.84C387.92 248.095 387.684 248.32 387.481 248.518C386.756 249.222 386.002 249.893 385.843 250.982C385.813 251.183 385.628 251.381 385.473 251.54C384.807 252.225 384.123 252.893 383.452 253.573C383.311 253.716 383.099 253.876 383.084 254.042C382.978 255.248 382.003 255.837 381.234 256.485C380.555 257.058 379.632 257.341 378.818 257.755C378.423 257.956 377.925 258.073 377.659 258.386C376.945 259.228 376.036 259.588 375.002 259.8C374.695 259.864 374.395 260.111 374.158 260.342C373.024 261.446 371.9 262.561 370.799 263.698C370.191 264.324 369.576 264.851 368.681 265.097C368.173 265.236 367.698 265.719 367.346 266.158C366.704 266.958 365.863 267.412 364.949 267.754C362.751 268.579 360.554 269.41 358.326 270.149C357.611 270.387 356.803 270.399 356.035 270.413C354.861 270.436 353.744 270.548 352.882 271.467C352.861 271.488 352.838 271.529 352.819 271.527C351.457 271.436 350.405 272.171 349.327 272.836C348.993 273.042 348.565 273.191 348.356 273.489C347.664 274.479 346.571 274.66 345.555 274.974C344.885 275.18 344.17 275.238 343.477 275.372C343.315 275.403 343.118 275.423 343.007 275.525C341.348 277.049 339.039 276.892 337.13 277.791C336.29 278.187 335.272 278.198 334.345 278.422C334.085 278.484 333.775 278.625 333.631 278.831C333.083 279.612 332.328 279.641 331.464 279.71C329.721 279.848 328.145 280.427 326.607 281.406C325.363 282.199 324.452 283.437 323.224 284.032C320.967 285.127 319.653 287.135 317.941 288.739C317.088 289.538 316.113 289.816 315.122 290.202C314.763 290.343 314.407 290.523 314.096 290.748C312.795 291.69 312.063 293.072 311.413 294.473C311.151 295.038 311.24 295.755 311.077 296.379C310.829 297.331 310.307 298.2 310.418 299.26C310.45 299.565 310.033 299.918 309.822 300.248C309.475 300.792 309.074 301.309 308.797 301.886C308.452 302.605 308.216 303.377 307.917 304.119C307.803 304.4 307.695 304.712 307.493 304.924C306.917 305.528 306.442 306.142 306.089 306.945C305.765 307.683 304.936 308.19 304.376 308.84C304.108 309.15 303.933 309.546 303.742 309.917C303.179 311.008 302.795 312.191 301.901 313.107C301.637 313.377 301.569 313.86 301.464 314.259C301.193 315.284 300.953 316.318 300.695 317.347C300.662 317.479 300.59 317.601 300.537 317.729C299.888 319.304 298.849 320.58 297.594 321.718C297.264 322.018 297.128 322.53 296.894 322.94C296.783 323.135 296.692 323.365 296.526 323.5C295.555 324.291 294.943 325.453 293.542 325.831C292.817 326.026 292.325 327.015 291.673 327.582C291.347 327.865 290.909 328.028 290.505 328.209C289.712 328.563 289.061 329.223 288.341 329.557C287.326 330.027 286.789 331.317 285.406 331.169C284.954 331.12 284.433 331.518 283.978 331.773C283.727 331.914 283.47 332.404 283.349 332.361C281.755 331.795 281.112 333.708 279.754 333.706C279.665 333.706 279.58 333.849 279.486 333.915C278.421 334.66 277.36 335.411 276.286 336.142C275.966 336.36 275.61 336.525 275.263 336.7C275.141 336.761 274.938 336.733 274.872 336.821C274.304 337.58 273.366 337.702 272.656 338.159C271.657 338.801 270.54 338.999 269.517 339.484C268.57 339.933 267.618 340.4 266.621 340.703C266.147 340.847 265.564 340.594 265.029 340.582C264.253 340.564 263.46 340.508 262.703 340.637C261.776 340.794 260.925 341.045 259.956 340.638C259.513 340.452 258.844 340.76 258.289 340.892C257.314 341.123 256.34 341.369 255.38 341.657C254.989 341.775 254.638 342.024 254.263 342.203C254.015 342.322 253.759 342.513 253.504 342.518C252.302 342.542 251.318 343.036 250.249 343.56C249.386 343.984 248.158 343.666 247.092 343.672C246.206 343.676 245.32 343.667 244.434 343.674C243.984 343.678 243.531 343.75 243.087 343.711C242.408 343.651 241.739 343.475 241.06 343.43C239.985 343.36 239.029 343.035 238.175 342.374C238.01 342.246 237.763 342.164 237.553 342.162C235.432 342.147 233.312 342.151 231.191 342.156C231.021 342.156 230.763 342.133 230.694 342.228C230.035 343.139 229.075 342.864 228.191 342.916C226.492 343.016 224.741 342.582 223.11 343.412C222.991 343.472 222.789 343.472 222.669 343.412C220.771 342.458 218.701 342.765 216.793 343.001C214.583 343.273 212.365 343.2 210.193 343.5C208.896 343.679 207.506 344.113 206.396 345.142C205.603 345.877 204.471 346.235 203.533 346.83C202.976 347.183 202.529 347.706 201.985 348.084C201.533 348.397 200.989 348.577 200.528 348.879C200.026 349.206 199.504 349.546 199.112 349.988C198.227 350.987 197.085 351.237 195.842 351.437C195.016 351.57 194.243 352.028 193.444 352.334C192.696 352.62 191.937 352.878 191.199 353.186C190.867 353.324 190.578 353.561 190.263 353.74C189.901 353.945 189.525 354.126 189.167 354.337C188.9 354.493 188.616 354.644 188.399 354.857C187.163 356.07 185.892 357.255 184.735 358.541C183.842 359.533 182.755 359.973 181.51 360.311C180.646 360.546 179.742 360.795 179.058 361.578C178.688 362.002 177.927 362.122 177.319 362.291C176.376 362.552 175.412 362.74 174.457 362.958C174.293 362.995 174.084 363.11 173.97 363.049C172.94 362.503 172.1 363.25 171.2 363.465C170.182 363.707 169.116 363.969 168.231 364.493C167.055 365.19 165.598 365.396 164.697 366.606C163.989 367.555 162.842 367.676 161.746 367.901C160.609 368.133 159.509 368.545 158.395 368.887C158.185 368.951 157.995 369.108 157.784 369.137C156.734 369.282 155.565 369.153 154.653 369.579C152.987 370.357 151.214 369.71 149.525 370.362C146.936 371.362 144.146 370.551 141.46 370.808C139.616 370.984 137.79 371.329 135.949 371.543C135.313 371.618 134.614 371.664 134.021 371.478C133.058 371.175 132.131 371.072 131.149 371.276C130.946 371.319 130.688 371.26 130.496 371.165C129.38 370.614 128.087 370.586 127.048 369.703C126.355 369.114 125.248 369.037 124.385 368.614C123.929 368.39 123.627 367.875 123.205 367.558C121.552 366.319 121.015 364.51 120.623 362.62C120.617 362.591 120.634 362.542 120.62 362.533C119.501 361.804 119.929 360.49 119.479 359.509C119.422 359.384 119.356 359.244 119.36 359.113C119.473 355.674 118.454 352.286 118.858 348.84C119.097 346.805 119.439 344.782 119.734 342.754C119.739 342.725 119.724 342.675 119.736 342.668C120.852 342.048 121.008 340.799 121.52 339.817C123.122 336.743 126.071 334.927 128.236 332.387C128.351 332.252 128.613 332.078 128.586 332.01C128.138 330.885 129.197 330.314 129.519 329.482C129.594 329.288 130.007 329.108 130.254 329.121C131.239 329.172 131.983 329.144 132.12 327.814C132.172 327.307 132.986 326.882 133.446 326.413C134.145 325.697 134.863 325.057 135.129 323.964C135.282 323.338 136.129 322.913 136.512 322.303C137.112 321.343 137.848 320.451 137.891 319.191C137.917 318.468 138.285 317.755 138.512 317.042C139.007 315.485 139.509 313.931 140.013 312.377C140.047 312.273 140.094 312.147 140.176 312.09C141.241 311.349 141.352 310.146 141.711 309.047C141.932 308.37 142.409 307.772 142.604 307.091C142.924 305.973 143.475 305.051 144.375 304.323C144.474 304.243 144.511 304.085 144.572 303.961C144.988 303.118 145.278 302.208 145.626 301.351C146.059 300.287 145.833 298.961 145.924 297.75C145.969 297.146 146.079 296.546 146.177 295.948C146.203 295.787 146.324 295.641 146.341 295.481C146.478 294.251 146.567 293.013 146.741 291.788C146.834 291.131 147.091 290.498 147.227 289.844C147.383 289.096 147.593 288.337 147.589 287.584C147.582 286.555 147.787 285.614 148.244 284.708C148.317 284.562 148.419 284.341 148.362 284.232C147.475 282.54 148.591 280.881 148.493 279.172C148.425 278.004 148.702 276.821 148.442 275.553C148.176 274.253 148.775 272.82 148.072 271.51C148.009 271.392 148.014 271.235 147.995 271.095C147.867 270.132 147.914 269.101 147.57 268.223C147.152 267.155 147.336 266.104 147.224 265.049C147.1 263.89 146.738 262.734 146.773 261.586C146.807 260.517 147.23 259.462 147.473 258.399C147.536 258.123 147.572 257.841 147.614 257.561C147.736 256.745 147.855 255.928 147.975 255.112C147.984 255.055 148.009 254.99 147.991 254.942C147.485 253.582 148.323 252.155 147.935 250.883C147.504 249.474 147.889 248.067 147.579 246.729C147.059 244.485 147.926 242.553 148.585 240.54C148.786 239.927 148.844 239.251 148.866 238.6C148.888 237.941 148.909 237.387 149.449 236.845C149.842 236.449 150.063 235.76 150.113 235.179C150.174 234.491 150.452 233.988 150.962 233.649C151.707 233.153 151.88 232.335 152.149 231.621C152.783 229.94 153.275 228.204 153.823 226.489C153.873 226.33 153.954 226.163 153.944 226.005C153.804 223.791 154.805 222.097 156.344 220.632C157.101 219.911 157.878 219.201 158.547 218.403C159.029 217.828 159.463 217.264 160.106 216.82C160.672 216.43 161.155 216.034 161.86 215.828C162.666 215.594 163.365 215.008 164.138 214.633C164.732 214.345 165.369 214.145 165.988 213.908C166.22 213.819 166.471 213.768 166.686 213.649C167.441 213.231 168.176 212.777 168.935 212.368C169.174 212.24 169.464 212.202 169.733 212.135C170.6 211.917 171.457 211.614 172.337 211.513C173.567 211.371 174.526 210.89 175.582 210.194C176.753 209.423 178.208 209.057 179.193 207.93C179.269 207.843 179.363 207.713 179.456 207.707C181.048 207.598 181.768 206.261 182.778 205.344C183.463 204.722 184.063 204.006 184.759 203.398C185.219 202.996 185.783 202.713 186.301 202.375C186.512 202.237 186.773 202.139 186.927 201.953C187.817 200.872 189.246 200.217 189.525 198.636C189.568 198.395 189.967 198.237 190.125 197.991C190.316 197.693 190.517 197.354 190.558 197.013C190.69 195.908 190.853 194.84 191.622 193.947C191.799 193.741 191.796 193.363 191.837 193.059C192 191.866 192.185 190.681 193.206 189.863C194.101 189.146 194.107 188.027 194.503 187.084C194.581 186.898 194.671 186.718 194.819 186.472ZM217.186 162.964C217.282 163.758 217.033 164.39 216.403 164.916C216.166 165.114 216.033 165.472 215.926 165.783C215.105 168.157 214.398 170.584 212.329 172.274C211.953 172.581 211.589 172.969 211.375 173.397C210.934 174.284 210.605 175.227 210.216 176.141C209.398 178.063 209.028 180.097 208.692 182.141C208.647 182.414 208.587 182.696 208.474 182.945C208.142 183.675 207.737 184.374 207.442 185.116C207.207 185.707 207.132 186.36 206.909 186.957C206.698 187.525 206.441 188.09 206.111 188.595C205.37 189.73 204.571 190.826 203.8 191.942C203.723 192.054 203.67 192.187 203.629 192.318C203.266 193.452 202.982 194.619 202.528 195.715C202.073 196.811 201.486 197.858 200.888 198.886C200.407 199.712 199.81 200.47 199.292 201.275C199.162 201.477 199.159 201.757 199.06 201.984C198.904 202.338 198.724 202.682 198.54 203.022C198.434 203.219 198.29 203.396 198.179 203.59C197.6 204.604 197.228 205.839 196.412 206.595C194.142 208.698 192.314 211.226 189.569 212.909C187.883 213.943 186.586 215.625 184.497 216.07C184.399 216.091 184.319 216.224 184.241 216.313C183.43 217.245 182.222 217.494 181.214 218.087C180.921 218.259 180.693 218.542 180.436 218.774C180.704 218.968 180.946 219.252 181.245 219.34C182.281 219.647 183.29 219.905 184.061 220.794C184.978 221.852 186.05 222.775 187.009 223.799C187.302 224.113 187.526 224.545 187.642 224.961C187.869 225.771 187.839 226.688 188.204 227.416C188.727 228.458 188.452 229.348 188.233 230.365C188.031 231.3 187.995 232.356 188.228 233.271C188.39 233.909 189.088 234.373 187.784 234.066C187.671 234.04 187.482 234.11 187.403 234.2C186.983 234.682 186.704 234.376 186.395 234.064C185.493 233.15 184.557 232.268 183.681 231.33C183.054 230.658 182.6 229.878 181.758 229.346C180.982 228.856 180.466 228.158 179.344 228.167C178.295 228.175 177.255 227.585 176.187 227.436C175.447 227.333 174.643 227.437 173.909 227.616C172.892 227.864 171.931 228.341 170.915 228.591C169.253 229.001 167.758 229.699 166.451 230.803C166.346 230.891 166.214 231.001 166.092 231.006C165.263 231.038 164.839 231.669 164.331 232.17C163.29 233.199 162.272 234.251 161.219 235.266C160.835 235.636 160.736 236.041 160.625 236.556C160.412 237.544 159.99 238.495 159.584 239.431C159.286 240.115 158.712 240.712 158.549 241.415C158.286 242.556 158.238 243.749 158.137 244.923C157.952 247.062 157.784 249.202 157.632 251.344C157.589 251.957 157.66 252.579 157.619 253.193C157.525 254.572 157.983 255.998 157.257 257.328C157.169 257.489 157.233 257.741 157.247 257.949C157.426 260.522 156.946 263.106 157.574 265.689C157.841 266.786 157.465 268.024 157.521 269.191C157.572 270.231 157.826 271.26 157.966 272.296C157.999 272.541 157.928 272.799 157.917 273.051C157.818 275.365 157.688 277.679 157.652 279.994C157.643 280.519 158.031 281.038 158.12 281.578C158.432 283.464 157.702 285.335 158.002 287.228C158.014 287.304 157.962 287.389 157.944 287.47C157.837 287.934 157.667 288.394 157.64 288.862C157.594 289.646 157.801 290.478 156.955 291.011C156.838 291.084 156.797 291.298 156.75 291.455C156.446 292.465 156.24 293.515 155.833 294.48C154.983 296.492 154.951 298.63 154.725 300.737C154.601 301.905 154.812 303.135 154.537 304.255C154.111 305.992 153.355 307.646 152.829 309.362C152.564 310.229 152.012 310.896 151.621 311.649C151.188 312.484 150.586 313.179 150.148 313.988C150.121 314.037 150.063 314.074 150.047 314.125C149.259 316.674 148.627 319.258 146.893 321.444C146.421 322.039 146.145 322.88 145.538 323.463C145.456 323.541 145.501 323.739 145.457 323.872C144.885 325.612 144.3 327.338 142.894 328.639C142.289 329.199 141.573 329.703 141.512 330.667C141.5 330.853 141.242 331.033 141.079 331.197C139.096 333.184 137.095 335.154 135.14 337.168C134.807 337.511 134.65 338.031 134.438 338.482C133.884 339.656 133.573 341.042 132.744 341.964C131.609 343.227 131.107 344.543 131.133 346.166C131.139 346.536 131.167 346.972 130.995 347.267C129.989 348.996 130.295 350.973 129.914 352.817C129.782 353.458 130.258 354.202 130.228 354.89C130.141 356.959 131.472 358.162 132.797 359.39C132.873 359.46 132.996 359.491 133.103 359.511C133.796 359.643 134.488 359.854 135.185 359.877C136.856 359.931 138.53 359.915 140.202 359.877C140.54 359.869 140.889 359.504 141.207 359.538C142.533 359.68 143.801 359.802 144.932 358.816C145.302 358.494 145.884 358.378 146.391 358.256C148.241 357.81 150.097 357.389 151.959 356.992C152.286 356.922 152.666 356.952 152.989 357.047C154.281 357.428 155.515 357.532 156.848 357.044C158.064 356.6 159.183 355.971 160.325 355.48C161.589 354.937 162.214 353.62 163.674 353.348C164.328 353.227 164.959 352.32 165.811 352.07C166.095 351.987 166.322 351.727 166.588 351.569C167.33 351.128 168.034 350.567 168.835 350.294C170.046 349.881 171.348 349.74 172.572 349.357C173.756 348.987 174.974 348.612 175.747 347.491C175.924 347.234 176.189 346.92 176.461 346.865C177.732 346.607 178.494 345.496 179.66 345.056C180.653 344.683 181.707 344.346 182.391 343.424C182.413 343.395 182.508 343.409 182.565 343.422C183.265 343.573 183.323 343.077 183.502 342.595C183.62 342.276 183.92 341.937 184.226 341.796C184.775 341.544 185.477 341.565 185.959 341.24C187.125 340.454 188.333 339.792 189.675 339.379C190.02 339.273 190.444 339.28 190.708 339.075C191.739 338.275 192.889 337.74 194.114 337.333C194.243 337.29 194.396 337.217 194.465 337.11C195.196 335.974 196.42 335.652 197.584 335.336C198.757 335.018 199.774 334.549 200.541 333.589C200.643 333.46 200.797 333.328 200.95 333.291C202.228 332.98 203.513 332.703 204.791 332.391C205.927 332.114 207.043 331.737 208.191 331.524C210.111 331.166 211.688 329.603 213.8 329.947C213.871 329.958 213.951 329.876 214.031 329.863C214.844 329.732 215.654 329.55 216.472 329.495C217.424 329.431 218.389 329.414 219.337 329.499C220.314 329.585 221.284 329.792 222.248 329.994C223.314 330.217 224.357 330.608 225.432 330.714C226.418 330.812 227.406 330.77 228.424 330.417C229.737 329.961 231.23 330.023 232.542 329.564C234.058 329.034 235.568 329.064 237.095 329.117C238.538 329.166 239.979 329.333 241.417 329.489C242.088 329.562 242.743 329.788 243.414 329.84C244.143 329.895 244.893 329.905 245.614 329.799C246.809 329.623 247.982 329.301 249.175 329.115C249.841 329.012 250.533 329.09 251.208 329.032C252.087 328.956 252.966 328.849 253.837 328.712C254.388 328.625 254.932 328.48 255.466 328.322C255.915 328.189 256.335 327.94 256.789 327.848C257.298 327.745 257.841 327.809 258.352 327.713C259.314 327.533 260.264 327.287 261.221 327.076C261.335 327.051 261.473 327.037 261.576 327.078C262.657 327.502 263.65 326.958 264.634 326.721C265.779 326.445 267.015 326.248 267.899 325.306C267.955 325.247 268.13 325.299 268.25 325.298C269.786 325.295 271.098 324.79 272.12 323.601C272.282 323.412 272.567 323.131 272.727 323.17C274.043 323.494 274.967 322.57 275.961 322.079C276.949 321.591 278.075 321.238 278.804 320.24C279.283 319.584 279.962 319.165 280.812 318.846C281.705 318.511 282.395 317.591 283.124 316.876C283.642 316.366 284.105 315.884 284.94 316.025C285.202 316.069 285.594 315.925 285.78 315.728C286.349 315.125 287.402 315.212 287.753 314.311C287.785 314.227 288.027 314.245 288.125 314.162C288.36 313.963 288.653 313.769 288.769 313.505C289.034 312.9 289.206 312.253 289.419 311.625C289.899 310.211 290.35 308.786 290.868 307.386C291.395 305.963 292.032 304.58 292.534 303.15C292.776 302.461 293.018 301.829 293.588 301.337C293.783 301.169 293.855 300.859 293.981 300.612C294.207 300.168 294.33 299.613 294.673 299.298C296.244 297.858 296.825 296.016 297.023 293.987C297.037 293.845 297.014 293.674 297.085 293.567C297.632 292.745 298.218 291.948 298.747 291.115C298.951 290.795 299.042 290.403 299.175 290.04C299.232 289.884 299.226 289.693 299.314 289.562C299.883 288.719 300.473 287.891 301.047 287.052C301.122 286.941 301.161 286.797 301.186 286.663C301.448 285.277 302.032 284.096 303.143 283.164C303.919 282.514 304.61 281.759 305.302 281.017C305.791 280.493 306.287 280.048 307.059 280.046C307.178 280.045 307.403 279.879 307.397 279.802C307.345 279.029 308.002 278.956 308.45 278.656C308.902 278.354 309.289 277.742 309.743 277.702C310.639 277.623 311.055 277.012 311.593 276.507C312.071 276.057 312.473 275.508 313.002 275.134C313.701 274.639 314.485 274.261 315.244 273.852C315.754 273.576 316.346 273.413 316.789 273.058C317.522 272.471 318.031 271.594 319.116 271.509C319.492 271.48 319.88 271.336 320.222 271.165C321.462 270.549 322.629 269.712 323.932 269.321C324.924 269.023 325.492 268.385 326.165 267.772C326.27 267.676 326.379 267.565 326.507 267.517C327.775 267.044 329.045 266.579 330.319 266.12C330.839 265.932 331.374 265.785 331.89 265.588C333.505 264.971 335.086 264.258 336.894 264.458C337.603 264.536 338.327 264.474 339.043 264.468C339.246 264.467 339.473 264.493 339.647 264.413C341.037 263.773 342.562 263.371 343.659 262.196C343.728 262.122 343.862 262.114 343.959 262.061C344.398 261.822 344.845 261.596 345.267 261.329C345.487 261.189 345.645 260.841 345.856 260.817C347.386 260.645 348.28 259.338 349.589 258.781C350.301 258.479 350.947 257.972 351.68 257.785C352.671 257.533 353.735 257.577 354.736 257.353C355.785 257.118 356.92 256.904 357.793 256.336C358.832 255.661 359.588 254.633 360.808 254.075C361.796 253.623 363.048 253.432 363.675 252.323C363.698 252.282 363.853 252.334 363.928 252.301C364.257 252.156 364.699 252.083 364.884 251.828C366.152 250.081 368.272 249.373 369.696 247.826C369.813 247.699 370.058 247.699 370.23 247.613C370.701 247.379 371.201 247.18 371.624 246.876C372.333 246.367 372.718 245.422 373.818 245.419C374.072 245.419 374.522 244.906 374.539 244.609C374.582 243.864 375.05 243.469 375.498 243.021C376.28 242.24 377.07 241.467 377.837 240.671C378.048 240.451 378.201 240.171 378.357 239.904C378.694 239.328 378.955 238.696 379.359 238.175C379.813 237.591 380.711 237.169 380.838 236.557C381.023 235.665 381.621 235.24 382.09 234.637C382.342 234.314 382.526 233.925 382.681 233.542C382.939 232.902 383.086 232.211 383.396 231.599C383.774 230.854 384.312 230.19 384.706 229.452C385.293 228.355 385.635 227.066 386.429 226.165C386.923 225.605 387.189 225.088 387.387 224.438C387.441 224.259 387.581 224.08 387.728 223.957C389.035 222.874 389.513 221.449 389.392 219.811C389.343 219.141 389.165 218.478 389.022 217.818C388.65 216.092 388.264 214.369 387.884 212.645C387.673 211.687 387.451 210.731 387.257 209.77C387.189 209.437 387.259 209.065 387.146 208.754C386.931 208.159 386.712 207.533 386.34 207.036C385.975 206.548 385.476 205.992 384.932 205.844C383.966 205.579 383.542 204.889 383.085 204.162C382.833 203.761 382.671 203.281 382.352 202.95C381.21 201.764 379.855 200.823 378.591 199.79C376.083 197.74 373.926 195.26 371.624 192.958C371.152 192.487 370.68 192.015 370.208 191.543C369.652 190.987 368.852 190.524 368.594 189.853C368.164 188.734 367.389 187.98 366.61 187.177C366.454 187.016 366.326 186.821 366.218 186.624C366.007 186.235 365.921 185.702 365.605 185.461C364.568 184.672 364.134 183.512 363.565 182.435C363.401 182.124 363.407 181.728 363.294 181.384C363.148 180.939 362.955 180.509 362.792 180.069C362.658 179.706 362.508 179.345 362.423 178.969C362.366 178.714 362.499 178.393 362.394 178.174C361.808 176.951 361.415 175.513 360.505 174.596C358.941 173.021 357.627 171.196 355.517 170.086C354.331 169.462 353.229 168.407 352.08 167.554C351.394 167.044 350.841 166.355 350.22 165.754C350.031 165.571 349.818 165.413 349.615 165.243C349.892 165.117 350.165 164.89 350.445 164.882C351.782 164.844 353.122 164.859 354.461 164.871C354.682 164.873 354.903 164.953 355.125 164.991C355.879 165.12 356.634 165.24 357.386 165.374C357.745 165.438 358.125 165.467 358.453 165.609C359.472 166.049 360.316 165.719 360.634 164.667C361.108 163.099 361.642 161.541 361.968 159.941C362.136 159.117 361.937 158.209 361.851 157.344C361.787 156.698 361.631 156.062 361.527 155.421C361.353 154.356 361.36 153.224 360.979 152.241C360.384 150.709 360.829 149.171 360.689 147.646C360.599 146.672 360.899 145.637 361.068 144.637C361.478 142.207 361.024 139.796 360.033 137.495C359.585 136.457 359.132 135.35 359.053 134.248C358.988 133.333 358.621 132.795 358.045 132.22C357.492 131.668 356.992 131.057 356.514 130.437C356.245 130.089 356.068 129.669 355.849 129.282C355.672 128.967 355.426 128.673 355.328 128.335C354.878 126.787 353.657 125.652 352.447 125.066C351.299 124.51 350.433 123.795 349.555 122.985C348.968 122.444 348.517 121.755 347.558 121.718C347.097 121.701 346.56 121.444 346.214 121.125C345.652 120.607 345.118 120.165 344.328 120.016C343.742 119.905 343.189 119.606 342.63 119.368C341.97 119.086 341.343 118.601 340.663 118.517C338.564 118.257 336.446 118.151 334.337 117.971C334.033 117.945 333.737 117.837 333.437 117.768C331.882 117.411 330.464 116.473 328.766 116.695C328.48 116.732 328.169 116.568 327.867 116.508C327.534 116.442 327.165 116.269 326.871 116.351C325.807 116.649 324.755 117.001 323.722 117.394C322.407 117.895 321.131 118.499 319.808 118.973C319.101 119.227 318.325 119.282 317.59 119.465C316.041 119.852 314.607 120.74 312.916 120.521C312.704 120.493 312.475 120.598 312.253 120.638C310.463 120.962 308.975 121.997 307.438 122.843C306.29 123.475 305.09 123.97 303.94 124.577C303.175 124.981 302.391 125.403 301.746 125.965C300.962 126.649 300.24 127.244 299.168 127.567C297.651 128.023 296.25 128.872 294.811 129.578C294.485 129.738 294.211 130.003 293.909 130.213C293.631 130.406 293.366 130.71 293.064 130.755C291.727 130.956 290.768 131.704 289.899 132.672C289.661 132.937 289.209 133.004 288.87 133.188C288.478 133.4 288.091 133.626 287.722 133.876C287.483 134.039 287.293 134.406 287.061 134.424C286.243 134.489 285.82 135.086 285.268 135.538C284.909 135.831 284.465 136.039 284.031 136.216C283.443 136.455 282.799 136.57 282.231 136.843C281.257 137.312 280.322 137.861 279.372 138.38C278.641 138.78 277.913 139.184 277.185 139.589C276.165 140.156 275.175 140.785 274.121 141.279C272.898 141.851 271.402 141.771 270.371 142.836C270.275 142.936 270.047 142.944 269.883 142.937C267.097 142.817 264.313 142.69 261.528 142.557C261.365 142.549 261.179 142.515 261.047 142.429C260.07 141.789 259.113 141.908 258.12 142.408C257.882 142.528 257.54 142.44 257.246 142.45C256.16 142.486 255.013 142.313 254.003 142.609C252.295 143.108 250.676 143.092 249.015 142.568C248.823 142.508 248.601 142.538 248.392 142.53C247.548 142.497 246.692 142.545 245.863 142.416C244.731 142.239 243.632 141.811 242.498 141.705C241.208 141.585 239.897 141.581 238.62 142.036C237.865 142.305 237.043 142.387 236.254 142.564C235.737 142.679 235.228 142.841 234.708 142.936C233.815 143.1 232.903 143.251 232.271 143.966C231.226 145.149 229.421 145.237 228.519 146.613C228.486 146.663 228.351 146.636 228.282 146.677C227.849 146.932 227.37 147.138 227.002 147.468C226.248 148.146 225.552 148.889 224.84 149.613C224.68 149.775 224.443 149.961 224.428 150.151C224.354 151.074 223.633 151.523 223.098 152.117C222.674 152.589 222.08 153.034 221.92 153.593C221.527 154.974 221.051 156.244 219.859 157.142C219.754 157.222 219.785 157.464 219.717 157.614C219.32 158.495 219.083 159.527 218.463 160.208C217.74 161.003 217.417 161.868 217.186 162.964Z"
                fill="#3C3E5A" />
            <path
                d="M310.456 184.444C310.897 183.518 311.344 182.659 311.774 181.791C311.945 181.445 312.184 181.089 312.211 180.724C312.29 179.623 312.881 178.71 313.186 177.726C313.693 176.092 314.43 175.099 316.135 174.901C316.643 173.956 317.361 174.443 318.034 174.623C318.738 174.812 319.437 174.946 319.759 175.779C319.897 176.136 320.313 176.393 320.622 176.673C321.027 177.041 321.001 177.363 320.795 177.888C320.341 179.046 320.085 180.28 319.698 181.467C319.425 182.306 319.061 183.115 318.756 183.943C318.574 184.436 318.412 184.938 318.269 185.444C318.019 186.327 317.797 187.219 317.55 188.104C317.372 188.745 317.177 189.382 316.981 190.018C316.933 190.176 316.798 190.326 316.801 190.477C316.843 193.013 315.974 195.354 315.28 197.735C314.983 198.753 314.751 199.793 314.542 200.833C314.289 202.094 313.068 202.716 312.613 203.799C311.826 205.674 309.744 206.773 309.569 208.99C308.401 210.153 308.716 212.089 307.32 213.195C306.884 213.54 306.887 214.419 306.646 215.037C306.496 215.421 306.33 215.836 306.056 216.13C305.203 217.048 304.263 217.887 303.421 218.814C302.992 219.286 302.71 219.89 302.341 220.42C302.191 220.634 301.964 220.992 301.812 220.973C301.192 220.894 300.909 221.314 300.554 221.655C300.037 222.15 299.448 222.463 298.788 222.784C297.706 223.31 296.458 223.687 295.642 224.756C295.032 225.556 294.218 226.2 293.518 226.935C293.402 227.056 293.404 227.289 293.351 227.47C293.557 227.474 293.788 227.54 293.965 227.47C295.428 226.892 296.837 226.03 298.35 225.776C299.534 225.577 300.664 225.308 301.784 224.93C304.776 223.919 307.868 224.726 310.89 224.395C312.554 224.213 314.186 223.73 315.828 223.358C317.354 223.013 318.872 222.633 320.395 222.275C320.616 222.223 320.955 222.29 321.053 222.161C321.629 221.401 322.43 221.508 323.216 221.511C324.052 221.514 324.899 221.598 325.722 221.491C326.919 221.335 328.095 221.027 329.286 220.815C329.547 220.769 329.83 220.878 330.104 220.879C330.662 220.88 331.221 220.85 331.779 220.847C332.313 220.844 332.847 220.87 333.38 220.862C334.555 220.844 335.731 220.822 336.906 220.78C337.183 220.77 337.465 220.609 337.733 220.636C339.357 220.801 340.78 220.097 342.236 219.593C343.276 219.233 344.244 218.67 345.273 218.275C345.678 218.119 346.169 218.109 346.612 218.145C347.376 218.207 348.146 218.303 348.889 218.482C350.237 218.806 351.665 218.977 352.735 219.982C352.893 220.131 352.848 220.549 352.818 220.833C352.657 222.359 350.865 222.982 350.74 224.545C350.733 224.64 350.514 224.802 350.404 224.793C349.713 224.737 349.297 225.146 348.828 225.563C348.372 225.968 347.806 226.25 347.283 226.577C347.192 226.635 347.031 226.62 346.978 226.693C346.225 227.73 344.954 227.737 343.957 228.269C342.917 228.825 341.847 229.248 340.744 229.607C339.924 229.874 339.074 230.051 338.234 230.253C337.146 230.515 336.056 230.768 334.964 231.012C334.659 231.08 334.343 231.135 334.032 231.137C332.061 231.148 330.089 231.177 328.119 231.13C326.918 231.101 325.859 231.496 324.745 231.855C323.83 232.15 322.78 232.026 321.789 232.081C321.679 232.087 321.535 231.994 321.458 232.038C320.188 232.757 318.802 232.217 317.492 232.424C316.274 232.616 315.074 232.923 313.867 233.183C313.76 233.206 313.661 233.287 313.556 233.293C311.225 233.425 308.869 233.388 306.568 233.723C304.332 234.05 301.979 233.731 299.861 234.808C299.644 234.919 299.363 234.935 299.111 234.938C298.017 234.952 296.901 234.812 295.833 234.982C294.81 235.145 293.852 235.675 292.838 235.943C291.779 236.222 290.686 236.375 289.611 236.595C289.285 236.662 288.971 236.791 288.645 236.853C288.312 236.917 287.968 236.921 287.633 236.976C287.358 237.021 287.09 237.106 286.817 237.166C286.323 237.273 285.822 237.353 285.336 237.486C284.992 237.58 284.666 237.742 284.334 237.876C283.617 238.165 282.911 238.672 282.183 238.704C280.217 238.79 278.557 239.81 276.723 240.269C276.617 240.295 276.507 240.404 276.418 240.385C275.012 240.084 274.283 241.074 273.457 241.905C270.739 244.636 268.045 247.393 265.26 250.053C264.603 250.681 263.657 251.057 262.785 251.394C261.956 251.714 261.066 251.797 260.337 252.441C259.933 252.799 259.26 252.84 258.731 253.074C258.2 253.308 257.618 253.518 257.197 253.894C256.219 254.768 255.355 255.77 254.381 256.65C253.844 257.135 253.154 257.446 252.575 257.89C252.043 258.299 251.498 258.725 251.082 259.243C250.364 260.139 249.355 260.374 248.35 260.678C248.011 260.781 247.588 260.902 247.398 261.158C246.37 262.546 244.761 262.725 243.299 263.188C242.605 263.408 241.836 263.39 241.14 263.609C240.515 263.805 239.926 264.145 239.353 264.478C238.363 265.053 237.368 265.63 236.433 266.289C235.904 266.662 235.478 267.188 235.031 267.669C234.136 268.633 232.968 269.105 231.775 269.549C231.57 269.625 231.354 269.777 231.233 269.955C230.454 271.098 229.152 271.248 228.006 271.695C227.826 271.766 227.59 271.8 227.484 271.933C226.732 272.876 225.676 273.144 224.569 273.358C224.288 273.413 223.987 273.623 223.796 273.847C222.617 275.234 221.158 276.166 219.453 276.792C218.994 276.96 218.672 277.488 218.268 277.828C218.033 278.026 217.779 278.274 217.498 278.333C216.077 278.632 215.253 279.471 214.951 280.883C214.896 281.14 214.697 281.392 214.505 281.588C213.397 282.719 212.268 283.828 211.155 284.954C210.592 285.522 209.938 285.999 209.801 286.91C209.75 287.25 209.347 287.601 209.02 287.821C208.211 288.365 207.347 288.826 206.52 289.344C206.327 289.464 206.143 289.658 206.051 289.861C205.976 290.028 206.043 290.259 206.046 290.461C206.207 290.42 206.394 290.419 206.523 290.332C208.56 288.947 211.01 288.605 213.213 287.661C216.107 286.42 219.096 287.109 222.038 286.901C223.576 287.892 225.121 286.825 226.649 286.798C228.534 286.765 230.47 286.318 232.349 285.951C235.21 285.394 238.053 285.819 240.895 285.636C243.163 285.491 245.384 285.785 247.57 286.389C247.768 286.443 248.035 286.505 248.189 286.418C249.132 285.886 250.164 286.111 251.157 285.995C252.703 285.815 254.232 285.486 255.773 285.261C256.819 285.109 257.82 284.996 258.902 285.45C259.689 285.78 260.698 285.556 261.601 285.647C262.213 285.708 262.817 285.869 263.41 286.036C263.495 286.059 263.583 286.491 263.524 286.534C262.692 287.14 262.484 288.186 261.872 288.886C261.259 289.587 260.294 290.049 259.403 290.42C258.505 290.794 257.719 291.238 257.089 291.979C256.524 292.643 255.872 293.122 254.979 293.378C253.793 293.718 252.702 294.388 251.516 294.733C250.461 295.04 249.256 294.906 248.257 295.311C246.859 295.878 245.394 295.844 244.114 295.56C242.284 295.154 240.444 295.076 238.708 295.336C235.104 295.875 231.512 295.449 227.925 295.666C227.276 295.706 226.647 296.027 226.004 296.202C225.546 296.326 225.081 296.511 224.617 296.518C222.258 296.55 219.897 296.477 217.539 296.551C215.876 296.604 214.257 297.005 212.696 297.604C212.568 297.654 212.438 297.808 212.331 297.789C210.888 297.529 209.689 298.376 208.413 298.747C207.057 299.141 205.859 300.057 204.551 300.653C203.674 301.053 202.728 301.3 201.807 301.599C200.654 301.974 199.523 302.382 198.651 303.282C198.071 303.882 197.44 304.336 196.639 304.693C195.474 305.211 194.439 306.039 193.388 306.791C192.826 307.193 191.085 307.164 190.534 306.625C189.616 305.726 188.738 304.787 187.799 303.911C187.136 303.293 187.228 302.591 187.416 301.848C187.484 301.58 187.638 301.32 187.649 301.053C187.679 300.264 187.642 299.479 188.808 299.552C188.965 299.562 189.19 299.311 189.298 299.129C189.58 298.654 189.837 298.16 190.062 297.655C190.444 296.799 190.781 295.922 191.165 295.066C191.29 294.788 191.516 294.557 191.672 294.29C191.909 293.882 192.119 293.459 192.351 293.049C192.462 292.853 192.609 292.679 192.719 292.484C193.032 291.927 193.324 291.359 193.645 290.807C193.815 290.515 193.98 290.191 194.23 289.98C195.58 288.843 196.442 287.396 197.048 285.765C197.133 285.534 197.34 285.338 197.521 285.156C199.417 283.251 201.312 281.344 203.227 279.458C203.605 279.085 203.751 278.747 203.508 278.235C203.034 277.238 202.944 276.133 202.247 275.156C201.534 274.157 201.47 272.704 200.791 271.667C200.037 270.518 200.122 269.297 199.838 268.098C199.543 266.858 199.997 265.83 200.206 264.717C200.243 264.524 200.306 264.336 200.33 264.142C200.504 262.719 200.719 261.299 200.828 259.871C200.997 257.662 200.923 255.421 201.266 253.243C201.624 250.967 201.475 248.58 202.53 246.431C202.566 246.357 202.562 246.242 202.617 246.202C204.01 245.184 203.668 243.468 204.258 242.129C204.291 242.054 204.254 241.925 204.303 241.882C205.528 240.8 205.877 239.035 207.298 238.091C207.786 237.767 208.191 237.292 208.563 236.829C208.836 236.489 208.99 236.054 209.205 235.666C209.313 235.471 209.412 235.259 209.563 235.101C210.1 234.539 210.631 233.969 211.212 233.456C211.939 232.813 212.366 232.015 212.788 231.15C213.235 230.231 213.55 229.235 214.357 228.463C215.092 227.759 215.892 227.637 216.751 227.748C217.454 227.838 218.043 227.68 218.712 227.544C219.772 227.33 220.931 227.474 222.029 227.613C223.803 227.837 223.821 229.253 223.907 230.602C224.002 232.082 223.609 233.377 222.757 234.614C222.136 235.515 221.8 236.606 221.26 237.569C220.722 238.529 219.993 239.39 219.515 240.375C218.504 242.46 217.257 244.348 215.503 245.88C215.413 245.959 215.271 246.04 215.258 246.134C215.045 247.745 213.294 248.491 213.051 250.094C212.917 250.98 212.687 251.852 212.497 252.73C212.337 253.469 212.159 254.205 212.014 254.948C211.743 256.331 211.463 257.714 211.251 259.107C211.2 259.44 211.398 259.811 211.486 260.163C211.52 260.297 211.627 260.44 211.602 260.557C211.407 261.459 211.183 262.354 210.98 263.254C210.918 263.531 210.859 263.816 210.856 264.097C210.844 265.471 210.891 266.847 210.833 268.218C210.804 268.916 210.461 269.618 210.517 270.297C210.556 270.768 210.989 271.248 211.354 271.616C211.429 271.692 212.043 271.359 212.304 271.107C213.636 269.82 214.933 268.498 216.243 267.189C216.39 267.042 216.536 266.777 216.69 266.771C217.923 266.728 218.386 265.631 219.197 265.011C219.5 264.78 219.875 264.638 220.226 264.474C220.5 264.346 220.86 264.32 221.059 264.124C222.479 262.72 224.461 262.654 226.173 261.961C227.067 261.6 228.014 261.441 228.67 260.614C229.132 260.033 229.705 259.54 230.244 259.022C230.839 258.449 231.359 257.874 232.285 257.652C232.964 257.489 233.478 256.682 234.093 256.197C234.349 255.994 234.682 255.891 234.969 255.724C235.283 255.542 235.664 255.4 235.879 255.131C236.621 254.198 237.644 253.871 238.73 253.547C239.567 253.297 240.301 252.668 241.142 252.472C242.298 252.202 242.902 251.319 243.713 250.644C244.154 250.277 244.719 250.058 245.226 249.77C245.324 249.715 245.414 249.646 245.507 249.583C246.535 248.893 247.487 248.012 248.61 247.558C250.249 246.896 251.055 245.225 252.475 244.542C253.504 244.047 254.41 243.349 255.452 242.879C256.425 242.44 257.528 242.12 258.26 241.181C258.548 240.812 259.087 240.467 259.534 240.436C260.216 240.388 260.271 240.044 260.272 239.553C260.275 238.06 260.273 236.567 260.273 235.073C260.273 234.247 260.302 233.42 260.268 232.595C260.155 229.929 260.021 227.264 259.888 224.599C259.882 224.466 259.823 224.329 259.764 224.205C258.722 222.007 258.749 219.617 259.068 217.359C259.704 212.863 259.224 208.375 259.347 203.888C259.383 202.581 258.949 201.262 258.733 199.948C258.692 199.695 258.632 199.44 258.63 199.186C258.621 197.663 258.876 196.085 258.559 194.631C258.204 193 258.808 191.491 258.68 189.909C258.618 189.144 259.161 188.339 259.38 187.539C259.822 185.927 260.209 184.301 260.661 182.692C260.943 181.687 261.213 180.684 262.112 179.961C262.465 179.676 262.571 179.092 262.81 178.655C263.278 177.802 263.648 176.864 264.262 176.131C265.198 175.013 266.306 174.04 267.341 173.005C267.467 172.878 267.586 172.651 267.722 172.64C269.1 172.53 269.621 171.279 270.548 170.573C270.851 170.342 271.219 170.094 271.579 170.057C273.222 169.885 274.878 169.706 276.484 170.315C277.077 170.54 277.301 171.163 276.99 171.719C276.664 172.301 276.12 172.857 276.05 173.467C275.885 174.922 274.767 175.609 273.947 176.556C273.662 176.886 273.498 177.321 273.283 177.71C273.244 177.782 273.25 177.892 273.196 177.94C271.592 179.372 271.998 181.563 271.168 183.285C270.892 183.859 270.499 184.388 270.301 184.985C269.825 186.417 269.518 187.89 269.522 189.414C269.529 192.161 269.551 194.909 269.507 197.657C269.494 198.412 269.161 199.165 269.166 199.918C269.179 201.581 269.309 203.243 269.401 204.905C269.414 205.128 269.495 205.347 269.522 205.57C269.612 206.341 269.741 207.111 269.76 207.884C269.771 208.355 269.537 208.829 269.535 209.302C269.517 214.111 269.503 218.919 269.541 223.728C269.549 224.722 269.909 225.718 269.874 226.705C269.818 228.313 269.565 229.913 269.409 231.517C269.389 231.726 269.449 231.943 269.472 232.156C269.649 232.081 269.821 231.983 270.006 231.933C271.053 231.649 271.756 231.108 272.053 229.957C272.15 229.582 272.985 229.427 273.436 229.106C274.09 228.641 274.684 228.092 275.337 227.626C275.717 227.356 276.193 227.22 276.574 226.95C277.023 226.633 277.446 226.264 277.826 225.866C278.193 225.482 278.554 225.262 279.126 225.286C279.516 225.302 279.94 225.107 280.307 224.924C281.235 224.462 282.162 224.048 283.007 223.368C283.52 222.954 284.603 222.829 284.764 222.171C285.224 220.282 287.438 219.675 287.784 217.766C287.811 217.618 287.983 217.478 288.117 217.371C289.463 216.289 290.281 214.593 292.127 214.064C292.604 213.927 292.916 213.271 293.351 212.91C293.668 212.646 294.066 212.48 294.419 212.257C294.565 212.166 294.798 212.044 294.804 211.927C294.843 211.067 295.804 210.815 296.009 210.183C296.564 208.476 298.467 207.688 298.809 205.871C298.847 205.667 299.002 205.439 299.17 205.313C300.18 204.561 300.557 203.479 300.84 202.322C300.902 202.067 301.126 201.829 301.325 201.633C302.106 200.865 302.924 200.141 303.126 198.966C303.168 198.718 303.452 198.502 303.647 198.292C304.095 197.81 304.581 197.412 304.677 196.642C304.728 196.238 305.275 195.869 305.648 195.541C306.126 195.12 306.244 194.618 306.304 194.006C306.353 193.505 306.609 192.998 306.868 192.548C307.52 191.414 308.395 190.424 308.465 188.984C308.508 188.114 308.856 187.275 309.5 186.543C309.975 186.002 310.148 185.196 310.456 184.444Z"
                fill="#3C3E5A" />
        </g>
    </g>
    <defs>
        <clipPath id="clip0_367_247">
            <rect width="359" height="359" fill="white" transform="translate(253.852) rotate(45)" />
        </clipPath>
        <clipPath id="clip1_367_247">
            <rect width="345.679" height="345.679" fill="white" transform="translate(249.142 4.70996) rotate(45)" />
        </clipPath>
    </defs>
</svg>