<svg width="428" height="487" viewBox="0 0 428 487" fill="none" xmlns="http://www.w3.org/2000/svg">
    <path fill-rule="evenodd" clip-rule="evenodd"
        d="M385.704 74.5686C378.171 72.5501 371.244 72.5869 356.62 76.6076C318.229 87.1625 278.6 123.557 242.819 129.461C217.28 133.676 176.633 135.31 144.606 147.696C101.242 164.466 67.7627 194.789 53.6018 220.299C-12.6961 339.73 97.4631 456.756 216.895 449.584C297.05 444.771 335.261 340.401 364.625 281.012C400.337 208.781 405.742 170.621 406.847 107.512C407.069 94.8633 385.704 74.5686 385.704 74.5686V74.5686Z"
        fill="#FFE4CC" />
    <g clip-path="url(#clip0_366_226)">
        <path fill-rule="evenodd" clip-rule="evenodd"
            d="M209.855 169.742C207.68 167.078 189.303 153.47 178.596 155.661C171.66 157.08 165.474 159.978 160.06 164.228C149.54 172.486 152.392 188.442 144.386 197.471C136.932 205.877 123.775 200.177 113.966 215.034C109.008 222.543 118.75 248.406 118.096 258.546C117.759 263.772 117.372 273.398 114.171 278.246C112.871 280.214 108.558 285.812 109.134 288.626C109.888 292.31 113.403 294.905 114.147 298.54C115.605 305.665 108.652 314.685 108.139 322.644C106.971 340.762 113.231 394.097 127.547 406.791C133.853 412.383 140.929 385.732 142.536 382.838C149.928 369.522 159.309 357.484 171.236 348.122C186.044 336.499 198.583 334.464 210.346 316.648C216.656 307.092 205.142 283.452 211.77 275.977C228.586 257.014 259.602 254.736 261.888 219.291C262.8 205.155 260.5 191.192 245.526 192.09C239.745 192.437 229.947 195.015 224.503 191.42C219.617 188.194 214.257 185.393 213.177 179.814C212.833 178.039 211.467 171.716 209.855 169.742V169.742Z"
            fill="#B3B4CC" />
        <g clip-path="url(#clip1_366_226)">
            <path
                d="M109.219 264.522C109.196 263.843 109.142 263.228 109.122 262.611C109.108 262.169 109.035 261.691 109.171 261.291C109.651 259.874 109.518 258.466 109.17 257.075C108.843 255.767 108.396 254.49 108.004 253.199C107.97 253.085 107.907 252.939 107.948 252.851C108.341 252.002 107.938 251.215 107.81 250.399C107.714 249.792 107.783 249.161 107.751 248.543C107.735 248.227 107.615 247.914 107.617 247.6C107.624 246.814 107.711 246.027 107.692 245.243C107.68 244.772 107.527 244.304 107.443 243.834C107.402 243.599 107.329 243.359 107.346 243.127C107.404 242.291 107.414 241.46 107.549 240.617C107.71 239.605 107.346 238.522 107.376 237.474C107.411 236.247 106.747 235.098 107.12 233.821C107.28 233.272 106.968 232.601 106.998 231.992C107.049 230.963 106.635 229.922 107.122 228.895C107.244 228.637 107.108 228.264 107.126 227.946C107.136 227.77 107.197 227.587 107.275 227.426C107.434 227.101 107.668 226.806 107.781 226.468C107.939 225.992 108.013 225.494 108.521 225.223C108.629 225.166 108.742 224.998 108.743 224.88C108.752 223.96 109.447 223.352 109.798 222.593C110.152 221.825 110.748 221.173 111.192 220.442C111.557 219.839 111.831 219.182 112.19 218.575C112.421 218.184 112.713 217.824 113.013 217.481C113.498 216.925 114.011 216.393 114.513 215.851C114.554 215.807 114.622 215.771 114.634 215.721C114.961 214.42 116.209 214.18 117.154 213.701C117.774 213.388 118.341 213.081 118.918 212.679C119.806 212.062 120.876 211.686 121.904 211.299C122.352 211.13 122.89 211.213 123.379 211.133C123.714 211.079 124.054 210.982 124.36 210.838C125.554 210.275 126.848 209.838 127.894 209.068C129.263 208.062 130.743 207.259 132.132 206.309C132.568 206.011 132.974 205.769 133.454 205.553C134.036 205.292 134.47 204.721 135.03 204.389C135.74 203.97 136.448 203.606 136.495 202.644C136.5 202.544 136.613 202.437 136.699 202.356C137.388 201.707 138.082 201.063 138.775 200.418C138.79 200.403 138.826 200.395 138.826 200.384C138.836 199.5 139.452 198.909 139.942 198.309C140.92 197.109 140.729 195.48 141.472 194.289C141.999 193.446 141.979 192.328 142.875 191.684C143.102 191.521 143.203 191.107 143.256 190.791C143.385 190.022 143.782 189.443 144.298 188.876C144.802 188.321 145.247 187.698 145.682 187.081C146.089 186.503 146.825 186.149 146.885 185.304C147.878 184.637 147.802 183.483 148.164 182.526C148.268 182.251 148.47 182.013 148.628 181.758C148.702 181.64 148.844 181.525 148.846 181.407C148.861 180.489 149.55 179.879 149.904 179.122C150.119 178.661 150.651 178.353 151.022 177.96C151.28 177.685 151.512 177.385 151.748 177.09C151.959 176.826 152.23 176.583 152.351 176.281C152.647 175.543 153.356 175.285 153.865 174.8C154.709 173.995 155.729 173.52 156.671 172.899C156.93 172.728 157.11 172.438 157.332 172.209C158.419 171.09 159.515 169.979 160.592 168.85C160.865 168.564 161.062 168.207 161.328 167.914C161.545 167.675 161.787 167.354 162.065 167.297C162.894 167.126 163.492 166.583 164.167 166.161C164.22 166.127 164.297 166.103 164.32 166.054C164.824 165 165.84 165.02 166.779 164.852C167.056 164.803 167.335 164.663 167.571 164.502C168.41 163.933 169.331 163.635 170.334 163.539C170.549 163.518 170.782 163.415 170.957 163.284C171.713 162.723 172.54 162.575 173.463 162.693C173.758 162.731 174.077 162.525 174.392 162.475C175.706 162.266 177.023 162.063 178.341 161.881C178.853 161.811 179.374 161.811 179.888 161.758C180.204 161.726 180.515 161.65 180.829 161.599C181.849 161.43 182.867 161.248 183.891 161.111C184.107 161.082 184.355 161.198 184.573 161.285C185.571 161.68 186.565 161.653 187.597 161.394C188.377 161.198 189.112 161.379 189.68 162.01C189.708 162.041 189.724 162.116 189.746 162.116C190.829 162.113 191.344 163.279 192.387 163.395C192.677 163.427 192.942 163.7 193.216 163.865C193.266 163.896 193.299 163.957 193.351 163.982C194.064 164.326 194.779 164.667 195.494 165.009C195.695 165.105 195.967 165.153 196.081 165.313C196.442 165.823 196.961 165.999 197.522 166.08C198.378 166.205 199.073 166.596 199.653 167.227C199.785 167.37 199.953 167.535 200.13 167.575C201.15 167.804 201.748 168.527 202.34 169.31C202.927 170.085 203.609 170.787 204.233 171.534C204.395 171.727 204.498 171.969 204.625 172.19C204.85 172.581 205.087 172.966 205.294 173.366C205.646 174.044 206.156 174.635 206.212 175.469C206.282 176.511 206.986 177.305 207.443 178.195C207.586 178.475 207.62 178.81 207.713 179.118C207.778 179.331 207.806 179.584 207.941 179.742C208.358 180.23 208.895 180.631 209.247 181.158C209.863 182.08 210.371 183.073 210.932 184.032C211.111 184.338 211.328 184.623 211.505 184.93C211.902 185.622 212.292 186.319 212.671 187.021C212.776 187.217 212.826 187.441 212.914 187.648C213.21 188.351 213.462 189.081 213.832 189.743C214.038 190.111 214.481 190.337 214.752 190.678C215.014 191.007 215.26 191.38 215.39 191.773C215.507 192.125 215.618 192.348 216.012 192.426C216.433 192.509 216.801 192.628 217.135 193.03C217.395 193.343 218.042 193.317 218.498 193.491C218.793 193.604 219.051 193.811 219.329 193.969C219.505 194.069 219.678 194.187 219.868 194.243C220.529 194.436 221.202 194.587 221.858 194.792C222.099 194.868 222.36 195.004 222.521 195.191C223.076 195.838 223.785 195.95 224.537 195.769C225.276 195.59 225.826 195.739 226.361 196.303C226.842 196.81 227.37 197.274 228.14 197.421C229.214 197.627 230.261 197.974 231.322 198.251C231.879 198.397 232.41 198.622 233.03 198.392C233.3 198.292 233.704 198.59 234 198.517C235.82 198.063 237.373 199.074 239.039 199.422C239.604 199.54 240.081 200.063 240.605 200.391C240.961 200.614 241.306 200.905 241.697 201.01C242.203 201.146 242.58 201.402 242.936 201.76C243.747 202.576 244.683 203.237 245.3 204.276C246.549 206.378 247.842 208.469 249.302 210.426C249.917 211.251 250.459 212.107 251.024 212.958C251.3 213.373 251.398 213.793 251.194 214.26C251.025 214.644 251.19 214.958 251.306 215.332C251.594 216.264 252.132 217.128 252.036 218.182C251.983 218.764 252.184 219.365 252.196 219.958C252.211 220.723 252.225 221.5 252.103 222.25C252 222.882 252.156 223.446 252.241 224.042C252.302 224.474 252.297 224.936 252.213 225.364C252.067 226.1 251.833 226.819 251.644 227.548C251.545 227.927 251.339 228.297 251.655 228.698C251.734 228.799 251.595 229.054 251.594 229.238C251.592 229.637 251.613 230.036 251.628 230.435C251.635 230.614 251.709 230.817 251.649 230.968C251.338 231.751 251.583 232.49 251.762 233.244C251.806 233.431 251.74 233.656 251.685 233.852C251.487 234.552 251.258 235.242 251.55 235.979C251.604 236.114 251.56 236.304 251.521 236.459C251.352 237.126 251.166 237.789 250.992 238.455C250.956 238.595 250.881 238.771 250.932 238.88C251.3 239.67 250.904 240.388 250.658 241.069C250.441 241.67 249.967 242.179 249.608 242.73C249.434 242.998 249.166 243.25 249.113 243.541C248.971 244.324 248.534 244.875 247.965 245.38C247.797 245.53 247.699 245.792 247.634 246.021C247.325 247.118 247.026 248.218 246.747 249.323C246.594 249.932 246.4 250.482 245.931 250.957C245.664 251.227 245.542 251.699 245.48 252.1C245.368 252.83 245.007 253.415 244.561 253.958C243.487 255.263 242.416 256.573 241.293 257.835C240.932 258.241 240.433 258.54 239.96 258.825C239.236 259.261 238.58 259.733 238.373 260.617C238.368 260.638 238.368 260.671 238.355 260.677C237.473 261.111 237.082 261.948 236.649 262.75C236.515 262.999 236.302 263.246 236.279 263.507C236.204 264.373 235.587 264.88 235.066 265.441C234.723 265.811 234.299 266.105 233.914 266.437C233.824 266.515 233.709 266.599 233.677 266.702C233.19 268.249 231.694 268.983 230.828 270.231C230.446 270.78 229.816 271.153 229.318 271.627C229.179 271.759 229.036 271.959 229.02 272.139C228.96 272.823 228.5 273.113 227.986 273.467C226.948 274.181 226.174 275.109 225.568 276.273C225.077 277.215 224.955 278.315 224.404 279.128C223.391 280.623 223.294 282.348 222.804 283.965C222.559 284.77 222.052 285.294 221.573 285.892C221.4 286.109 221.243 286.349 221.13 286.602C220.658 287.658 220.699 288.782 220.798 289.89C220.838 290.337 221.151 290.752 221.275 291.2C221.463 291.883 221.45 292.612 221.901 293.233C222.031 293.412 221.897 293.782 221.885 294.064C221.865 294.528 221.801 294.995 221.836 295.454C221.879 296.027 222.01 296.593 222.09 297.163C222.121 297.38 222.166 297.613 222.116 297.818C221.974 298.402 221.899 298.956 221.968 299.583C222.032 300.16 221.698 300.775 221.582 301.381C221.527 301.672 221.56 301.981 221.574 302.281C221.617 303.164 221.803 304.04 221.575 304.933C221.508 305.197 221.639 305.522 221.717 305.809C221.917 306.546 222.14 307.276 222.349 308.011C222.376 308.105 222.375 308.208 222.389 308.306C222.551 309.522 222.362 310.692 221.99 311.853C221.892 312.159 221.991 312.527 221.993 312.867C221.994 313.028 222.02 313.205 221.965 313.348C221.644 314.192 221.681 315.136 220.943 315.876C220.562 316.259 220.611 317.052 220.408 317.641C220.307 317.934 220.093 318.194 219.906 318.452C219.539 318.959 219.371 319.604 219.042 320.072C218.578 320.73 218.708 321.728 217.792 322.133C217.493 322.265 217.311 322.701 217.119 323.025C217.014 323.203 217.03 323.601 216.939 323.617C215.741 323.838 216.029 325.262 215.181 325.75C215.126 325.782 215.124 325.902 215.089 325.977C214.694 326.825 214.303 327.675 213.896 328.518C213.775 328.768 213.613 329 213.459 329.233C213.405 329.315 213.268 329.371 213.258 329.449C213.177 330.128 212.637 330.541 212.359 331.082C211.967 331.842 211.342 332.367 210.878 333.038C210.45 333.659 210.024 334.293 209.511 334.84C209.268 335.101 208.813 335.153 208.475 335.338C207.985 335.606 207.471 335.857 207.045 336.21C206.524 336.642 206.083 337.104 205.333 337.199C204.989 337.243 204.683 337.675 204.384 337.958C203.859 338.453 203.341 338.957 202.846 339.482C202.644 339.696 202.515 339.978 202.346 340.225C202.234 340.388 202.143 340.599 201.986 340.694C201.245 341.142 200.81 341.804 200.332 342.516C199.946 343.091 199.066 343.335 198.404 343.722C197.853 344.044 197.297 344.357 196.747 344.68C196.468 344.844 196.212 345.053 195.92 345.188C195.475 345.395 194.995 345.526 194.555 345.743C193.86 346.086 193.147 346.228 192.376 346.122C192.227 346.102 192.044 346.14 191.912 346.215C190.584 346.968 189.264 347.735 187.943 348.501C187.837 348.562 187.668 348.641 187.659 348.725C187.577 349.53 186.879 349.705 186.346 350.055C185.323 350.729 184.074 351.089 183.356 352.193C183.304 352.274 183.178 352.346 183.082 352.352C181.555 352.44 180.375 353.377 179.27 354.211C177.99 355.176 176.581 355.929 175.334 356.898C174.59 357.477 173.88 358.248 173.558 359.289C173.328 360.033 172.751 360.664 172.38 361.372C172.16 361.793 172.07 362.279 171.866 362.711C171.698 363.069 171.423 363.377 171.244 363.731C171.049 364.116 170.846 364.516 170.761 364.933C170.568 365.874 169.946 366.441 169.243 367.013C168.776 367.394 168.459 367.957 168.071 368.436C167.708 368.883 167.327 369.318 166.978 369.776C166.821 369.981 166.726 370.232 166.593 370.458C166.442 370.716 166.273 370.964 166.125 371.224C166.015 371.418 165.892 371.614 165.834 371.825C165.499 373.027 165.134 374.223 164.875 375.441C164.676 376.381 164.156 377.047 163.502 377.706C163.047 378.163 162.573 378.644 162.429 379.379C162.351 379.776 161.919 380.124 161.601 380.449C161.107 380.952 160.574 381.415 160.057 381.895C159.968 381.977 159.879 382.124 159.786 382.128C158.947 382.158 158.692 382.926 158.208 383.384C157.66 383.901 157.09 384.449 156.727 385.094C156.245 385.951 155.411 386.605 155.284 387.683C155.185 388.53 154.513 389.018 153.91 389.553C153.285 390.108 152.747 390.76 152.176 391.374C152.068 391.49 152.006 391.656 151.885 391.75C151.283 392.218 150.507 392.559 150.092 393.153C149.333 394.237 147.995 394.473 147.176 395.487C145.922 397.043 143.891 397.542 142.308 398.669C141.222 399.442 140.207 400.315 139.137 401.111C138.767 401.386 138.348 401.667 137.911 401.764C137.201 401.922 136.586 402.192 136.048 402.673C135.936 402.772 135.754 402.828 135.6 402.838C134.706 402.896 133.89 403.344 132.924 403.168C132.28 403.05 131.563 403.401 130.872 403.447C130.507 403.472 130.133 403.259 129.756 403.214C128.279 403.036 127.293 402.102 126.368 401.064C126.354 401.049 126.347 401.012 126.335 401.011C125.375 400.959 125.169 399.986 124.535 399.536C124.455 399.479 124.363 399.415 124.318 399.332C123.15 397.147 121.296 395.402 120.307 393.107C119.723 391.753 119.209 390.368 118.663 388.998C118.655 388.978 118.627 388.952 118.633 388.943C119.105 388.155 118.753 387.32 118.718 386.523C118.611 384.03 119.796 381.836 120.231 379.473C120.254 379.347 120.355 379.144 120.314 379.112C119.63 378.572 120.084 377.834 119.986 377.199C119.963 377.052 120.155 376.79 120.314 376.709C120.947 376.387 121.4 376.102 121.007 375.224C120.857 374.889 121.212 374.33 121.329 373.872C121.508 373.174 121.725 372.516 121.497 371.739C121.367 371.294 121.743 370.724 121.761 370.206C121.79 369.391 121.928 368.57 121.501 367.769C121.257 367.309 121.23 366.732 121.114 366.206C120.863 365.057 120.617 363.907 120.372 362.756C120.355 362.679 120.339 362.584 120.369 362.519C120.767 361.674 120.403 360.883 120.231 360.069C120.125 359.567 120.207 359.023 120.084 358.528C119.881 357.716 119.893 356.942 120.192 356.165C120.224 356.079 120.191 355.967 120.184 355.867C120.14 355.193 119.993 354.52 119.902 353.861C119.789 353.042 119.17 352.296 118.791 351.508C118.602 351.115 118.455 350.702 118.3 350.294C118.259 350.184 118.281 350.049 118.235 349.943C117.877 349.127 117.487 348.323 117.154 347.497C116.976 347.053 116.908 346.566 116.758 346.11C116.586 345.587 116.443 345.038 116.17 344.57C115.795 343.931 115.584 343.271 115.543 342.541C115.536 342.424 115.52 342.249 115.445 342.202C114.283 341.466 114.382 340.029 113.705 339C113.242 338.295 112.989 337.458 112.371 336.761C111.737 336.047 111.594 334.937 110.685 334.374C110.603 334.323 110.549 334.223 110.487 334.143C110.061 333.588 109.719 332.929 109.188 332.505C108.543 331.99 108.28 331.268 107.83 330.651C107.335 329.972 106.693 329.382 106.302 328.653C105.938 327.975 105.822 327.165 105.591 326.414C105.531 326.22 105.452 326.031 105.377 325.841C105.16 325.288 104.94 324.736 104.721 324.184C104.706 324.145 104.698 324.096 104.67 324.072C103.864 323.406 103.874 322.215 103.173 321.562C102.398 320.838 102.131 319.822 101.456 319.1C100.324 317.887 100.169 316.371 99.8557 314.878C99.7603 314.424 99.5529 313.981 99.3321 313.568C99.1085 313.149 98.9225 312.796 99.0635 312.263C99.1663 311.875 99.0559 311.366 98.8787 310.986C98.6683 310.535 98.6609 310.121 98.8566 309.726C99.1424 309.148 98.9561 308.577 98.867 308.034C98.6571 306.757 98.339 305.498 98.0631 304.232C98.0375 304.115 98.0274 303.982 97.9642 303.886C97.0803 302.556 97.0943 301.14 97.5265 299.672C97.7391 298.95 97.9677 298.228 98.0977 297.489C98.1914 296.957 98.2587 296.449 98.5002 295.941C98.7126 295.494 98.871 295.073 99.2367 294.691C99.655 294.255 99.8797 293.638 100.227 293.126C100.493 292.732 100.818 292.378 101.119 292.008C101.232 291.869 101.37 291.746 101.461 291.595C101.781 291.063 102.076 290.515 102.403 289.987C102.505 289.821 102.672 289.693 102.816 289.554C103.278 289.106 103.703 288.609 104.216 288.229C104.931 287.698 105.357 287.052 105.765 286.238C106.217 285.336 106.993 284.584 107.201 283.526C107.217 283.445 107.229 283.33 107.284 283.293C108.238 282.652 108.206 281.559 108.505 280.624C108.708 279.99 108.825 279.327 109.04 278.698C109.182 278.281 109.432 277.901 109.633 277.505C109.715 277.342 109.843 277.187 109.871 277.016C110.037 276.021 110.693 275.099 110.298 274.012C110.237 273.847 110.429 273.604 110.439 273.395C110.451 273.139 110.454 272.856 110.357 272.629C110.041 271.892 109.759 271.168 109.917 270.334C109.953 270.142 109.815 269.907 109.732 269.703C109.403 268.9 109.092 268.095 109.434 267.217C109.735 266.448 109.335 265.748 109.243 265.017C109.225 264.873 109.216 264.728 109.219 264.522ZM114.703 241.812C115.049 242.273 115.121 242.757 114.918 243.311C114.841 243.52 114.887 243.791 114.932 244.023C115.275 245.799 115.708 247.567 115.026 249.366C114.902 249.693 114.815 250.065 114.836 250.409C114.88 251.121 115.015 251.828 115.101 252.538C115.283 254.031 115.784 255.432 116.31 256.827C116.381 257.014 116.445 257.211 116.464 257.407C116.519 257.982 116.519 258.563 116.602 259.133C116.668 259.586 116.856 260.02 116.933 260.472C117.005 260.902 117.048 261.347 117.024 261.781C116.971 262.755 116.867 263.726 116.788 264.699C116.781 264.797 116.796 264.899 116.817 264.995C116.999 265.833 117.242 266.663 117.353 267.51C117.464 268.357 117.476 269.221 117.472 270.078C117.47 270.766 117.37 271.453 117.337 272.142C117.329 272.315 117.428 272.49 117.447 272.667C117.478 272.944 117.49 273.223 117.497 273.502C117.502 273.663 117.476 273.825 117.477 273.986C117.481 274.827 117.694 275.731 117.457 276.496C116.798 278.624 116.569 280.859 115.463 282.896C114.784 284.147 114.581 285.663 113.438 286.693C113.384 286.741 113.383 286.853 113.367 286.937C113.196 287.81 112.533 288.4 112.117 289.132C111.996 289.345 111.957 289.603 111.88 289.841C112.117 289.865 112.37 289.955 112.588 289.903C113.344 289.721 114.066 289.518 114.867 289.795C115.82 290.125 116.82 290.315 117.787 290.608C118.083 290.698 118.378 290.887 118.6 291.105C119.033 291.528 119.345 292.11 119.834 292.433C120.535 292.894 120.685 293.548 120.914 294.261C121.125 294.917 121.482 295.588 121.957 296.075C122.288 296.414 122.89 296.452 121.967 296.73C121.886 296.755 121.794 296.866 121.777 296.951C121.689 297.403 121.404 297.313 121.1 297.229C120.208 296.984 119.307 296.771 118.423 296.502C117.79 296.309 117.226 295.985 116.51 295.957C115.85 295.931 115.277 295.681 114.58 296.091C113.929 296.473 113.068 296.48 112.348 296.771C111.85 296.973 111.386 297.328 110.993 297.704C110.448 298.225 110.021 298.868 109.477 299.39C108.588 300.244 107.907 301.217 107.49 302.375C107.456 302.468 107.414 302.585 107.339 302.632C106.834 302.95 106.796 303.496 106.661 303.991C106.382 305.007 106.126 306.03 105.834 307.042C105.728 307.411 105.812 307.699 105.928 308.06C106.151 308.753 106.231 309.498 106.314 310.227C106.375 310.761 106.232 311.34 106.383 311.837C106.63 312.643 107.03 313.404 107.389 314.173C108.044 315.573 108.709 316.968 109.386 318.358C109.58 318.756 109.848 319.118 110.043 319.516C110.481 320.409 111.28 321.134 111.306 322.224C111.31 322.357 111.44 322.49 111.524 322.615C112.562 324.155 113.193 325.939 114.514 327.323C115.075 327.911 115.286 328.819 115.742 329.526C116.147 330.156 116.676 330.706 117.137 331.302C117.245 331.443 117.294 331.629 117.378 331.791C118.149 333.269 118.901 334.759 119.712 336.215C119.896 336.545 120.324 336.729 120.574 337.034C121.448 338.098 121.666 339.527 122.534 340.6C122.569 340.642 122.568 340.714 122.585 340.771C122.686 341.099 122.745 341.447 122.897 341.749C123.151 342.254 123.579 342.699 123.243 343.335C123.197 343.423 123.248 343.571 123.275 343.686C123.449 344.425 123.699 345.154 123.793 345.902C123.987 347.463 124.737 348.808 125.355 350.202C125.697 350.976 126.272 351.666 126.504 352.464C126.863 353.7 126.987 355.003 127.277 356.263C127.424 356.899 127.32 357.513 127.347 358.124C127.377 358.8 127.252 359.45 127.27 360.112C127.272 360.153 127.248 360.197 127.257 360.234C127.684 362.107 128.219 363.946 127.925 365.933C127.845 366.474 127.976 367.097 127.807 367.68C127.784 367.758 127.884 367.865 127.904 367.964C128.174 369.255 128.43 370.542 128.022 371.859C127.846 372.426 127.581 372.998 127.89 373.621C127.949 373.741 127.854 373.946 127.811 374.107C127.29 376.06 126.752 378.009 126.257 379.968C126.173 380.302 126.263 380.683 126.293 381.041C126.37 381.972 126.675 382.948 126.49 383.822C126.237 385.017 126.398 386.019 126.998 387.021C127.135 387.25 127.309 387.512 127.308 387.758C127.303 389.198 128.206 390.321 128.632 391.607C128.781 392.054 129.345 392.347 129.575 392.787C130.265 394.109 131.528 394.379 132.796 394.668C132.868 394.684 132.957 394.659 133.031 394.633C133.51 394.466 134.018 394.349 134.461 394.112C135.522 393.544 136.56 392.931 137.589 392.306C137.797 392.179 137.882 391.826 138.093 391.733C138.971 391.344 139.806 390.963 140.156 389.942C140.27 389.607 140.592 389.326 140.864 389.067C141.857 388.123 142.863 387.192 143.881 386.275C144.059 386.114 144.308 385.995 144.543 385.938C145.486 385.71 146.293 385.331 146.948 384.547C147.546 383.832 148.018 383.037 148.553 382.32C149.146 381.527 149.061 380.48 149.874 379.785C150.238 379.474 150.305 378.682 150.746 378.219C150.893 378.065 150.941 377.821 151.05 377.627C151.354 377.085 151.591 376.481 151.992 376.023C152.599 375.329 153.36 374.772 153.985 374.093C154.59 373.436 155.215 372.764 155.293 371.787C155.311 371.563 155.363 371.272 155.513 371.139C156.212 370.521 156.287 369.554 156.857 368.86C157.341 368.269 157.877 367.68 157.972 366.859C157.975 366.833 158.039 366.808 158.079 366.795C158.57 366.637 158.428 366.307 158.366 365.942C158.325 365.701 158.39 365.381 158.53 365.183C158.781 364.829 159.227 364.589 159.41 364.213C159.854 363.303 160.369 362.456 161.057 361.715C161.234 361.524 161.501 361.376 161.592 361.153C161.947 360.284 162.471 359.536 163.089 358.841C163.154 358.768 163.223 358.667 163.227 358.576C163.274 357.605 163.922 356.963 164.533 356.347C165.15 355.726 165.616 355.068 165.748 354.193C165.765 354.076 165.814 353.938 165.896 353.86C166.58 353.206 167.283 352.571 167.967 351.916C168.575 351.334 169.136 350.698 169.774 350.152C170.843 349.237 171.264 347.695 172.704 347.149C172.752 347.131 172.773 347.05 172.818 347.013C173.278 346.639 173.717 346.234 174.208 345.905C174.778 345.523 175.374 345.165 175.995 344.876C176.636 344.578 177.315 344.358 177.989 344.137C178.734 343.893 179.525 343.76 180.233 343.44C180.883 343.146 181.484 342.764 181.992 342.177C182.646 341.42 183.6 340.922 184.252 340.164C185.007 339.287 185.959 338.762 186.93 338.245C187.848 337.757 188.807 337.342 189.759 336.922C190.204 336.726 190.694 336.631 191.131 336.421C191.606 336.193 192.077 335.929 192.488 335.604C193.17 335.064 193.785 334.441 194.462 333.895C194.84 333.591 195.3 333.391 195.7 333.112C196.221 332.748 196.73 332.365 197.224 331.966C197.536 331.714 197.823 331.427 198.099 331.136C198.331 330.892 198.504 330.585 198.754 330.365C199.034 330.117 199.395 329.962 199.679 329.718C200.214 329.259 200.718 328.764 201.239 328.288C201.301 328.231 201.382 328.173 201.461 328.161C202.287 328.037 202.711 327.34 203.239 326.838C203.854 326.253 204.553 325.686 204.766 324.78C204.779 324.723 204.907 324.692 204.981 324.649C205.938 324.094 206.575 323.307 206.783 322.197C206.817 322.021 206.893 321.743 207.007 321.71C207.944 321.438 208.188 320.529 208.631 319.865C209.071 319.205 209.646 318.58 209.741 317.696C209.804 317.114 210.077 316.609 210.492 316.104C210.928 315.573 211.027 314.751 211.224 314.043C211.364 313.539 211.478 313.071 212.05 312.858C212.229 312.792 212.421 312.561 212.466 312.371C212.605 311.79 213.292 311.465 213.186 310.777C213.177 310.713 213.334 310.638 213.365 310.55C213.44 310.341 213.553 310.115 213.53 309.909C213.478 309.436 213.352 308.971 213.259 308.502C213.049 307.448 212.817 306.397 212.637 305.338C212.453 304.261 212.352 303.17 212.15 302.097C212.053 301.58 211.977 301.099 212.155 300.587C212.216 300.412 212.149 300.193 212.139 299.993C212.12 299.635 211.996 299.245 212.097 298.925C212.558 297.462 212.257 296.104 211.651 294.768C211.608 294.674 211.532 294.575 211.538 294.483C211.583 293.774 211.662 293.066 211.692 292.356C211.703 292.084 211.619 291.806 211.571 291.532C211.551 291.414 211.478 291.297 211.486 291.184C211.537 290.453 211.607 289.724 211.663 288.994C211.67 288.899 211.642 288.795 211.61 288.702C211.274 287.744 211.213 286.797 211.57 285.816C211.82 285.131 211.979 284.412 212.143 283.7C212.26 283.197 212.409 282.741 212.89 282.462C212.963 282.419 213.044 282.234 213.013 282.188C212.702 281.725 213.085 281.443 213.257 281.094C213.429 280.743 213.451 280.223 213.719 280.034C214.25 279.662 214.289 279.132 214.442 278.623C214.579 278.171 214.632 277.684 214.827 277.26C215.085 276.699 215.438 276.181 215.763 275.653C215.982 275.298 216.293 274.983 216.441 274.602C216.686 273.972 216.688 273.242 217.334 272.799C217.558 272.645 217.748 272.416 217.9 272.186C218.451 271.355 218.878 270.414 219.549 269.7C220.061 269.158 220.185 268.556 220.384 267.931C220.415 267.833 220.443 267.725 220.505 267.649C221.126 266.898 221.75 266.15 222.379 265.406C222.636 265.101 222.917 264.817 223.168 264.508C223.952 263.543 224.681 262.528 225.881 262.002C226.351 261.796 226.78 261.497 227.225 261.235C227.35 261.161 227.502 261.096 227.581 260.984C228.217 260.084 229.024 259.284 229.285 258.156C229.301 258.086 229.382 258.032 229.423 257.965C229.611 257.657 229.808 257.355 229.975 257.037C230.062 256.871 230.035 256.597 230.158 256.506C231.051 255.848 231.137 254.711 231.753 253.893C232.088 253.448 232.308 252.899 232.698 252.519C233.225 252.005 233.905 251.649 234.448 251.149C235.017 250.625 235.648 250.083 235.988 249.415C236.393 248.619 236.494 247.707 237.054 246.919C237.507 246.282 238.219 245.712 238.211 244.795C238.211 244.761 238.326 244.737 238.361 244.69C238.514 244.481 238.763 244.277 238.787 244.051C238.949 242.505 240.015 241.301 240.346 239.823C240.373 239.702 240.526 239.614 240.603 239.499C240.812 239.183 241.052 238.879 241.206 238.537C241.465 237.964 241.365 237.237 242.05 236.839C242.208 236.747 242.304 236.265 242.208 236.074C241.967 235.594 242.116 235.179 242.234 234.738C242.44 233.97 242.655 233.204 242.846 232.431C242.899 232.218 242.894 231.988 242.895 231.766C242.898 231.285 242.833 230.798 242.897 230.327C242.97 229.799 243.378 229.213 243.237 228.786C243.031 228.163 243.251 227.683 243.327 227.138C243.367 226.846 243.342 226.537 243.3 226.242C243.231 225.75 243.074 225.266 243.047 224.774C243.014 224.173 243.111 223.565 243.091 222.963C243.062 222.068 242.811 221.141 242.982 220.293C243.089 219.766 243.068 219.348 242.957 218.872C242.927 218.74 242.949 218.579 242.997 218.449C243.422 217.303 243.207 216.243 242.542 215.265C242.27 214.865 241.921 214.516 241.594 214.155C240.74 213.213 239.88 212.278 239.022 211.339C238.546 210.818 238.063 210.302 237.596 209.773C237.434 209.589 237.343 209.332 237.161 209.179C236.813 208.886 236.451 208.574 236.04 208.398C235.637 208.225 235.126 208.058 234.733 208.161C234.035 208.345 233.523 208.067 232.976 207.778C232.674 207.619 232.401 207.378 232.082 207.286C230.943 206.958 229.76 206.859 228.6 206.67C226.298 206.294 224.061 205.525 221.797 204.918C221.332 204.794 220.868 204.669 220.404 204.545C219.857 204.398 219.192 204.398 218.789 204.072C218.119 203.53 217.364 203.339 216.589 203.118C216.434 203.074 216.284 202.999 216.146 202.914C215.874 202.748 215.628 202.446 215.345 202.41C214.414 202.291 213.726 201.724 212.984 201.258C212.769 201.123 212.63 200.873 212.436 200.7C212.184 200.475 211.909 200.276 211.65 200.061C211.435 199.883 211.211 199.711 211.024 199.508C210.896 199.369 210.863 199.121 210.719 199.022C209.914 198.471 209.151 197.715 208.253 197.471C206.711 197.052 205.234 196.387 203.52 196.455C202.556 196.493 201.488 196.232 200.465 196.114C199.854 196.043 199.261 195.812 198.658 195.661C198.474 195.614 198.284 195.593 198.096 195.56C198.223 195.382 198.312 195.142 198.484 195.036C199.304 194.531 200.145 194.058 200.983 193.583C201.122 193.505 201.289 193.476 201.441 193.419C201.957 193.228 202.471 193.032 202.989 192.844C203.236 192.754 203.483 192.636 203.739 192.607C204.532 192.514 204.94 192.004 204.759 191.234C204.49 190.086 204.263 188.922 203.89 187.807C203.698 187.232 203.247 186.738 202.882 186.23C202.609 185.85 202.284 185.51 201.987 185.147C201.496 184.546 201.093 183.838 200.501 183.362C199.579 182.621 199.302 181.502 198.666 180.601C198.26 180.026 198.074 179.273 197.819 178.588C197.2 176.926 196.049 175.585 194.603 174.508C193.95 174.022 193.269 173.495 192.823 172.836C192.453 172.289 192.031 172.085 191.465 171.934C190.921 171.789 190.389 171.588 189.868 171.374C189.575 171.254 189.314 171.056 189.038 170.893C188.814 170.761 188.554 170.666 188.371 170.49C187.533 169.687 186.364 169.419 185.399 169.489C184.483 169.555 183.686 169.422 182.846 169.233C182.285 169.107 181.756 168.839 181.145 169.162C180.851 169.317 180.424 169.35 180.094 169.276C179.557 169.155 179.064 169.072 178.518 169.263C178.113 169.405 177.66 169.417 177.226 169.47C176.713 169.532 176.148 169.455 175.693 169.648C174.291 170.241 172.932 170.938 171.552 171.585C171.354 171.678 171.13 171.717 170.918 171.782C169.82 172.119 168.598 172.045 167.619 172.794C167.454 172.921 167.201 172.93 166.991 173.002C166.76 173.08 166.468 173.105 166.314 173.262C165.758 173.831 165.228 174.429 164.726 175.046C164.087 175.832 163.508 176.668 162.854 177.44C162.504 177.853 162.04 178.166 161.648 178.545C160.821 179.344 160.247 180.413 159.114 180.886C158.972 180.945 158.866 181.093 158.742 181.197C157.743 182.044 157.188 183.225 156.534 184.306C156.046 185.113 155.476 185.854 154.977 186.646C154.646 187.173 154.309 187.718 154.109 188.302C153.866 189.01 153.63 189.641 153.078 190.228C152.296 191.059 151.728 192.093 151.086 193.051C150.94 193.268 150.865 193.532 150.751 193.772C150.648 193.992 150.592 194.277 150.42 194.414C149.658 195.02 149.33 195.832 149.137 196.748C149.083 196.999 148.826 197.203 148.68 197.44C148.512 197.714 148.352 197.994 148.213 198.283C148.122 198.471 148.136 198.768 147.998 198.863C147.511 199.197 147.462 199.722 147.28 200.202C147.162 200.514 146.96 200.804 146.753 201.071C146.473 201.432 146.113 201.734 145.857 202.11C145.418 202.753 145.033 203.432 144.628 204.097C144.316 204.609 144.007 205.124 143.699 205.638C143.267 206.359 142.876 207.108 142.397 207.795C141.84 208.592 140.879 209.08 140.619 210.116C140.595 210.213 140.456 210.3 140.351 210.354C138.571 211.282 136.789 212.206 135.005 213.125C134.9 213.179 134.773 213.225 134.659 213.218C133.819 213.171 133.266 213.59 132.826 214.259C132.721 214.42 132.476 214.488 132.296 214.6C131.632 215.013 130.855 215.319 130.331 215.866C129.447 216.793 128.431 217.365 127.207 217.637C127.065 217.668 126.938 217.767 126.805 217.837C126.267 218.121 125.75 218.459 125.186 218.676C124.417 218.974 123.578 219.102 122.833 219.445C121.985 219.834 121.166 220.304 120.534 221.047C120.16 221.487 119.677 221.833 119.249 222.228C118.968 222.486 118.709 222.77 118.418 223.017C117.92 223.44 117.406 223.863 117.27 224.536C117.044 225.65 115.95 226.354 115.883 227.537C115.881 227.58 115.787 227.612 115.759 227.662C115.58 227.977 115.355 228.278 115.245 228.616C115.019 229.31 114.853 230.024 114.669 230.732C114.628 230.891 114.547 231.092 114.606 231.216C114.892 231.818 114.605 232.358 114.485 232.921C114.39 233.367 114.18 233.859 114.282 234.265C114.533 235.267 114.694 236.231 114.274 237.22C114.237 237.307 114.343 237.447 114.355 237.565C114.425 238.257 114.648 238.986 114.507 239.634C114.342 240.39 114.453 241.045 114.703 241.812Z"
                fill="#3C3E5A" />
            <path
                d="M180.591 221.629C180.532 220.893 180.502 220.196 180.458 219.499C180.44 219.222 180.46 218.914 180.346 218.677C179.999 217.962 180.038 217.18 179.875 216.457C179.602 215.255 179.705 214.371 180.696 213.634C180.673 212.861 181.296 212.907 181.781 212.777C182.287 212.641 182.772 212.473 183.272 212.877C183.486 213.049 183.838 213.06 184.132 213.123C184.517 213.207 184.616 213.417 184.677 213.819C184.811 214.704 185.096 215.566 185.282 216.445C185.414 217.066 185.478 217.702 185.586 218.328C185.65 218.701 185.729 219.072 185.822 219.439C185.984 220.08 186.167 220.716 186.332 221.356C186.451 221.82 186.559 222.288 186.666 222.755C186.693 222.871 186.663 223.012 186.719 223.106C187.658 224.672 187.959 226.444 188.383 228.179C188.565 228.921 188.794 229.653 189.039 230.377C189.335 231.253 188.797 232.081 188.904 232.92C189.088 234.372 188.185 235.807 188.874 237.252C188.565 238.399 189.458 239.492 188.986 240.684C188.838 241.056 189.156 241.603 189.228 242.075C189.273 242.369 189.319 242.687 189.254 242.969C189.052 243.849 188.768 244.71 188.577 245.592C188.48 246.04 188.521 246.518 188.482 246.982C188.466 247.169 188.453 247.474 188.351 247.517C187.936 247.691 187.911 248.055 187.812 248.395C187.668 248.889 187.414 249.297 187.118 249.735C186.633 250.452 185.99 251.136 185.866 252.097C185.773 252.815 185.498 253.51 185.326 254.22C185.298 254.337 185.382 254.482 185.415 254.614C185.544 254.542 185.712 254.5 185.798 254.393C186.501 253.506 187.07 252.461 187.922 251.758C188.588 251.208 189.196 250.633 189.758 249.994C191.26 248.287 193.479 247.677 195.243 246.383C196.215 245.67 197.059 244.781 197.949 243.959C198.776 243.194 199.586 242.41 200.407 241.639C200.526 241.527 200.762 241.447 200.776 241.331C200.862 240.65 201.4 240.428 201.89 240.147C202.413 239.848 202.972 239.595 203.446 239.232C204.136 238.704 204.759 238.089 205.425 237.528C205.571 237.405 205.787 237.371 205.958 237.273C206.307 237.073 206.644 236.853 206.991 236.65C207.323 236.456 207.665 236.281 207.995 236.084C208.721 235.649 209.446 235.212 210.163 234.763C210.333 234.657 210.451 234.455 210.628 234.375C211.699 233.894 212.333 232.942 213.06 232.104C213.579 231.505 213.979 230.806 214.479 230.189C214.676 229.946 214.978 229.763 215.267 229.626C215.766 229.389 216.28 229.172 216.808 229.016C217.766 228.733 218.717 228.325 219.746 228.567C219.898 228.603 220.021 228.88 220.104 229.068C220.553 230.077 219.66 231.111 220.145 232.13C220.175 232.192 220.096 232.372 220.025 232.406C219.574 232.62 219.461 233.025 219.319 233.454C219.181 233.87 218.929 234.25 218.721 234.642C218.685 234.711 218.579 234.759 218.573 234.824C218.477 235.742 217.686 236.203 217.256 236.894C216.808 237.615 216.293 238.264 215.734 238.885C215.319 239.346 214.853 239.763 214.402 240.192C213.818 240.747 213.23 241.297 212.636 241.842C212.471 241.994 212.294 242.142 212.1 242.255C210.875 242.972 209.656 243.7 208.411 244.38C207.652 244.794 207.133 245.421 206.568 246.047C206.104 246.56 205.404 246.861 204.806 247.251C204.74 247.295 204.617 247.289 204.584 247.343C204.052 248.249 202.993 248.412 202.25 249.012C201.56 249.57 200.922 250.194 200.263 250.79C200.205 250.843 200.172 250.929 200.109 250.971C198.703 251.892 197.221 252.717 195.907 253.755C194.63 254.763 193.048 255.412 192.115 256.846C192.02 256.993 191.851 257.104 191.695 257.197C191.017 257.599 190.271 257.914 189.666 258.404C189.087 258.874 188.681 259.55 188.145 260.081C187.585 260.637 186.959 261.125 186.367 261.65C186.188 261.809 186.039 262.002 185.858 262.159C185.673 262.318 185.46 262.445 185.271 262.599C185.116 262.726 184.98 262.876 184.831 263.011C184.562 263.256 184.278 263.486 184.023 263.744C183.842 263.927 183.697 264.145 183.538 264.349C183.195 264.787 182.937 265.357 182.495 265.639C181.3 266.401 180.632 267.634 179.654 268.58C179.597 268.635 179.568 268.742 179.506 268.763C178.521 269.081 178.423 269.96 178.206 270.776C177.495 273.457 176.808 276.146 176.029 278.807C175.845 279.435 175.391 280.01 174.968 280.535C174.567 281.033 174.041 281.404 173.819 282.069C173.696 282.437 173.291 282.705 173.045 283.041C172.799 283.379 172.511 283.719 172.384 284.105C172.088 285.002 171.911 285.938 171.62 286.837C171.46 287.333 171.142 287.775 170.941 288.26C170.756 288.707 170.569 289.169 170.497 289.642C170.372 290.459 169.827 290.968 169.31 291.52C169.135 291.706 168.915 291.933 168.889 292.162C168.748 293.398 167.809 294.088 167.064 294.903C166.711 295.29 166.224 295.556 165.869 295.942C165.55 296.29 165.305 296.714 165.068 297.128C164.658 297.843 164.245 298.561 163.899 299.308C163.704 299.731 163.627 300.213 163.522 300.674C163.311 301.597 162.753 302.311 162.168 303.018C162.068 303.139 161.988 303.311 161.977 303.466C161.902 304.459 161.145 305.022 160.591 305.713C160.504 305.822 160.369 305.928 160.351 306.049C160.222 306.908 159.659 307.455 159.047 307.987C158.891 308.123 158.779 308.362 158.741 308.57C158.504 309.859 157.93 310.966 157.093 311.97C156.867 312.24 156.857 312.685 156.727 313.042C156.651 313.25 156.582 313.497 156.428 313.635C155.65 314.332 155.438 315.152 155.759 316.141C155.817 316.321 155.783 316.55 155.734 316.742C155.451 317.845 155.145 318.944 154.857 320.046C154.711 320.603 154.475 321.136 154.717 321.753C154.808 321.983 154.683 322.348 154.558 322.603C154.249 323.233 153.876 323.831 153.547 324.452C153.47 324.597 153.425 324.783 153.441 324.943C153.454 325.074 153.579 325.194 153.654 325.319C153.739 325.236 153.856 325.168 153.905 325.067C154.677 323.47 156.081 322.375 157.115 320.993C158.473 319.178 160.584 318.531 162.344 317.343C163.659 317.407 164.238 316.185 165.182 315.618C166.345 314.919 167.391 313.943 168.431 313.038C170.015 311.661 171.94 310.903 173.646 309.766C175.008 308.858 176.499 308.242 178.079 307.832C178.222 307.795 178.411 307.737 178.475 307.628C178.872 306.956 179.596 306.725 180.174 306.295C181.073 305.626 181.908 304.871 182.788 304.176C183.385 303.704 183.969 303.274 184.807 303.167C185.417 303.09 185.965 302.586 186.561 302.318C186.964 302.136 187.399 302.019 187.829 301.909C187.89 301.894 188.101 302.131 188.079 302.179C187.779 302.856 188.025 303.584 187.896 304.24C187.766 304.898 187.331 305.533 186.908 306.086C186.483 306.642 186.153 307.202 186.027 307.891C185.914 308.508 185.68 309.041 185.215 309.522C184.598 310.162 184.159 310.972 183.544 311.614C182.997 312.185 182.197 312.536 181.72 313.148C181.052 314.005 180.126 314.51 179.226 314.794C177.939 315.2 176.763 315.814 175.774 316.601C173.722 318.234 171.328 319.262 169.17 320.689C168.78 320.947 168.503 321.374 168.165 321.714C167.924 321.957 167.701 322.239 167.414 322.41C165.954 323.279 164.456 324.084 163.013 324.979C161.995 325.61 161.129 326.444 160.372 327.379C160.31 327.456 160.284 327.599 160.211 327.625C159.217 327.983 158.775 328.943 158.113 329.633C157.409 330.368 156.992 331.37 156.391 332.213C155.988 332.777 155.487 333.272 155.021 333.79C154.437 334.439 153.878 335.1 153.659 335.976C153.513 336.558 153.283 337.069 152.912 337.579C152.372 338.322 152.024 339.211 151.64 340.058C151.435 340.511 150.338 341.12 149.801 340.982C148.905 340.752 148.019 340.482 147.119 340.274C146.483 340.128 146.287 339.657 146.137 339.126C146.083 338.934 146.086 338.717 145.996 338.547C145.73 338.043 145.425 337.568 146.179 337.193C146.28 337.143 146.33 336.905 146.331 336.753C146.336 336.355 146.319 335.955 146.278 335.559C146.208 334.887 146.102 334.219 146.033 333.548C146.01 333.329 146.069 333.104 146.069 332.881C146.071 332.542 146.049 332.202 146.046 331.863C146.045 331.701 146.074 331.539 146.072 331.378C146.067 330.918 146.045 330.459 146.046 329.999C146.047 329.756 146.033 329.495 146.113 329.273C146.546 328.078 146.562 326.865 146.353 325.63C146.323 325.456 146.381 325.259 146.429 325.08C146.925 323.21 147.42 321.339 147.935 319.473C148.037 319.105 148.006 318.841 147.67 318.61C147.016 318.159 146.562 317.502 145.776 317.144C144.971 316.777 144.409 315.894 143.611 315.493C142.728 315.047 142.341 314.256 141.732 313.61C141.103 312.943 141.016 312.139 140.745 311.37C140.698 311.236 140.67 311.096 140.615 310.966C140.211 310.017 139.834 309.054 139.388 308.124C138.699 306.686 137.846 305.315 137.275 303.834C136.679 302.286 135.727 300.851 135.611 299.131C135.607 299.072 135.563 299.002 135.583 298.957C136.085 297.821 135.255 296.874 135.14 295.827C135.134 295.768 135.064 295.701 135.079 295.657C135.453 294.541 135.035 293.315 135.582 292.214C135.769 291.837 135.851 291.395 135.916 290.972C135.964 290.662 135.903 290.336 135.898 290.016C135.895 289.855 135.881 289.688 135.918 289.534C136.05 288.991 136.177 288.445 136.354 287.915C136.575 287.253 136.555 286.602 136.506 285.91C136.454 285.177 136.292 284.442 136.517 283.67C136.722 282.966 137.177 282.602 137.752 282.362C138.223 282.166 138.533 281.855 138.902 281.53C139.485 281.014 140.26 280.687 140.995 280.378C142.181 279.879 142.703 280.756 143.242 281.565C143.834 282.455 144.055 283.403 143.969 284.482C143.906 285.267 144.089 286.068 144.099 286.863C144.109 287.655 143.965 288.454 144.022 289.24C144.141 290.905 144.044 292.531 143.502 294.117C143.474 294.199 143.415 294.301 143.441 294.364C143.888 295.445 143.064 296.541 143.49 297.628C143.725 298.229 143.896 298.855 144.093 299.47C144.26 299.989 144.414 300.512 144.59 301.027C144.92 301.988 145.243 302.951 145.612 303.896C145.7 304.121 145.957 304.282 146.139 304.469C146.208 304.541 146.326 304.591 146.353 304.674C146.556 305.306 146.739 305.945 146.936 306.579C146.997 306.774 147.063 306.973 147.162 307.149C147.649 308.01 148.174 308.851 148.632 309.727C148.865 310.173 148.904 310.734 149.183 311.137C149.377 311.417 149.819 311.56 150.179 311.658C150.254 311.679 150.517 311.25 150.589 310.998C150.956 309.717 151.289 308.426 151.634 307.138C151.673 306.993 151.669 306.775 151.762 306.716C152.516 306.245 152.41 305.394 152.692 304.717C152.798 304.463 152.98 304.24 153.14 304.011C153.265 303.833 153.481 303.687 153.534 303.493C153.914 302.106 155.126 301.352 155.944 300.303C156.371 299.756 156.905 299.316 157.016 298.564C157.095 298.036 157.275 297.522 157.424 297.005C157.589 296.434 157.706 295.888 158.204 295.416C158.568 295.07 158.598 294.382 158.807 293.858C158.894 293.64 159.064 293.456 159.183 293.248C159.313 293.021 159.5 292.796 159.537 292.551C159.664 291.701 160.184 291.129 160.744 290.537C161.176 290.08 161.407 289.423 161.861 288.998C162.485 288.413 162.544 287.646 162.806 286.933C162.949 286.545 163.223 286.205 163.435 285.843C163.476 285.773 163.508 285.698 163.543 285.625C163.936 284.825 164.212 283.933 164.749 283.245C165.532 282.243 165.434 280.91 166.073 279.973C166.536 279.295 166.85 278.533 167.33 277.865C167.779 277.241 168.352 276.644 168.47 275.795C168.517 275.462 168.729 275.053 168.996 274.872C169.404 274.597 169.314 274.362 169.139 274.056C168.603 273.124 168.064 272.193 167.527 271.262C167.229 270.747 166.95 270.221 166.631 269.719C165.602 268.097 164.558 266.484 163.516 264.87C163.464 264.789 163.378 264.725 163.297 264.669C161.855 263.673 161.012 262.174 160.398 260.651C159.176 257.618 157.261 254.993 155.723 252.151C155.275 251.323 154.529 250.657 153.922 249.915C153.805 249.772 153.676 249.635 153.583 249.477C153.029 248.531 152.62 247.455 151.899 246.662C151.091 245.774 150.924 244.615 150.275 243.675C149.961 243.22 150.009 242.523 149.858 241.945C149.553 240.781 149.209 239.627 148.912 238.461C148.726 237.733 148.533 237.011 148.833 236.237C148.951 235.932 148.806 235.529 148.799 235.171C148.783 234.471 148.677 233.753 148.795 233.075C148.976 232.041 149.317 231.035 149.589 230.017C149.623 229.892 149.615 229.708 149.696 229.652C150.515 229.088 150.39 228.12 150.714 227.346C150.82 227.093 150.96 226.806 151.17 226.653C152.134 225.955 153.101 225.246 154.322 225.048C154.773 224.975 155.137 225.283 155.143 225.741C155.149 226.222 155.01 226.764 155.187 227.17C155.607 228.136 155.157 228.967 154.987 229.853C154.928 230.161 154.982 230.491 154.988 230.811C154.99 230.87 155.033 230.937 155.017 230.986C154.532 232.456 155.574 233.677 155.677 235.049C155.711 235.506 155.656 235.978 155.748 236.421C155.966 237.485 156.305 238.514 156.856 239.463C157.85 241.174 158.853 242.879 159.814 244.608C160.079 245.084 160.142 245.673 160.416 246.141C161.023 247.173 161.702 248.163 162.358 249.166C162.446 249.3 162.576 249.407 162.672 249.537C163.006 249.985 163.364 250.419 163.654 250.894C163.831 251.183 163.855 251.564 164.024 251.859C165.744 254.864 167.467 257.867 169.221 260.852C169.584 261.468 170.167 261.96 170.501 262.588C171.044 263.611 171.463 264.699 171.943 265.756C172.006 265.894 172.121 266.007 172.212 266.132C172.296 266.021 172.368 265.898 172.465 265.8C173.015 265.247 173.259 264.656 173.03 263.831C172.955 263.563 173.42 263.166 173.586 262.803C173.826 262.278 173.999 261.721 174.239 261.196C174.378 260.89 174.626 260.634 174.767 260.329C174.932 259.969 175.063 259.587 175.157 259.202C175.247 258.831 175.393 258.564 175.759 258.373C176.007 258.243 176.201 257.968 176.365 257.722C176.777 257.1 177.206 256.508 177.488 255.78C177.659 255.337 178.29 254.869 178.153 254.401C177.759 253.057 178.921 251.882 178.45 250.567C178.413 250.465 178.471 250.316 178.515 250.201C178.965 249.042 178.864 247.69 179.825 246.695C180.074 246.438 180.032 245.917 180.173 245.535C180.276 245.256 180.464 245.01 180.604 244.744C180.662 244.634 180.764 244.474 180.725 244.399C180.44 243.849 180.948 243.346 180.849 242.878C180.58 241.614 181.483 240.437 181.042 239.182C180.993 239.041 181.007 238.843 181.067 238.703C181.426 237.871 181.271 237.061 181.031 236.238C180.978 236.056 181.032 235.827 181.085 235.633C181.296 234.873 181.545 234.127 181.248 233.322C181.186 233.152 181.284 232.915 181.33 232.714C181.436 232.252 181.596 231.83 181.379 231.314C181.265 231.044 181.473 230.617 181.587 230.278C181.734 229.844 181.627 229.488 181.444 229.085C181.294 228.755 181.272 228.347 181.271 227.973C181.269 227.031 181.458 226.099 180.984 225.175C180.697 224.618 180.612 223.97 180.75 223.281C180.852 222.773 180.67 222.208 180.591 221.629Z"
                fill="#3C3E5A" />
        </g>
    </g>
    <defs>
        <clipPath id="clip0_366_226">
            <rect width="258.474" height="258.474" fill="white" transform="translate(78.8984 127.001) rotate(15)" />
        </clipPath>
        <clipPath id="clip1_366_226">
            <rect width="248.883" height="248.883" fill="white" transform="translate(77.6572 131.633) rotate(15)" />
        </clipPath>
    </defs>
</svg>