<svg width="154" height="110" viewBox="0 0 154 110" fill="none" xmlns="http://www.w3.org/2000/svg">
<path d="M10.9374 0H65.6245C68.5253 0 71.3072 1.15233 73.3584 3.20349C75.4096 5.25466 76.5619 8.03663 76.5619 10.9374C76.5619 13.8382 75.4096 16.6202 73.3584 18.6713C71.3072 20.7225 68.5253 21.8748 65.6245 21.8748H10.9374C8.03663 21.8748 5.25466 20.7225 3.20349 18.6713C1.15233 16.6202 0 13.8382 0 10.9374C0 8.03663 1.15233 5.25466 3.20349 3.20349C5.25466 1.15233 8.03663 0 10.9374 0ZM87.4993 87.4993H142.186C145.087 87.4993 147.869 88.6516 149.92 90.7028C151.971 92.754 153.124 95.5359 153.124 98.4367C153.124 101.338 151.971 104.119 149.92 106.171C147.869 108.222 145.087 109.374 142.186 109.374H87.4993C84.5985 109.374 81.8166 108.222 79.7654 106.171C77.7142 104.119 76.5619 101.338 76.5619 98.4367C76.5619 95.5359 77.7142 92.754 79.7654 90.7028C81.8166 88.6516 84.5985 87.4993 87.4993 87.4993ZM10.9374 43.7497H142.186C145.087 43.7497 147.869 44.902 149.92 46.9532C151.971 49.0043 153.124 51.7863 153.124 54.6871C153.124 57.5879 151.971 60.3698 149.92 62.421C147.869 64.4722 145.087 65.6245 142.186 65.6245H10.9374C8.03663 65.6245 5.25466 64.4722 3.20349 62.421C1.15233 60.3698 0 57.5879 0 54.6871C0 51.7863 1.15233 49.0043 3.20349 46.9532C5.25466 44.902 8.03663 43.7497 10.9374 43.7497Z" fill="black"/>
</svg>
