<svg width="409" height="374" viewBox="0 0 409 374" fill="none" xmlns="http://www.w3.org/2000/svg">
    <path fill-rule="evenodd" clip-rule="evenodd"
        d="M226.582 1.69832C223.473 0.502453 217.474 0 198.015 0C170.802 0 142.615 1.63951 117.076 11.889C69.6217 30.9321 -16.6373 143.078 2.8073 205.506C20.2575 261.528 48.1143 316.12 98.0309 348.171C160.183 388.079 323.476 385.402 367.83 314.204C424.443 223.326 429.585 120.486 339.263 56.0474C322.288 43.9363 263.784 16.0081 226.582 1.69832V1.69832Z"
        fill="#B3B4CC" />
    <path fill-rule="evenodd" clip-rule="evenodd"
        d="M235.499 82.1262C234.767 82.3499 202.822 82.284 188.895 85.5962C159.883 92.4971 139.481 114.779 132.422 141.641C130.47 149.072 124.876 154.637 122.9 162.157C119.837 173.813 122.479 185.315 117.687 196.713C113.212 207.357 93.0134 249.573 112.462 258.825C129.959 267.149 164.788 277.104 183.684 281.599C218.674 289.921 230.783 296.604 273.604 290.785C341.638 281.538 368.343 195.131 339.091 148.747C331.003 135.922 311.042 109.402 298.438 100.678C290.377 95.0986 241.032 80.4342 235.499 82.1262V82.1262Z"
        fill="#F8AC67" />
    <g clip-path="url(#clip0_366_213)">
        <path
            d="M128.579 151.986C128.724 151.04 129.292 150.282 129.384 149.322C129.458 148.548 130.035 147.827 130.369 147.074C130.865 145.954 131.69 144.983 131.827 143.694C131.862 143.36 132.167 143.06 132.325 142.733C132.763 141.826 132.809 140.739 133.202 139.907C133.667 138.921 133.307 137.822 133.947 136.947C134.054 136.801 133.994 136.537 134.025 136.33C134.055 136.128 134.102 135.928 134.144 135.728C134.233 135.309 134.314 134.887 134.417 134.471C134.514 134.079 134.634 133.692 134.743 133.303C134.765 133.225 134.814 133.141 134.801 133.069C134.63 132.138 135.209 131.466 135.579 130.714C135.8 130.266 135.918 129.768 136.114 129.306C136.411 128.603 136.739 127.914 137.047 127.215C137.348 126.536 137.625 125.845 137.943 125.175C138.055 124.939 138.269 124.753 138.422 124.535C138.657 124.2 138.884 123.859 139.106 123.515C139.171 123.415 139.184 123.278 139.257 123.188C139.866 122.438 140.405 121.607 141.117 120.971C142.041 120.147 142.425 119.033 143.022 118.03C143.375 117.437 143.742 116.852 144.093 116.257C144.834 115.003 145.767 113.89 146.62 112.721C147.698 111.244 149.191 110.195 150.24 108.752C150.888 107.86 151.818 107.154 152.163 106.036C152.224 105.838 152.45 105.668 152.635 105.535C153.117 105.19 153.628 104.884 154.112 104.54C154.92 103.966 155.701 103.353 156.522 102.797C157.467 102.157 158.43 101.54 159.41 100.955C160.048 100.573 160.727 100.257 161.394 99.9242C162.114 99.5655 162.856 99.2489 163.563 98.866C164.595 98.3066 165.571 97.6344 166.632 97.1406C167.63 96.676 168.729 96.4318 169.743 95.9972C171.056 95.4346 172.466 95.1049 173.602 94.1059C174.295 93.4972 174.95 92.7685 175.902 92.4703C176.16 92.3894 176.343 92.0751 176.565 91.8728C177.211 91.2844 177.936 90.8818 178.845 90.9243C179.316 90.9462 179.715 90.8659 180.139 90.5633C180.562 90.261 181.141 90.1612 181.664 90.0163C183.089 89.6211 184.387 88.9165 185.705 88.2861C186.437 87.9365 187.046 87.3072 187.666 86.7545C188.196 86.2819 188.706 85.8476 189.376 85.5273C190.291 85.0897 191.083 84.3951 191.928 83.8129C192.028 83.7441 192.144 83.627 192.242 83.6371C193.23 83.7386 193.853 82.9068 194.724 82.6819C195.453 82.4933 196.131 82.1009 196.83 81.7957C197.913 81.3235 199.002 80.9168 200.224 81.0043C200.937 81.0555 201.66 81.0485 202.374 81.0012C202.838 80.9704 203.295 80.8215 203.754 80.7217C203.872 80.696 203.998 80.6072 204.102 80.6302C204.886 80.8032 205.413 80.2193 206.054 79.9795C206.657 79.754 207.163 79.336 207.865 79.2903C208.366 79.2577 208.913 79.0548 209.328 78.767C210.116 78.2205 210.969 78.4942 211.791 78.3973C212.108 78.3599 212.414 78.2286 212.726 78.1413C212.882 78.0976 213.037 78.0263 213.195 78.0202C213.629 78.0033 214.064 78.0041 214.499 78.0163C215.841 78.0539 216.977 77.47 218.162 76.9372C218.727 76.6828 219.489 76.8378 220.161 76.8597C220.432 76.8685 220.697 77.0761 220.969 77.0899C221.663 77.1249 222.36 77.1165 223.055 77.0971C223.69 77.0794 224.301 77.1158 224.853 77.4865C224.981 77.5722 225.159 77.6051 225.317 77.6189C226.227 77.6985 227.188 77.3943 228.031 78.0045C228.131 78.0768 228.328 78.0144 228.48 78.0144C229.393 78.0144 230.308 78.0561 231.218 78.0032C232.228 77.9445 233.129 78.1268 234.032 78.633C234.521 78.9074 235.26 78.7136 235.783 78.9547C236.74 79.3958 237.739 79.1761 238.691 79.356C239.582 79.5244 240.406 80.0256 241.272 80.3451C241.952 80.5958 242.639 80.9127 243.345 80.9855C244.399 81.094 245.472 81.0114 246.537 81.0147C247.017 81.0161 247.514 80.9274 247.902 81.3558C247.975 81.436 248.185 81.4023 248.331 81.4031C249.049 81.407 249.767 81.4302 250.483 81.3975C251.145 81.3671 251.77 81.4395 252.342 81.7971C252.395 81.8303 252.449 81.9208 252.486 81.9123C253.463 81.6894 254.315 82.286 255.255 82.3332C255.669 82.354 256.074 82.5486 256.486 82.6534C256.626 82.6891 256.774 82.7032 256.92 82.7067C257.38 82.7179 257.835 82.6591 258.223 83.053C258.347 83.1791 258.691 83.0759 258.931 83.1034C259.322 83.1482 259.795 83.0962 260.079 83.2997C260.485 83.5901 260.881 83.5969 261.323 83.6331C261.726 83.6663 262.122 83.7916 262.519 83.885C262.635 83.9124 262.745 84.0084 262.857 84.0068C263.832 83.9929 264.661 84.4485 265.54 84.7742C266.259 85.0408 267.042 85.1347 267.792 85.3215C268.025 85.3793 268.281 85.4428 268.461 85.5862C269.217 86.1886 270.164 85.9874 271 86.2365C271.615 86.42 272.22 86.6462 272.816 86.8863C273.636 87.2162 274.451 87.5583 275.252 87.9299C276.238 88.387 277.199 88.8954 278.185 89.3511C278.731 89.6034 279.316 89.7713 279.865 90.0171C280.562 90.3292 281.229 90.7124 281.932 91.0081C282.58 91.2802 283.263 91.4682 283.924 91.7105C284.243 91.8278 284.569 91.9518 284.857 92.1297C285.701 92.6511 286.367 93.4925 287.472 93.5409C287.577 93.5455 287.693 93.6531 287.776 93.7397C288.379 94.3703 289.093 94.7305 289.985 94.7134C290.183 94.7096 290.419 94.7452 290.574 94.8531C291.136 95.2441 291.663 95.684 292.218 96.0861C293.035 96.678 293.86 97.2592 294.689 97.8338C295.261 98.23 295.94 98.5188 296.404 99.0124C297.245 99.9056 298.375 100.251 299.377 100.837C299.886 101.134 300.429 101.397 300.876 101.772C301.629 102.403 302.192 103.269 303.198 103.58C303.285 103.607 303.351 103.717 303.417 103.797C303.55 103.957 303.642 104.193 303.811 104.275C304.593 104.654 305.292 105.082 305.545 106.002C305.583 106.142 305.866 106.241 306.054 106.307C306.894 106.603 307.366 107.231 307.475 108.094C307.516 108.42 307.673 108.759 307.861 109.035C308.303 109.683 308.795 110.296 309.267 110.922C309.317 110.989 309.392 111.048 309.413 111.122C309.656 112.013 310.383 112.527 310.968 113.154C311.089 113.283 311.142 113.473 311.244 113.623C311.407 113.863 311.536 114.211 311.765 114.305C312.952 114.792 313.56 115.923 314.504 116.67C315.202 117.224 316.078 117.533 316.639 118.286C317.582 119.551 318.629 120.733 319.514 122.047C319.943 122.683 320.599 123.168 321.153 123.721C321.276 123.844 321.513 123.978 321.503 124.088C321.441 124.738 321.948 125.214 322.024 125.761C322.158 126.722 322.78 127.415 323.093 128.264C323.412 129.13 324.277 129.599 324.714 130.337C325.398 131.488 326.422 132.283 327.282 133.245C327.347 133.318 327.41 133.42 327.418 133.512C327.516 134.624 328.396 135.323 328.866 136.238C329.284 137.052 329.867 137.781 330.372 138.55C330.483 138.719 330.555 138.915 330.676 139.074C330.874 139.335 331.061 139.739 331.317 139.797C332.303 140.019 332.389 140.908 332.744 141.578C332.995 142.052 333.042 142.634 333.294 143.107C333.743 143.949 334.314 144.725 334.762 145.567C335.033 146.076 335.157 146.662 335.373 147.203C335.462 147.427 335.63 147.617 335.741 147.833C335.888 148.119 336.017 148.414 336.149 148.707C336.37 149.203 336.566 149.71 336.809 150.194C337.362 151.298 337.969 152.367 338.968 153.15C339.056 153.22 339.155 153.369 339.138 153.462C338.97 154.414 339.564 155.105 339.922 155.882C340.056 156.172 340.031 156.54 340.183 156.815C340.478 157.351 340.79 157.897 341.198 158.346C341.8 159.009 342.157 159.718 342.171 160.632C342.176 160.918 342.454 161.202 342.615 161.482C342.757 161.728 343.066 161.991 343.034 162.206C342.897 163.103 343.456 163.734 343.766 164.461C343.837 164.627 343.967 164.796 343.962 164.961C343.948 165.479 344.157 165.902 344.329 166.377C344.881 167.897 345.532 169.362 346.302 170.778C346.35 170.867 346.449 170.97 346.432 171.045C346.205 172.054 346.817 172.895 346.989 173.823C347.052 174.165 347.339 174.461 347.444 174.803C347.587 175.27 347.672 175.757 347.751 176.241C347.855 176.876 347.969 177.514 347.999 178.154C348.013 178.461 347.782 178.774 347.767 179.089C347.73 179.848 347.755 180.61 347.755 181.37C347.755 182.414 347.762 183.457 347.753 184.5C347.748 185.03 347.707 185.56 348.144 185.97C348.201 186.024 348.277 186.12 348.263 186.176C348.007 187.159 348.662 188.004 348.68 188.947C348.685 189.197 348.832 189.444 348.916 189.692C348.961 189.825 349.054 189.957 349.052 190.089C349.038 191.147 349.513 192.057 349.865 193.015C350.122 193.717 350.275 194.477 350.345 195.223C350.425 196.085 350.335 196.961 350.373 197.829C350.401 198.484 350.307 199.111 350.691 199.79C350.947 200.241 350.604 201.037 350.515 201.677C350.487 201.876 350.376 202.068 350.37 202.265C350.352 202.917 350.578 203.673 350.321 204.201C349.663 205.558 350.14 206.942 349.974 208.297C349.958 208.426 349.919 208.595 349.98 208.683C350.691 209.696 350.265 210.838 350.352 211.918C350.411 212.652 350.366 213.395 350.362 214.134C350.36 214.614 350.448 215.11 350.02 215.498C349.94 215.57 349.974 215.781 349.974 215.928C349.971 217.275 349.882 218.631 350.005 219.967C350.082 220.801 350.124 221.639 349.805 222.357C349.457 223.137 349.648 223.963 349.4 224.671C349.123 225.463 349.297 226.364 348.746 227.075C348.637 227.216 348.657 227.485 348.674 227.69C348.771 228.887 348.639 230.024 347.886 231.018C347.837 231.083 347.769 231.152 347.76 231.225C347.623 232.365 347.395 233.507 347.398 234.648C347.4 235.433 347.063 236.035 346.794 236.694C346.71 236.899 346.532 237.073 346.484 237.281C346.322 237.979 346.274 238.712 346.044 239.384C345.55 240.829 345.538 242.434 344.518 243.715C344.199 244.114 344.195 244.749 343.964 245.236C343.446 246.328 342.838 247.377 342.336 248.475C341.843 249.552 341.009 250.484 340.957 251.757C340.947 251.991 340.727 252.224 340.581 252.442C340.03 253.259 339.463 254.064 338.916 254.883C338.589 255.374 338.305 255.895 337.97 256.38C337.629 256.875 337.265 257.357 336.881 257.819C336.427 258.364 335.879 258.794 335.56 259.489C335.223 260.223 334.358 260.46 333.674 260.848C333.372 261.019 333.119 261.273 332.836 261.478C332.52 261.707 332.199 261.929 331.872 262.142C331.756 262.217 331.59 262.226 331.489 262.314C330.4 263.26 329.113 264.064 328.279 265.2C326.631 267.447 324.488 269.182 322.588 271.162C321.765 272.019 320.689 272.632 319.732 273.361C319.53 273.515 319.357 273.706 319.152 273.855C318.771 274.134 318.356 274.37 317.995 274.672C317.712 274.909 317.485 275.216 317.244 275.501C317.167 275.591 317.15 275.746 317.061 275.811C316.651 276.114 316.231 276.404 315.805 276.683C314.695 277.411 313.569 278.115 312.469 278.857C311.784 279.32 311.152 279.862 310.464 280.32C309.704 280.827 308.908 281.281 308.126 281.756C307.467 282.157 306.835 282.619 306.138 282.94C305.235 283.356 304.715 284.21 303.938 284.725C303.058 285.309 302.035 285.677 301.074 286.139C300.948 286.2 300.812 286.247 300.695 286.323C300.129 286.692 299.572 287.074 299.006 287.442C298.322 287.887 297.652 288.359 296.94 288.754C296.309 289.103 295.629 289.363 294.969 289.66C294.603 289.825 294.219 289.957 293.871 290.153C293.11 290.581 292.39 291.085 291.611 291.472C290.948 291.8 290.212 291.976 289.533 292.276C288.669 292.658 287.833 293.103 286.98 293.512C286.11 293.929 285.245 294.358 284.358 294.738C283.75 294.999 283.051 295.09 282.496 295.426C281.701 295.908 280.756 295.991 279.99 296.461C279.264 296.907 278.51 296.904 277.721 296.997C276.957 297.087 276.229 297.465 275.481 297.704C275.344 297.748 275.188 297.743 275.041 297.744C274.368 297.747 273.694 297.735 273.02 297.748C272.399 297.76 271.826 297.787 271.2 298.081C270.576 298.376 269.739 298.209 268.999 298.275C268.764 298.296 268.537 298.412 268.31 298.495C268.197 298.536 268.078 298.669 267.989 298.648C266.986 298.411 266.043 298.841 265.169 299.112C264.168 299.423 263.049 299.175 262.141 299.822C261.989 299.931 261.751 299.94 261.55 299.958C260.996 300.009 260.393 299.803 259.933 300.327C259.865 300.404 259.645 300.353 259.495 300.353C256.691 300.354 253.888 300.374 251.084 300.335C250.551 300.328 249.997 300.146 249.494 299.942C248.582 299.572 247.72 299.08 246.803 298.726C246.202 298.494 245.547 298.349 244.905 298.287C244.358 298.234 243.837 298.236 243.363 297.892C243.197 297.772 242.931 297.757 242.71 297.751C242.058 297.734 241.404 297.779 240.755 297.733C240.311 297.702 239.874 297.561 239.436 297.462C239.381 297.449 239.326 297.35 239.288 297.36C238.287 297.609 237.419 296.923 236.449 296.956C236.294 296.961 236.093 296.923 235.989 296.824C235.58 296.436 235.076 296.504 234.583 296.417C233.792 296.279 233.029 295.985 232.252 295.761C232.096 295.716 231.933 295.668 231.773 295.663C231.295 295.65 230.814 295.629 230.339 295.665C229.121 295.756 228.02 295.381 226.947 294.875C226.91 294.858 226.886 294.801 226.85 294.794C226.064 294.645 225.271 294.523 224.49 294.347C223.86 294.206 223.185 294.103 222.642 293.789C222.229 293.551 221.86 293.449 221.412 293.431C221.178 293.421 220.948 293.302 220.72 293.222C220.588 293.175 220.458 293.05 220.335 293.06C219.322 293.139 218.492 292.571 217.573 292.33C216.964 292.17 216.285 292.277 215.638 292.269C214.93 292.259 214.25 292.304 213.579 291.87C213.093 291.556 212.425 291.528 211.844 291.353C211.014 291.102 210.191 290.832 209.363 290.575C209.189 290.52 209.009 290.454 208.831 290.449C208.309 290.432 207.787 290.455 207.266 290.439C206.813 290.424 206.393 290.484 205.945 290.13C205.639 289.887 205.006 289.727 204.652 289.737C203.646 289.765 202.788 289.366 201.874 289.133C201.308 288.989 200.757 288.789 200.199 288.613C199.93 288.528 199.665 288.431 199.392 288.358C198.706 288.176 197.956 288.118 197.349 287.792C196.911 287.556 196.525 287.432 196.055 287.441C195.555 287.451 195.045 287.381 194.557 287.457C193.77 287.581 193.159 287.169 192.497 286.902C192.404 286.864 192.321 286.675 192.267 286.689C191.228 286.958 190.448 285.996 189.419 286.11C189.015 286.156 188.563 285.907 188.152 285.742C187.221 285.369 186.301 284.966 185.377 284.573C185.303 284.541 185.227 284.438 185.171 284.451C184.343 284.645 183.997 283.979 183.522 283.542C183.49 283.512 183.466 283.468 183.429 283.451C182.603 283.085 181.775 282.723 180.948 282.357C180.526 282.17 180.084 282.015 179.688 281.782C179.009 281.381 178.272 281.212 177.533 280.981C176.626 280.697 175.639 280.959 174.899 280.601C173.864 280.099 172.779 280.414 171.848 280.078C170.805 279.703 169.798 279.896 168.797 279.724C168.178 279.618 167.601 279.267 167.007 279.022C166.914 278.984 166.832 278.907 166.737 278.889C165.951 278.736 165.162 278.6 164.378 278.441C164.103 278.385 163.837 278.281 163.569 278.192C163.455 278.154 163.34 278.049 163.236 278.062C162.067 278.209 161.261 277.366 160.282 276.997C159.342 276.644 158.513 276.088 157.519 275.784C155.747 275.244 153.98 275.023 152.154 275.055C151.287 274.378 150.082 274.978 149.213 274.279C149.097 274.186 148.906 274.186 148.751 274.142C148.361 274.033 147.972 273.924 147.583 273.813C147.525 273.797 147.47 273.754 147.413 273.753C146.039 273.729 144.812 273.061 143.482 272.862C143.205 272.82 142.857 272.924 142.61 273.074C141.995 273.446 141.458 273.394 140.818 273.081C140.192 272.775 139.487 272.601 138.797 272.464C138.295 272.364 137.795 272.432 137.28 272.174C136.862 271.964 136.275 272.111 135.769 272.045C135.454 272.005 135.148 271.873 134.845 271.764C134.695 271.709 134.561 271.545 134.419 271.545C133.326 271.538 132.22 271.643 131.191 271.142C129.944 270.534 128.578 270.963 127.322 270.694C126.543 270.528 125.785 270.41 124.997 270.334C124.605 270.296 124.214 270.016 123.869 269.777C123.272 269.362 122.713 268.892 122.134 268.45C121.988 268.338 121.805 268.135 121.678 268.161C120.815 268.34 120.48 267.637 119.976 267.206C119.111 266.468 118.212 265.769 117.374 265.002C116.995 264.655 116.72 264.191 116.416 263.767C116.141 263.385 115.804 263.017 115.649 262.587C115.403 261.903 115.305 261.166 115.103 260.464C115.039 260.239 114.876 260.015 114.7 259.854C114.327 259.515 114.185 259.107 114.202 258.622C114.211 258.349 114.281 258.063 114.22 257.807C113.842 256.21 113.545 254.553 113.878 252.973C114.093 251.948 114.16 250.95 114.209 249.933C114.228 249.553 114.22 249.114 114.049 248.795C113.751 248.24 113.711 247.766 114.042 247.225C114.162 247.028 114.137 246.747 114.205 246.512C114.311 246.145 114.437 245.783 114.563 245.421C114.602 245.308 114.704 245.209 114.718 245.096C114.857 243.934 114.942 242.764 115.13 241.61C115.243 240.918 115.504 240.248 115.718 239.575C115.79 239.347 115.988 239.146 116.015 238.92C116.109 238.148 116.364 237.48 116.991 236.98C117.093 236.899 117.2 236.733 117.19 236.616C117.119 235.82 117.732 235.312 117.974 234.654C118.19 234.067 118.332 233.454 118.504 232.851C118.532 232.753 118.511 232.623 118.569 232.554C119.137 231.871 119.023 231.056 119.026 230.264C119.027 230.199 119.01 230.128 119.029 230.069C119.181 229.589 119.482 229.116 119.037 228.622C119.002 228.584 119.144 228.412 119.158 228.297C119.184 228.092 119.175 227.883 119.18 227.676C119.185 227.482 119.181 227.286 119.199 227.093C119.214 226.93 119.339 226.702 119.273 226.621C118.956 226.235 118.93 225.917 119.364 225.616C119.393 225.597 119.423 225.52 119.415 225.513C118.573 224.792 119.664 224.086 119.43 223.352C119.243 222.765 119.154 222.144 119.046 221.534C119.025 221.411 119.122 221.271 119.153 221.136C119.244 220.738 119.322 220.338 119.42 219.942C119.522 219.529 119.646 219.122 119.75 218.71C119.786 218.57 119.805 218.422 119.806 218.278C119.812 217.626 119.775 216.971 119.823 216.323C119.847 215.991 120.012 215.667 120.123 215.343C120.319 214.773 120.559 214.214 120.714 213.633C120.989 212.596 121.21 211.545 121.826 210.636C121.905 210.52 122.012 210.39 122.018 210.263C122.071 208.961 122.649 207.72 122.431 206.381C122.356 205.917 122.31 205.395 122.749 205.02C122.777 204.995 122.814 204.929 122.805 204.918C122.322 204.356 122.979 203.814 122.827 203.235C122.711 202.79 122.772 202.307 123.191 201.96C123.273 201.893 123.33 201.74 123.323 201.631C123.247 200.421 123.321 199.217 123.734 198.08C124.376 196.311 123.872 194.468 124.178 192.707C124.304 191.98 124.259 191.144 124.561 190.54C124.947 189.77 124.832 188.97 125.086 188.271C125.343 187.563 125.149 186.745 125.469 186.227C126.144 185.131 125.338 183.741 126.329 182.791C126.286 181.809 126.202 180.827 126.213 179.845C126.22 179.17 125.885 178.551 126.155 177.806C126.405 177.117 126.266 176.291 126.338 175.53C126.371 175.191 126.521 174.865 126.586 174.528C126.75 173.681 126.873 172.849 126.507 171.998C126.221 171.335 126.166 170.624 126.53 169.937C126.623 169.762 126.689 169.56 126.715 169.364C126.84 168.417 126.549 167.466 127.059 166.5C127.349 165.95 127.085 165.12 127.124 164.419C127.141 164.104 127.293 163.798 127.38 163.486C127.467 163.174 127.617 162.862 127.622 162.548C127.646 160.94 127.629 159.331 127.638 157.723C127.639 157.521 127.707 157.32 127.75 157.119C127.839 156.7 127.924 156.28 128.027 155.864C128.124 155.472 128.249 155.086 128.345 154.693C128.389 154.512 128.402 154.322 128.414 154.135C128.461 153.43 128.503 152.724 128.579 151.986ZM336.997 183.772C336.888 183.312 336.636 182.832 336.697 182.396C336.907 180.904 336.239 179.516 336.274 178.055C336.276 177.986 336.177 177.92 336.16 177.845C336.021 177.228 335.884 176.61 335.761 175.989C335.701 175.684 335.76 175.32 335.612 175.075C335.034 174.119 334.896 173.1 334.958 172.01C334.976 171.687 334.804 171.343 334.676 171.026C334.386 170.307 333.939 169.639 334.056 168.802C334.08 168.623 334.06 168.409 333.982 168.25C333.678 167.636 333.348 167.034 333.019 166.432C332.365 165.237 331.851 163.996 330.96 162.893C330.176 161.921 329.51 160.842 328.678 159.87C327.928 158.993 327.472 157.864 326.893 156.843C326.743 156.58 326.662 156.264 326.468 156.045C325.504 154.961 324.684 153.821 324.67 152.286C324.669 152.211 324.622 152.132 324.585 152.062C324.233 151.403 323.844 150.762 323.537 150.083C323.298 149.554 323.046 148.986 323.01 148.422C322.972 147.825 322.697 147.448 322.33 147.062C322.098 146.818 321.867 146.566 321.68 146.288C321.281 145.697 320.977 145.03 320.514 144.497C319.804 143.679 318.989 142.951 318.227 142.176C318.069 142.014 317.957 141.807 317.808 141.635C317.507 141.288 317.247 140.866 316.873 140.632C316.489 140.391 316.167 140.194 316.053 139.719C316 139.494 315.798 139.306 315.667 139.099C315.374 138.634 315.034 138.191 314.8 137.697C314.217 136.462 313.712 135.19 312.586 134.305C312.429 134.182 312.381 133.919 312.286 133.719C311.983 133.084 311.676 132.451 311.381 131.812C311.068 131.138 310.551 130.472 310.509 129.779C310.444 128.69 310.008 127.911 309.263 127.21C309.069 127.027 308.86 126.81 308.777 126.568C308.518 125.811 308.156 125.142 307.559 124.59C306.905 123.986 306.304 123.325 305.657 122.712C305.422 122.49 305.094 122.366 304.854 122.147C304.146 121.502 303.252 120.942 302.822 120.139C302.361 119.277 301.871 118.502 301.182 117.824C300.726 117.376 300.282 116.908 299.894 116.402C299.191 115.485 298.553 114.519 297.852 113.601C297.266 112.834 296.626 112.108 296.017 111.359C295.942 111.268 295.922 111.134 295.852 111.038C295.646 110.762 295.462 110.456 295.207 110.233C294.771 109.851 294.238 109.572 293.838 109.159C293.395 108.702 293.119 108.078 292.66 107.641C291.287 106.331 289.875 105.061 288.446 103.812C288.005 103.426 287.492 103.089 286.959 102.849C285.87 102.357 284.784 101.91 283.927 101.01C283.601 100.666 283.057 100.517 282.595 100.319C282.061 100.09 281.467 99.9728 280.97 99.6848C280.052 99.1529 279.2 98.5074 278.289 97.9612C277.97 97.7703 277.489 97.826 277.204 97.6086C276.153 96.8053 275.153 95.9356 274.135 95.089C273.988 94.9666 273.87 94.7744 273.703 94.7162C272.906 94.438 272.193 94.045 271.644 93.3861C271.565 93.2907 271.466 93.1848 271.354 93.1469C269.967 92.6752 268.881 91.6135 267.473 91.1807C267.149 91.0807 266.849 90.9 266.524 90.7992C265.906 90.6073 265.253 90.5085 264.661 90.2599C263.272 89.6767 261.912 89.0272 260.538 88.4071C260.447 88.366 260.342 88.3558 260.251 88.3146C259.885 88.1487 259.515 87.9896 259.16 87.8012C258.961 87.6957 258.807 87.4986 258.604 87.412C258.234 87.255 257.819 87.1954 257.466 87.0132C256.729 86.6338 255.984 86.4142 255.138 86.4781C254.36 86.5369 253.574 86.4975 252.792 86.4855C252.611 86.4827 252.432 86.4155 252.252 86.3776C251.812 86.285 251.376 86.1425 250.932 86.1112C250.283 86.0654 249.629 86.1052 248.977 86.0953C248.815 86.0928 248.613 86.0902 248.5 86C248.059 85.6503 247.554 85.7067 247.053 85.7079C246.574 85.7091 246.094 85.737 245.619 85.6971C245.345 85.674 245.041 85.5966 244.818 85.4443C244.357 85.1289 243.895 85.0899 243.399 85.2885C243.082 85.4152 242.784 85.666 242.463 85.6918C240.693 85.8343 238.929 85.6174 237.133 86.0263C235.885 86.3107 234.543 86.1829 233.359 86.8686C233.126 87.0037 232.795 86.9747 232.508 87.01C232.339 87.0307 232.091 86.9592 232.01 87.0486C231.562 87.5416 230.989 87.4075 230.454 87.3918C230.074 87.3807 229.79 87.4679 229.562 87.7729C229.228 88.2186 228.756 88.3439 228.224 88.3182C228.052 88.3099 227.798 88.2518 227.72 88.3394C227.238 88.8823 226.613 88.6784 226.039 88.7021C225.453 88.7264 224.865 88.6987 224.279 88.7133C224.121 88.7172 223.966 88.7911 223.81 88.8348C223.498 88.922 223.165 89.1304 222.88 89.0779C221.663 88.8542 220.575 89.5811 219.386 89.4961C219.321 89.4915 219.238 89.5657 219.182 89.6221C218.767 90.0411 218.244 90.0341 217.712 90.0155C217.592 90.0112 217.452 90.0249 217.352 90.0837C216.073 90.8377 214.768 91.5168 213.265 91.7159C213.119 91.7353 212.968 91.8608 212.854 91.9722C212.064 92.7436 211.147 93.1331 210.022 93.0155C208.852 92.8931 207.782 93.229 206.745 93.7576C205.989 94.1435 205.204 94.4416 204.302 94.3341C203.885 94.2844 203.408 94.3595 203.023 94.5263C202.621 94.7004 202.336 94.6213 201.938 94.5277C201.238 94.3628 200.473 94.2967 199.764 94.3975C199.02 94.5035 198.312 94.8584 197.585 95.0958C197.029 95.2772 196.285 95.279 195.948 95.6524C195.17 96.5119 193.888 96.6041 193.272 97.7715C192.783 98.7005 191.809 99.3169 190.603 99.4315C189.988 99.4899 189.266 99.7254 188.834 100.136C187.96 100.967 187.046 101.673 185.956 102.195C185.153 102.579 184.455 103.186 183.642 103.539C182.823 103.895 182.26 104.73 181.275 104.762C181.169 104.765 181.036 104.95 180.971 105.079C180.461 106.094 179.708 106.841 178.691 107.37C178.076 107.69 177.469 108.088 176.982 108.574C176.437 109.119 175.643 109.373 175.302 110.181C175.068 110.737 174.585 111.186 174.224 111.691C174.071 111.906 173.895 112.124 173.816 112.368C173.529 113.251 173.28 114.146 173.011 115.035C172.988 115.11 172.922 115.171 172.886 115.243C172.359 116.316 171.519 117.276 171.701 118.604C171.724 118.772 171.676 119.002 171.571 119.129C170.535 120.384 170.473 121.99 170.057 123.454C169.902 123.997 169.711 124.408 169.341 124.796C168.978 125.176 168.604 125.563 168.33 126.006C167.627 127.141 167.282 128.478 166.351 129.493C166.19 129.668 166.13 129.979 166.113 130.233C166.077 130.752 166.293 131.388 166.064 131.774C165.544 132.651 165.779 133.549 165.721 134.439C165.707 134.652 165.808 134.875 165.868 135.09C165.939 135.343 166.157 135.647 166.079 135.831C165.739 136.637 165.86 137.357 166.033 138.204C166.201 139.032 165.799 139.976 165.644 140.869C165.634 140.927 165.614 140.99 165.579 141.037C165.042 141.752 164.838 142.549 164.921 143.441C164.965 143.915 164.946 144.398 164.922 144.875C164.908 145.137 164.899 145.451 164.757 145.647C164.181 146.442 163.917 147.294 163.996 148.28C164.014 148.503 163.834 148.802 163.655 148.97C162.965 149.615 162.791 150.504 162.745 151.326C162.64 153.232 162.712 155.149 162.713 157.061C162.713 157.211 162.66 157.417 162.737 157.502C163.349 158.178 163.493 158.986 163.733 159.844C164.022 160.878 164.103 161.763 163.739 162.73C163.689 162.862 163.585 163.067 163.637 163.129C164.068 163.65 163.805 164.398 164.067 164.838C164.563 165.671 164.338 166.491 164.398 167.314C164.451 168.04 164.282 168.797 164.841 169.42C164.923 169.511 164.924 169.695 164.925 169.836C164.932 170.908 164.925 171.981 164.936 173.053C164.937 173.139 165.034 173.229 165.096 173.309C165.757 174.164 165.679 175.242 165.959 176.21C166.126 176.788 166.025 177.481 166.304 177.976C166.567 178.444 166.618 178.869 166.624 179.349C166.63 179.891 166.569 180.422 166.939 180.919C167.21 181.281 167.331 181.752 167.539 182.164C167.858 182.794 168.152 183.441 168.532 184.033C168.978 184.728 169.632 185.314 169.963 186.051C170.347 186.904 170.833 187.621 171.45 188.313C171.956 188.879 172.28 189.609 172.668 190.276C173.064 190.958 173.335 191.744 173.848 192.318C174.562 193.118 175.324 193.847 175.626 194.919C175.73 195.285 176.005 195.643 175.99 195.996C175.945 197.013 176.331 197.802 176.989 198.533C177.187 198.753 177.225 199.126 177.314 199.435C177.415 199.786 177.42 200.185 177.595 200.49C177.859 200.951 178.241 201.345 178.561 201.777C178.743 202.023 178.907 202.283 179.069 202.544C179.411 203.096 179.675 203.716 180.097 204.198C181.492 205.787 182.948 207.323 184.367 208.891C184.644 209.197 184.911 209.528 185.1 209.891C185.574 210.8 185.951 211.762 186.46 212.649C186.998 213.588 187.648 214.462 188.241 215.37C188.339 215.52 188.461 215.695 188.463 215.859C188.471 216.557 188.956 217.051 189.181 217.653C189.54 218.613 190.009 219.557 190.183 220.552C190.308 221.266 190.571 221.851 190.976 222.381C191.46 223.015 191.918 223.63 191.929 224.471C191.93 224.582 192 224.708 192.073 224.799C192.667 225.533 193.27 226.26 193.866 226.992C193.928 227.069 193.953 227.174 194.01 227.257C194.221 227.562 194.409 227.888 194.658 228.16C195.118 228.664 195.695 229.08 196.074 229.634C196.513 230.276 196.835 231.009 197.126 231.735C197.423 232.473 197.773 233.142 198.349 233.714C198.768 234.131 199.136 234.634 199.409 235.159C200.191 236.66 200.886 238.208 202.043 239.482C202.154 239.605 202.167 239.818 202.224 239.99C202.32 240.276 202.426 240.56 202.509 240.85C202.757 241.725 203.512 242.192 204.083 242.804C204.474 243.223 204.922 243.573 204.855 244.258C204.837 244.449 205.092 244.671 205.232 244.872C205.363 245.059 205.512 245.233 205.645 245.419C206.184 246.173 206.689 246.954 207.267 247.677C207.924 248.499 208.857 249.071 209.314 250.091C209.478 250.457 209.934 250.708 210.29 250.966C210.954 251.447 211.757 251.791 212.285 252.386C212.735 252.892 213.06 253.413 213.699 253.804C214.727 254.435 215.568 255.366 216.51 256.145C217.297 256.796 218.199 257.328 218.9 258.057C220.313 259.525 221.623 261.092 222.975 262.617C223.019 262.666 223.066 262.712 223.114 262.756C223.615 263.215 224.101 263.692 224.623 264.126C225.133 264.55 225.695 264.911 226.204 265.336C226.622 265.685 226.914 266.235 227.605 266.066C227.676 266.048 227.779 266.155 227.867 266.206C228.99 266.852 230.067 267.61 231.254 268.102C231.994 268.41 232.786 268.511 233.49 269.024C234.157 269.51 234.982 269.759 235.601 270.382C235.989 270.772 236.531 271.149 237.053 271.235C237.9 271.374 238.552 271.737 239.179 272.278C239.524 272.575 239.989 272.945 240.385 272.928C241.366 272.888 241.759 273.619 242.308 274.143C242.838 274.648 243.446 274.905 244.147 275.072C244.788 275.224 245.493 275.392 245.989 275.782C246.518 276.198 247 276.433 247.654 276.364C247.841 276.344 248.092 276.309 248.216 276.406C248.753 276.825 249.364 276.749 249.969 276.75C250.824 276.752 251.692 276.649 252.456 277.21C252.6 277.316 252.867 277.255 253.078 277.272C253.246 277.285 253.436 277.254 253.578 277.322C254.534 277.786 255.509 278.142 256.601 278.059C256.99 278.029 257.383 278.039 257.773 278.06C257.974 278.071 258.192 278.105 258.366 278.197C259.188 278.632 260.042 278.925 260.981 278.972C261.681 279.007 262.433 278.758 263.052 279.333C263.135 279.41 263.343 279.362 263.492 279.357C264.062 279.335 264.604 279.363 265.118 279.694C265.31 279.817 265.637 279.773 265.894 279.742C266.383 279.682 266.865 279.562 267.353 279.496C267.508 279.475 267.676 279.544 267.838 279.575C268.14 279.632 268.44 279.731 268.744 279.741C269.46 279.766 270.179 279.721 270.894 279.762C271.207 279.78 271.547 279.883 271.812 280.048C272.228 280.306 272.58 280.297 273.024 280.108C273.467 279.92 273.988 279.712 274.435 279.778C275.677 279.963 276.789 279.307 277.994 279.354C278.045 279.356 278.099 279.296 278.15 279.262C278.872 278.775 279.637 278.469 280.54 278.56C280.78 278.584 281.064 278.462 281.284 278.333C281.929 277.954 282.551 277.544 283.356 277.658C283.473 277.674 283.664 277.666 283.711 277.596C283.998 277.162 284.43 277.313 284.821 277.262C285.096 277.225 285.371 277.121 285.622 276.999C286.669 276.493 287.726 276.105 288.905 275.926C290.092 275.745 291.257 275.505 292.466 275.565C292.604 275.572 292.743 275.403 292.893 275.349C293.196 275.239 293.501 275.099 293.816 275.066C294.494 274.995 295.194 275.195 295.818 274.681C296.145 274.411 296.615 274.313 297.022 274.143C297.504 273.941 297.975 273.699 298.474 273.559C299.127 273.375 299.534 272.919 299.971 272.459C300.156 272.265 300.46 272.186 300.71 272.056C301.371 271.71 302.165 271.496 302.664 270.99C303.511 270.132 304.549 269.682 305.581 269.177C305.942 269 306.309 268.836 306.673 268.665C307.292 268.375 307.913 268.09 308.527 267.789C308.781 267.665 309.014 267.498 309.263 267.362C310.219 266.841 311.404 266.776 312.173 265.868C312.293 265.726 312.585 265.677 312.798 265.676C313.289 265.675 313.751 265.678 314.158 265.316C314.306 265.185 314.585 265.208 314.797 265.141C314.969 265.087 315.153 265.033 315.295 264.93C315.899 264.49 316.47 264.003 317.089 263.586C317.891 263.047 318.716 262.642 319.33 261.764C320.311 260.361 321.585 259.161 322.747 257.888C322.91 257.709 323.145 257.596 323.345 257.45C323.702 257.189 324.113 256.976 324.402 256.654C325.188 255.778 325.896 254.832 326.68 253.955C328.075 252.393 329.503 250.862 330.914 249.315C330.98 249.243 331.058 249.14 331.057 249.053C331.049 247.971 331.707 247.258 332.382 246.529C332.742 246.141 333.013 245.667 333.311 245.224C333.642 244.733 333.889 244.163 334.299 243.753C334.773 243.28 335.094 242.829 334.989 242.13C334.962 241.951 335.072 241.735 335.161 241.558C335.445 240.993 335.874 240.485 335.765 239.782C335.747 239.672 335.789 239.528 335.853 239.433C336.419 238.576 336.269 237.614 336.283 236.674C336.285 236.511 336.317 236.344 336.358 236.185C336.455 235.813 336.636 235.449 336.657 235.075C336.702 234.23 336.668 233.381 336.673 232.533C336.674 232.367 336.673 232.188 336.729 232.036C337.061 231.15 337.698 230.307 337.066 229.301C337.037 229.254 337.05 229.17 337.064 229.108C337.245 228.295 337.751 227.56 337.653 226.676C337.649 226.636 337.748 226.591 337.784 226.538C338.433 225.577 338.396 224.406 338.75 223.353C339.014 222.569 339.139 221.729 339.475 220.981C339.659 220.572 339.727 220.244 339.569 219.864C339.381 219.414 339.235 219.038 339.597 218.541C339.794 218.27 339.823 217.625 339.632 217.37C339.114 216.679 339.361 215.94 339.27 215.224C339.238 214.97 339.146 214.704 339.01 214.488C338.723 214.033 338.687 213.65 339.078 213.216C339.203 213.077 339.202 212.727 339.126 212.523C338.909 211.941 338.485 211.404 338.402 210.812C338.301 210.093 338.449 209.335 338.523 208.598C338.548 208.343 338.745 208.099 338.747 207.85C338.765 205.655 338.754 203.46 338.763 201.265C338.764 201.044 338.812 200.81 338.894 200.604C339.138 199.989 339.591 199.394 339.628 198.772C339.684 197.82 339.891 196.824 339.43 195.874C339.303 195.61 339.427 195.224 339.437 194.895C339.443 194.703 339.477 194.508 339.453 194.32C339.415 194.016 339.339 193.717 339.279 193.416C339.235 193.195 339.203 192.971 339.146 192.753C339.023 192.284 338.888 191.817 338.757 191.35C338.714 191.194 338.693 191.027 338.625 190.883C338.324 190.239 337.834 189.663 337.965 188.869C337.989 188.724 337.89 188.558 337.844 188.403C337.759 188.113 337.611 187.826 337.594 187.532C337.522 186.284 337.826 184.986 336.997 183.772ZM202.811 279.228C203.276 279.271 203.741 279.309 204.206 279.36C204.515 279.394 204.838 279.398 205.126 279.498C205.79 279.729 206.419 280.171 207.091 280.238C208.577 280.386 210.07 280.209 211.57 280.604C212.323 280.802 213.231 281.144 214.085 280.676C214.187 280.62 214.388 280.755 214.546 280.79C214.965 280.881 215.387 280.96 215.806 281.055C216.122 281.127 216.435 281.214 216.748 281.299C217.691 281.554 218.563 282.091 219.601 281.97C220.84 281.826 221.975 282.179 223.06 282.746C223.255 282.848 223.546 282.861 223.657 283.014C224.205 283.768 225.126 283.689 225.852 284.037C226.591 284.391 227.395 284.611 228.168 284.895C229.311 285.314 230.329 286.157 231.676 285.892C231.873 285.853 232.106 285.984 232.32 286.048C233.159 286.298 233.941 286.763 234.87 286.664C236.378 286.503 237.83 286.838 239.286 287.17C239.644 287.252 240.037 287.171 240.414 287.186C240.691 287.198 240.98 287.205 241.242 287.285C241.915 287.491 242.575 287.738 243.242 287.964C243.89 288.184 244.537 288.407 245.19 288.612C245.923 288.841 246.654 289.195 247.398 289.231C248.276 289.275 249.025 289.634 249.821 289.874C250.354 290.034 250.836 290.506 251.357 290.532C252.09 290.568 252.646 290.876 253.254 291.185C254.038 291.584 254.809 292.024 255.772 291.894C256.434 291.805 257.254 291.638 257.762 291.929C258.685 292.458 259.594 292.154 260.499 292.259C260.691 292.281 260.9 292.191 261.095 292.135C261.366 292.058 261.632 291.894 261.901 291.891C262.496 291.886 263.063 291.853 263.568 291.491C263.677 291.413 263.83 291.375 263.967 291.359C264.559 291.291 265.221 291.568 265.706 290.973C265.758 290.909 265.957 290.964 266.087 290.964C266.652 290.964 267.221 291.006 267.781 290.955C268.882 290.855 269.978 290.705 271.075 290.568C271.148 290.559 271.206 290.462 271.281 290.439C271.726 290.304 272.17 290.164 272.621 290.056C272.962 289.975 273.315 289.952 273.658 289.878C273.893 289.828 274.114 289.699 274.35 289.666C275.402 289.522 276.458 289.402 277.512 289.265C277.606 289.252 277.69 289.173 277.785 289.14C278.051 289.048 278.32 288.894 278.589 288.892C279.184 288.887 279.764 288.905 280.255 288.489C280.329 288.426 280.431 288.392 280.525 288.357C281.072 288.157 281.657 288.024 282.159 287.744C282.661 287.464 283.431 287.894 283.725 287.126C283.731 287.109 283.812 287.116 283.858 287.119C284.175 287.139 284.496 287.201 284.808 287.169C285.02 287.147 285.218 286.993 285.422 286.898C285.198 286.776 284.959 286.527 284.754 286.552C283.879 286.659 283.008 286.823 282.146 287.012C281.475 287.159 280.818 287.372 280.157 287.559C279.69 287.691 279.23 287.926 278.759 287.946C277.501 288.001 276.239 287.959 274.978 287.971C274.781 287.973 274.546 288.011 274.394 288.121C274.016 288.397 273.651 288.408 273.235 288.233C273.061 288.16 272.848 288.13 272.661 288.152C272.296 288.193 271.937 288.342 271.575 288.346C269.763 288.368 267.952 288.356 266.141 288.356C265.054 288.356 263.967 288.367 262.881 288.348C262.621 288.344 262.362 288.245 262.104 288.184C261.808 288.114 261.516 287.997 261.216 287.974C260.596 287.926 259.936 288.048 259.358 287.878C258.597 287.654 257.95 287.147 257.133 286.947C256.243 286.728 255.514 285.945 254.473 286.127C254.366 286.146 254.234 285.989 254.106 285.927C253.709 285.733 253.326 285.46 252.905 285.373C251.694 285.122 250.474 284.967 249.227 284.896C248.581 284.86 247.917 284.337 247.157 284.44C247.13 284.444 247.099 284.372 247.062 284.36C246.736 284.255 246.401 284.05 246.082 284.07C244.445 284.177 242.994 283.676 241.628 282.838C241.561 282.797 241.481 282.774 241.404 282.749C240.579 282.486 239.753 282.224 238.928 281.959C238.833 281.928 238.748 281.853 238.652 281.84C237.579 281.694 236.721 281.118 235.886 280.487C235.226 279.988 234.587 279.45 233.882 279.024C233.109 278.557 232.279 278.179 231.458 277.798C230.401 277.308 229.319 276.872 228.267 276.374C227.701 276.107 227.167 275.769 226.631 275.444C225.744 274.904 224.843 274.383 223.993 273.79C223.274 273.287 222.622 272.689 221.931 272.146C221.843 272.077 221.693 272.096 221.58 272.054C221.016 271.84 220.355 271.743 219.912 271.38C218.562 270.275 217.295 269.068 215.999 267.897C215.79 267.708 215.598 267.499 215.399 267.299C213.703 265.601 212.053 263.854 210.12 262.413C210.005 262.328 209.87 262.27 209.761 262.179C209.547 261.999 209.337 261.81 209.138 261.613C208.975 261.451 208.83 261.27 208.677 261.099C208.295 260.674 207.955 260.199 207.523 259.835C206.721 259.159 206.128 258.268 205.137 257.769C204.569 257.483 204.021 256.933 203.731 256.365C203.187 255.296 202.253 254.629 201.477 253.799C201.344 253.657 201.183 253.531 201.084 253.368C200.702 252.745 200.421 252.044 199.957 251.495C198.675 249.98 197.021 248.814 195.94 247.092C195.333 246.124 194.516 245.287 193.795 244.39C193.771 244.36 193.768 244.314 193.747 244.28C193.379 243.671 193.124 242.934 192.614 242.487C191.875 241.838 191.983 240.902 191.549 240.167C191.258 239.674 191.171 239.064 190.928 238.537C190.457 237.513 189.965 236.498 189.435 235.504C189.139 234.947 188.772 234.423 188.391 233.917C188.15 233.596 187.809 233.352 187.543 233.048C186.399 231.743 185.268 230.426 184.126 229.119C183.929 228.893 183.603 228.729 183.508 228.473C183.087 227.339 182.309 226.438 181.645 225.463C181.252 224.885 180.775 224.351 180.464 223.733C179.968 222.749 179.588 221.707 179.14 220.697C178.626 219.537 178.222 218.306 177.175 217.468C177.127 217.429 177.094 217.372 177.057 217.322C176.373 216.388 175.691 215.453 175.007 214.52C174.518 213.853 173.89 213.247 173.564 212.509C172.905 211.017 172.083 209.669 170.814 208.644C169.401 207.504 169.119 205.654 167.996 204.314C167.371 203.569 167.128 202.513 166.662 201.623C166.251 200.836 165.766 200.089 165.321 199.319C164.737 198.309 164.417 197.129 163.408 196.393C163.217 196.253 163.037 196.08 162.903 195.886C162.161 194.819 162.155 193.376 161.15 192.439C161.128 192.419 161.145 192.355 161.147 192.312C161.186 191.724 160.813 191.369 160.467 190.958C159.911 190.296 159.322 189.618 158.96 188.847C158.527 187.925 158.36 186.882 157.998 185.921C157.638 184.964 157.179 184.045 156.767 183.107C156.613 182.758 156.477 182.4 156.321 182.053C155.982 181.302 155.724 180.494 155.267 179.822C154.734 179.04 154.156 178.328 154.227 177.308C154.239 177.137 154.158 176.95 154.088 176.783C153.841 176.19 153.495 175.624 153.343 175.009C153.114 174.085 152.76 173.167 152.922 172.175C152.946 172.03 152.847 171.864 152.8 171.709C152.671 171.285 152.465 170.867 152.427 170.435C152.364 169.723 152.349 168.996 152.423 168.286C152.551 167.058 152.012 165.759 152.799 164.598C152.819 164.569 152.807 164.512 152.8 164.47C152.715 163.882 152.62 163.296 152.542 162.707C152.465 162.12 152.475 161.512 152.321 160.948C152.08 160.069 151.526 159.275 151.623 158.303C151.631 158.23 151.6 158.129 151.55 158.077C151.135 157.638 151.279 157.091 151.225 156.576C151.192 156.261 151.044 155.958 150.955 155.648C150.742 154.91 150.383 154.177 150.352 153.431C150.268 151.391 150.31 149.346 150.335 147.303C150.34 146.925 150.466 146.538 150.592 146.175C150.781 145.625 151.051 145.102 151.227 144.548C151.399 144.007 151.526 143.447 151.62 142.886C151.749 142.125 151.394 141.31 151.876 140.575C151.928 140.497 151.789 140.31 151.783 140.172C151.736 139.111 151.699 138.05 151.665 136.989C151.664 136.959 151.738 136.933 151.751 136.896C151.844 136.63 151.976 136.367 152.011 136.093C152.16 134.932 152.277 133.767 152.414 132.605C152.425 132.51 152.478 132.406 152.543 132.335C152.918 131.932 152.987 131.45 152.934 130.929C152.924 130.825 152.902 130.667 152.959 130.62C153.468 130.188 153.308 129.607 153.319 129.07C153.334 128.353 153.28 127.632 153.341 126.92C153.371 126.577 153.579 126.24 153.742 125.919C153.879 125.647 154.122 125.422 154.225 125.141C154.475 124.461 154.663 123.758 154.89 123.069C155.097 122.438 155.322 121.813 155.541 121.187C155.561 121.13 155.585 121.066 155.628 121.029C156.351 120.402 156.559 119.527 156.867 118.671C157.22 117.692 157.755 116.78 158.207 115.836C158.398 115.437 158.582 115.035 158.759 114.63C158.835 114.455 158.884 114.268 158.945 114.086C158.707 114.14 158.412 114.125 158.244 114.264C157.938 114.515 157.691 114.845 157.452 115.166C157.171 115.543 156.884 115.925 156.675 116.343C156.442 116.808 156.43 117.467 156.085 117.775C155.019 118.728 154.636 120.05 153.969 121.219C153.303 122.386 152.636 123.548 151.655 124.51C151.247 124.91 151.005 125.489 150.719 126.003C150.331 126.701 150.108 127.493 149.434 128.021C149.222 128.188 149.123 128.495 148.963 128.731C148.582 129.291 148.237 129.883 147.802 130.398C147.123 131.202 146.158 131.786 145.794 132.829C145.394 133.975 144.954 135.091 144.336 136.14C144.095 136.55 143.922 137.02 143.816 137.485C143.632 138.287 143.696 139.194 143.338 139.894C142.961 140.632 143.116 141.333 143.01 142.047C142.943 142.504 142.788 142.951 142.644 143.392C142.482 143.889 142.281 144.372 142.11 144.866C141.913 145.437 141.729 146.012 141.542 146.587C141.424 146.951 141.265 147.31 141.207 147.684C141.135 148.145 141.227 148.641 141.107 149.083C140.946 149.679 140.592 150.222 140.428 150.818C140.233 151.529 140.155 152.271 140.018 152.998C139.996 153.114 139.955 153.247 139.877 153.328C139.49 153.733 139.462 154.224 139.497 154.739C139.504 154.842 139.507 154.963 139.462 155.049C138.946 156.036 138.626 157.063 138.712 158.197C138.747 158.673 138.729 159.153 138.712 159.631C138.705 159.81 138.676 160.017 138.58 160.159C137.945 161.092 137.673 162.106 137.798 163.231C137.816 163.387 137.76 163.558 137.712 163.714C137.487 164.446 137.09 165.167 137.054 165.907C136.96 167.859 137.016 169.818 137.03 171.774C137.032 172.031 137.112 172.301 137.212 172.543C137.505 173.255 137.563 173.928 137.126 174.625C136.89 175 136.87 175.432 137.119 175.867C137.276 176.14 137.397 176.477 137.401 176.787C137.425 178.83 137.405 180.873 137.423 182.916C137.426 183.242 137.614 183.569 137.604 183.893C137.587 184.453 137.519 185.018 137.404 185.567C137.248 186.32 137.175 187.147 136.799 187.785C136.297 188.637 136.017 189.466 136.102 190.441C136.121 190.661 136.085 190.909 135.997 191.111C135.482 192.296 135.021 193.484 135.185 194.823C135.215 195.073 135.101 195.346 135.033 195.602C134.972 195.835 134.818 196.06 134.816 196.29C134.797 198.072 134.81 199.854 134.8 201.636C134.798 201.858 134.723 202.079 134.674 202.299C134.591 202.677 134.413 203.059 134.438 203.429C134.465 203.838 134.814 204.248 134.779 204.635C134.68 205.743 134.513 206.853 134.262 207.937C134.12 208.552 133.739 209.109 133.512 209.709C133.419 209.955 133.55 210.356 133.401 210.497C133.075 210.803 133.113 211.141 133.111 211.499C133.108 211.933 133.112 212.368 133.11 212.803C133.107 213.305 133.072 213.749 132.767 214.234C132.427 214.775 132.283 215.489 132.221 216.143C132.145 216.947 131.827 217.595 131.348 218.202C131.193 218.397 131.049 218.601 130.893 218.795C130.323 219.501 130.596 220.441 130.172 221.242C129.861 221.83 129.838 222.718 129.81 223.399C129.765 224.439 129.238 225.457 129.58 226.519C129.61 226.611 129.532 226.758 129.468 226.856C129.023 227.538 129.02 228.326 129.375 228.948C129.775 229.651 129.608 230.354 129.709 231.052C129.733 231.217 129.681 231.466 129.567 231.566C129.132 231.948 129.235 232.441 129.185 232.919C129.148 233.274 128.983 233.615 128.886 233.965C128.725 234.551 128.496 235.131 128.432 235.728C128.314 236.841 128.648 238.008 127.909 239.042C127.71 239.321 127.7 239.733 127.593 240.08C127.438 240.58 127.249 241.071 127.117 241.577C126.922 242.326 126.806 243.097 126.578 243.834C126.353 244.561 126.11 245.305 125.725 245.952C125.413 246.476 125.437 246.983 125.413 247.524C125.385 248.159 125.544 248.936 125.237 249.394C124.741 250.134 125.013 250.985 124.573 251.75C124.242 252.325 124.306 253.223 124.18 253.972C124.026 254.892 124.371 255.896 124.508 256.862C124.516 256.914 124.591 256.961 124.642 257.001C125.399 257.586 126.156 258.171 126.918 258.749C126.96 258.781 127.047 258.745 127.11 258.756C127.928 258.897 128.759 258.989 129.559 259.2C130.239 259.38 130.85 259.994 131.604 259.409C131.631 259.388 131.69 259.401 131.732 259.407C132.378 259.493 133.027 259.676 133.667 259.645C134.632 259.598 135.438 259.88 136.251 260.366C136.933 260.774 137.666 261.114 138.543 260.995C138.944 260.941 139.396 261.101 139.797 261.241C140.612 261.527 141.407 261.866 142.211 262.183C142.285 262.212 142.363 262.279 142.432 262.27C143.636 262.12 144.847 261.849 145.954 262.65C146.055 262.722 146.25 262.666 146.401 262.666C147.749 262.667 149.096 262.663 150.444 262.67C150.628 262.671 150.815 262.708 150.994 262.755C151.346 262.846 151.69 263.027 152.043 263.042C152.627 263.065 153.225 262.907 153.801 262.972C154.503 263.052 155.19 263.272 155.879 263.452C156.544 263.625 157.231 263.758 157.857 264.027C158.831 264.448 159.791 264.844 160.882 264.757C161.091 264.741 161.327 264.728 161.512 264.805C162.588 265.25 163.651 265.727 164.722 266.185C164.962 266.288 165.228 266.335 165.458 266.454C165.835 266.65 166.253 266.823 166.547 267.114C167.107 267.668 167.799 267.946 168.474 268.298C169.045 268.595 169.629 268.572 170.206 268.701C170.958 268.871 171.723 269.178 172.361 269.607C172.939 269.996 173.506 269.95 174.109 269.972C174.272 269.979 174.437 270.012 174.595 270.054C174.946 270.149 175.292 270.261 175.642 270.359C175.896 270.431 176.164 270.465 176.405 270.565C176.927 270.781 177.416 270.94 177.927 270.506C178.045 270.405 178.327 270.46 178.522 270.498C178.839 270.559 179.147 270.667 179.459 270.751C179.753 270.829 180.08 270.844 180.339 270.985C181.728 271.733 183.1 272.506 184.756 272.453C184.932 272.448 185.118 272.515 185.287 272.58C185.943 272.833 186.597 273.091 187.245 273.362C188.061 273.701 188.87 274.057 189.683 274.402C189.905 274.496 190.146 274.674 190.355 274.646C191.149 274.54 191.731 275 192.372 275.309C193.397 275.804 194.332 276.57 195.589 276.364C195.706 276.345 195.845 276.372 195.955 276.419C196.82 276.796 197.68 277.187 198.544 277.567C198.93 277.736 199.327 278.04 199.71 278.027C200.904 277.983 201.703 278.806 202.811 279.228ZM288.291 286.204C288.566 285.919 288.375 285.781 288.109 285.763C287.958 285.753 287.796 285.896 287.639 285.97C287.835 286.07 288.03 286.17 288.291 286.204Z"
            fill="#3C3E5A" />
        <path
            d="M230.098 167.504C230.895 168.206 231.507 168.981 231.896 169.935C232.009 170.214 232.342 170.401 232.465 170.678C232.725 171.264 232.926 171.879 233.126 172.49C233.359 173.199 233.551 173.921 233.785 174.63C234.12 175.642 234.472 176.648 234.83 177.652C234.89 177.821 234.991 177.988 235.113 178.119C235.741 178.794 236.137 179.534 236.156 180.504C236.166 181.032 236.723 181.515 236.511 182.099C236.059 183.345 236.189 184.823 234.99 185.778C234.449 186.209 233.996 186.749 233.507 187.244C232.909 187.848 232.222 188.251 231.353 188.352C231.048 188.387 230.709 188.536 230.481 188.74C229.894 189.262 229.205 189.065 228.547 189.13C228.211 189.163 227.887 189.312 227.558 189.41C227.462 189.439 227.371 189.489 227.273 189.508C226.389 189.685 225.503 189.849 224.622 190.038C224.41 190.083 224.191 190.173 224.016 190.298C223.184 190.894 222.237 190.804 221.294 190.831C220.926 190.842 220.566 191.054 220.198 191.158C219.944 191.231 219.682 191.325 219.423 191.328C217.902 191.344 216.381 191.336 214.86 191.336C212.592 191.336 210.324 191.344 208.057 191.326C207.716 191.324 207.378 191.181 207.034 191.133C206.863 191.108 206.675 191.123 206.507 191.166C205.729 191.367 205.025 191.441 204.233 191C203.731 190.72 202.99 190.882 202.361 190.806C202.001 190.763 201.651 190.637 201.295 190.555C201.075 190.504 200.842 190.4 200.634 190.435C199.856 190.564 199.203 190.246 198.57 189.894C197.825 189.479 197.089 189.038 196.389 188.551C195.608 188.007 194.899 187.358 194.109 186.828C193.51 186.426 192.85 186.1 192.187 185.809C190.745 185.177 189.398 184.428 188.384 183.178C188.112 182.842 187.753 182.577 187.472 182.248C186.858 181.53 186.194 180.839 185.697 180.046C185.377 179.535 185.319 178.86 185.14 178.26C185.077 178.048 185.046 177.808 184.924 177.635C184.515 177.059 184.03 176.535 183.65 175.942C182.883 174.745 182.176 173.51 181.423 172.304C181.182 171.918 180.87 171.577 180.602 171.207C180.538 171.12 180.519 171 180.479 170.895C180.582 170.889 180.699 170.845 180.784 170.881C182.118 171.446 183.411 172.021 184.565 172.986C185.204 173.521 185.925 174.279 186.95 174.256C187.004 174.255 187.067 174.296 187.111 174.335C188.117 175.206 189.127 176.071 190.121 176.956C190.79 177.552 191.382 178.25 192.103 178.771C193.072 179.473 194.133 180.049 195.154 180.68C195.172 180.691 195.186 180.709 195.2 180.725C196.519 182.24 198.468 182.691 200.122 183.639C200.84 184.049 201.577 184.427 202.309 184.813C202.432 184.877 202.58 184.95 202.709 184.938C203.867 184.833 204.889 185.271 205.919 185.697C206.068 185.758 206.257 185.727 206.428 185.727C208.275 185.729 210.122 185.728 211.97 185.728C212.455 185.728 212.941 185.728 213.426 185.728C213.535 185.728 213.678 185.774 213.747 185.722C214.861 184.886 216.131 185.553 217.307 185.337C218.647 186.135 220.112 185.604 221.515 185.698C222.027 185.733 222.576 185.464 223.082 185.267C223.999 184.912 224.897 184.506 225.803 184.124C225.896 184.085 225.996 184.034 226.091 184.038C226.604 184.059 227.039 183.947 227.511 183.67C228.212 183.258 229.022 183.026 229.79 182.731C230.634 182.406 230.939 181.485 230.522 180.693C230.091 179.877 229.585 179.055 229.384 178.173C229.087 176.875 228.629 175.666 228.052 174.48C227.771 173.904 227.613 173.267 227.322 172.698C226.852 171.78 226.302 170.905 225.814 169.996C225.136 168.731 224.431 167.454 223.658 166.279C222.953 165.208 222.611 163.864 221.497 163.03C221.127 162.754 220.99 162.171 220.741 161.731C220.421 161.168 220.072 160.62 219.778 160.043C219.505 159.507 219.286 158.944 219.047 158.391C218.912 158.077 218.783 157.761 218.655 157.444C218.017 155.866 217.25 154.397 215.964 153.2C214.961 152.267 214.069 151.194 213.244 150.096C212.489 149.091 211.952 147.921 211.202 146.912C210.608 146.112 209.993 145.288 208.978 144.892C208.55 144.725 208.217 144.327 207.822 144.061C207.23 143.663 206.623 143.286 206.02 142.905C204.446 141.912 203.272 140.479 201.933 139.225C201.357 138.685 200.76 137.985 200.058 137.806C199.217 137.59 198.872 136.981 198.301 136.543C197.881 136.222 197.4 135.788 196.745 135.905C196.645 135.923 196.518 135.832 196.414 135.773C195.304 135.146 194.201 134.507 193.083 133.894C192.931 133.81 192.712 133.826 192.525 133.831C191.93 133.849 191.414 133.725 190.866 133.412C190.324 133.102 189.622 133.074 188.992 132.913C188.679 132.833 188.376 132.71 188.061 132.646C187.735 132.581 187.338 132.432 187.081 132.552C186.629 132.763 186.021 132.795 185.833 133.448C185.611 134.219 184.92 134.821 185 135.715C185.006 135.785 184.86 135.869 184.783 135.946C184.466 136.261 184.129 136.531 184.201 137.088C184.23 137.314 183.967 137.589 183.813 137.825C183.22 138.733 182.608 139.628 182.028 140.544C181.949 140.668 182.031 140.886 182.009 141.056C181.861 142.174 182.373 143.365 181.628 144.421C181.567 144.508 181.62 144.676 181.62 144.806C181.62 146.001 181.62 147.197 181.62 148.392C181.62 148.522 181.669 148.68 181.613 148.779C180.838 150.171 181.38 151.676 181.24 153.121C181.188 153.655 181.127 154.22 181.537 154.691C181.605 154.769 181.611 154.996 181.547 155.075C180.984 155.772 181.256 156.44 181.453 157.196C181.63 157.875 181.518 158.637 181.478 159.36C181.459 159.718 181.264 160.067 181.242 160.426C181.211 160.933 181.279 161.446 180.84 161.831C180.8 161.866 180.785 161.939 180.773 161.997C180.619 162.737 180.427 163.474 180.33 164.222C180.261 164.756 180.401 165.317 179.996 165.787C179.916 165.879 179.906 166.074 179.932 166.208C180.069 166.918 179.556 167.405 179.322 167.981C179.247 168.166 178.88 168.399 178.735 168.35C178.525 168.278 178.243 167.961 178.255 167.765C178.314 166.795 177.515 166.188 177.309 165.34C177.259 165.131 177.04 164.953 177.02 164.748C176.947 164.008 176.372 163.402 176.508 162.593C176.549 162.35 176.265 162.058 176.145 161.781C175.706 160.768 175.271 159.753 174.841 158.736C174.622 158.218 174.085 157.792 174.425 157.104C174.482 156.989 174.22 156.732 174.138 156.527C174.048 156.303 173.985 156.067 173.929 155.832C173.834 155.435 173.743 155.037 173.668 154.636C173.488 153.688 173.025 152.669 173.227 151.807C173.428 150.952 173.319 150.072 173.568 149.287C174.333 146.874 173.804 144.428 173.863 142.005C173.879 141.348 173.947 140.67 173.963 140.007C173.976 139.429 174.299 138.856 174.494 138.285C174.533 138.172 174.674 138.069 174.666 137.97C174.584 136.895 175.529 136.18 175.637 135.168C175.661 134.95 175.843 134.708 176.019 134.553C176.879 133.794 177.543 132.904 177.948 131.827C177.969 131.77 177.962 131.696 177.997 131.652C178.577 130.935 179.181 130.236 179.74 129.503C180.136 128.983 180.474 128.418 180.838 127.873C180.997 127.635 181.102 127.311 181.323 127.172C182.214 126.614 183.138 126.108 184.055 125.591C185.215 124.939 186.465 124.725 187.782 124.823C187.958 124.836 188.176 124.803 188.315 124.706C188.905 124.293 189.471 124.401 190.049 124.713C190.154 124.769 190.279 124.829 190.391 124.824C191.265 124.787 192 125.24 192.797 125.474C193.099 125.563 193.43 125.547 193.74 125.619C193.992 125.677 194.308 125.724 194.462 125.896C195.012 126.511 195.751 126.753 196.469 127.053C196.618 127.115 196.732 127.257 196.865 127.358C197.029 127.484 197.181 127.642 197.366 127.721C198.16 128.059 198.955 128.4 199.769 128.686C200.322 128.881 200.906 128.987 201.475 129.133C201.495 129.138 201.519 129.144 201.53 129.158C202.186 129.963 203.266 130.016 204.082 130.585C204.732 131.039 205.35 131.6 206.243 131.822C206.87 131.977 207.312 132.886 207.828 133.466C207.92 133.569 207.941 133.74 208.039 133.831C208.953 134.675 209.556 135.741 210.182 136.792C210.277 136.952 210.398 137.101 210.527 137.235C210.84 137.562 211.185 137.86 211.48 138.201C212.154 138.981 212.861 139.742 213.45 140.583C213.956 141.307 214.291 142.147 214.751 142.907C215.164 143.59 215.661 144.223 216.09 144.898C216.46 145.481 216.894 146.057 216.823 146.806C216.787 147.187 216.928 147.439 217.194 147.703C217.988 148.495 218.626 149.395 219.066 150.444C219.199 150.759 219.574 150.969 219.828 151.238C220.577 152.029 221.39 152.733 221.889 153.771C222.441 154.921 223.266 155.937 223.922 157.04C224.343 157.748 224.672 158.51 225.046 159.246C225.128 159.408 225.195 159.593 225.32 159.716C225.633 160.023 225.953 160.299 225.839 160.816C225.815 160.925 225.949 161.067 226.006 161.196C226.242 161.729 227.006 162.016 226.746 162.784C226.733 162.821 226.798 162.891 226.837 162.937C227.496 163.73 228.19 164.497 228.806 165.321C229.179 165.818 229.43 166.406 229.741 166.951C229.842 167.128 229.957 167.298 230.098 167.504Z"
            fill="#3C3E5A" />
        <path
            d="M247.964 109.214C247.685 108.805 247.434 108.432 247.195 108.051C246.805 107.431 246.435 106.799 246.033 106.187C245.928 106.028 245.74 105.922 245.587 105.795C245.261 105.524 244.937 105.25 244.604 104.987C244.433 104.852 244.252 104.727 244.063 104.621C243.942 104.554 243.76 104.569 243.669 104.481C242.589 103.443 241.116 103.169 239.823 102.578C238.777 102.099 237.811 101.585 236.965 100.824C236.918 100.782 236.859 100.703 236.82 100.711C235.691 100.94 234.668 99.8673 233.514 100.444C232.717 99.9854 232.084 100.891 231.317 100.707C230.901 100.607 230.482 100.502 230.058 100.444C229.558 100.376 229.051 100.334 228.546 100.319C228 100.303 227.516 100.247 226.993 99.9591C226.391 99.6273 225.644 99.5062 224.945 99.42C224.238 99.333 223.511 99.375 222.796 99.4085C222.161 99.4383 221.456 99.1787 220.931 99.7879C220.904 99.8201 220.806 99.7896 220.741 99.7924C219.737 99.8354 218.734 99.8858 217.73 99.9138C217.605 99.9172 217.478 99.802 217.351 99.7417C217.471 99.6281 217.576 99.4871 217.715 99.4056C218.273 99.0786 218.914 98.8527 219.39 98.4359C220.196 97.7298 220.908 96.9728 222.095 96.8914C222.514 96.8627 222.973 96.5372 223.301 96.2273C223.987 95.578 224.736 95.2381 225.697 95.2023C226.317 95.1792 226.92 94.8461 227.546 94.7674C228.248 94.6791 228.966 94.7203 229.677 94.7065C230.239 94.6956 230.784 94.7565 231.321 94.4103C231.595 94.2339 232.174 94.1952 232.417 94.3701C233.171 94.9139 233.982 94.6588 234.765 94.6928C235.357 94.7185 235.917 94.7465 236.435 95.0863C236.61 95.2007 236.868 95.2081 237.091 95.2235C237.773 95.2705 238.406 95.313 239.099 95.5688C241.075 96.2981 242.917 97.2798 244.779 98.2276C245.179 98.4311 245.47 98.84 245.835 99.1221C246.208 99.4096 246.612 99.6563 247.001 99.9229C247.171 100.039 247.346 100.151 247.503 100.282C247.653 100.407 247.77 100.571 247.922 100.692C249.66 102.079 250.741 104.05 252.291 105.605C252.495 105.809 252.569 106.138 252.717 106.401C253.328 107.496 253.991 108.565 254.534 109.693C254.722 110.082 254.593 110.616 254.655 111.077C254.698 111.395 254.818 111.703 254.909 112.013C254.943 112.129 255.013 112.235 255.035 112.352C255.171 113.079 255.264 113.816 255.444 114.532C255.534 114.894 255.788 115.213 255.949 115.56C256.337 116.398 256.719 117.24 257.088 118.087C257.144 118.215 257.126 118.381 257.122 118.528C257.109 118.998 257.105 119.443 257.496 119.818C257.629 119.946 257.636 120.243 257.64 120.464C257.655 121.398 257.613 122.334 257.655 123.267C257.699 124.221 257.677 125.147 257.959 126.127C258.264 127.188 258.568 128.33 258.47 129.532C258.385 130.564 258.217 131.645 258.658 132.694C258.779 132.983 258.448 133.433 258.44 133.811C258.411 135.245 258.422 136.68 258.433 138.114C258.436 138.491 258.375 138.789 258.108 139.105C258.004 139.228 258.318 139.693 258.423 140.008C258.456 140.106 258.475 140.261 258.422 140.327C257.725 141.202 258.167 142.224 258.031 143.169C257.985 143.487 257.856 143.792 257.778 144.105C257.557 144.992 257.347 145.882 257.123 146.769C256.954 147.436 256.775 148.102 256.593 148.766C256.519 149.038 256.422 149.304 256.343 149.575C256.133 150.292 255.977 151.03 255.706 151.724C255.407 152.489 255.016 153.221 254.64 153.954C254.519 154.191 254.338 154.407 254.149 154.597C252.387 156.37 250.643 158.162 248.837 159.889C248.099 160.595 247.157 161.021 246.133 161.212C246.072 161.223 245.993 161.209 245.951 161.242C244.875 162.096 243.613 161.686 242.437 161.694C241.949 161.698 241.456 161.268 240.969 161.028C240.86 160.974 240.767 160.834 240.663 160.83C239.761 160.795 238.984 160.388 238.181 160.044C237.702 159.839 237.167 159.748 236.712 159.504C235.995 159.12 235.251 158.733 234.653 158.197C233.902 157.525 233.191 156.848 232.241 156.443C231.95 156.32 231.774 155.924 231.548 155.652C231.346 155.41 231.165 155.148 230.945 154.925C229.914 153.882 229.156 152.632 228.271 151.479C227.476 150.443 226.833 149.253 225.954 148.354C225.107 147.489 224.608 146.549 224.116 145.518C223.872 145.005 223.419 144.595 223.138 144.095C222.813 143.52 222.565 142.911 221.856 142.683C221.76 142.653 221.717 142.448 221.655 142.321C221.335 141.671 221.049 141.002 220.69 140.375C220.342 139.77 219.891 139.236 219.942 138.459C219.966 138.084 219.811 137.696 219.73 137.316C219.636 136.877 219.559 136.433 219.431 136.005C219.316 135.621 219.227 135.179 218.975 134.899C218.494 134.365 218.318 133.55 217.534 133.292C217.516 133.286 217.491 133.263 217.489 133.247C217.4 132.397 216.477 132.398 216.065 131.854C215.636 131.288 214.925 130.906 214.593 130.302C214.052 129.318 212.988 128.591 213.034 127.295C213.04 127.142 212.885 126.956 212.758 126.831C212.055 126.137 211.436 125.345 210.476 124.948C210.235 124.849 209.966 124.648 209.858 124.423C209.042 122.72 207.776 121.387 206.442 120.095C206.19 119.85 206.061 119.477 205.88 119.16C205.294 118.142 204.706 117.126 204.134 116.101C204.059 115.965 204.09 115.774 204.047 115.616C203.977 115.364 203.957 115.048 203.793 114.881C202.993 114.066 202.638 113.124 202.736 111.982C202.785 111.423 202.646 110.916 202.405 110.362C202.087 109.632 201.998 108.766 202.562 107.965C202.973 107.38 203.193 106.664 203.533 106.026C204.078 105.003 204.835 104.199 205.909 103.693C206.439 103.443 206.908 103.064 207.414 102.759C207.584 102.657 207.782 102.598 207.972 102.533C208.106 102.487 208.278 102.505 208.382 102.426C209.358 101.688 210.483 102.122 211.537 102.017C211.6 102.01 211.738 102.123 211.732 102.164C211.714 102.278 211.66 102.46 211.584 102.48C210.405 102.801 210.472 104.208 209.574 104.765C209.821 105.377 208.884 105.856 209.375 106.51C209.407 106.553 209.27 106.769 209.17 106.856C208.696 107.27 208.467 107.632 208.98 108.249C209.293 108.626 209.484 109.209 209.501 109.707C209.539 110.845 210.233 111.545 210.965 112.237C211.406 112.654 211.664 113.088 211.641 113.733C211.63 114.035 211.92 114.344 212.064 114.654C212.224 115 212.374 115.351 212.526 115.702C212.606 115.886 212.634 116.118 212.765 116.25C213.307 116.799 213.813 117.367 214.575 117.691C215.051 117.893 215.386 118.423 215.787 118.804C215.913 118.924 216.026 119.084 216.178 119.147C217.106 119.533 217.805 120.131 218.142 121.11C218.187 121.239 218.36 121.319 218.455 121.437C219.303 122.493 220.257 123.526 220.622 124.835C220.824 125.561 221.262 125.977 221.674 126.496C222.249 127.222 222.751 128.005 223.303 128.749C223.421 128.908 223.631 128.995 223.779 129.135C224.184 129.52 224.707 129.849 224.951 130.321C225.361 131.114 225.811 131.856 226.403 132.522C226.548 132.685 226.735 132.91 226.723 133.096C226.648 134.28 227.418 135.115 227.872 136.084C228.092 136.555 228.135 137.108 228.356 137.578C228.76 138.434 229.542 139.233 229.609 140.099C229.706 141.369 231.068 141.723 231.196 142.863C231.214 143.022 231.516 143.163 231.704 143.285C232.311 143.679 232.71 144.241 233.142 144.812C233.639 145.467 234.361 145.948 234.945 146.544C235.494 147.103 236.279 147.534 236.16 148.52C236.148 148.616 236.248 148.762 236.339 148.828C236.96 149.281 237.127 149.894 237.057 150.628C237.043 150.778 237.186 150.975 237.308 151.101C237.911 151.726 238.549 152.319 239.141 152.955C239.629 153.478 240.014 154.107 240.543 154.578C241.236 155.195 242.025 155.705 242.777 156.254C242.889 156.336 243.081 156.343 243.148 156.443C243.783 157.389 244.747 156.95 245.581 157.027C245.737 157.041 245.957 156.929 246.065 156.804C246.67 156.103 247.557 155.638 247.868 154.686C247.886 154.63 247.918 154.561 247.965 154.533C248.815 154.014 249.21 153.157 249.718 152.351C250.358 151.335 250.815 150.223 251.497 149.23C251.792 148.799 251.843 148.206 252.044 147.702C252.319 147.012 252.64 146.34 252.918 145.652C252.979 145.502 252.95 145.314 252.95 145.144C252.952 142.362 252.945 139.58 252.962 136.798C252.964 136.528 253.126 136.261 253.2 135.989C253.259 135.772 253.333 135.55 253.336 135.33C253.351 134.396 253.347 133.461 253.341 132.527C253.338 131.986 253.368 131.47 253.054 130.945C252.86 130.622 253.03 130.102 252.94 129.692C252.757 128.863 252.507 128.048 252.285 127.227C252.248 127.091 252.134 126.875 252.181 126.831C252.594 126.447 252.195 126.096 252.184 125.731C252.14 124.33 252.187 122.927 252.13 121.527C252.109 120.993 251.903 120.467 251.776 119.938C251.743 119.801 251.633 119.658 251.657 119.537C251.894 118.343 251.143 117.456 250.746 116.453C250.421 115.63 250.243 114.75 249.922 113.925C249.521 112.897 249.03 111.905 248.6 110.887C248.374 110.351 248.196 109.794 247.964 109.214Z"
            fill="#3C3E5A" />
        <path
            d="M195.41 209.559C195.351 208.462 195.716 207.581 196.451 206.811C197.06 206.174 197.606 205.478 198.201 204.827C198.313 204.703 198.532 204.683 198.683 204.587C199.792 203.876 200.931 203.229 201.915 202.314C202.818 201.474 203.885 200.807 204.893 200.084C205.357 199.751 205.828 199.411 206.342 199.175C206.869 198.932 207.473 198.861 208.005 198.627C209.074 198.158 210.202 198.342 211.298 198.205C211.757 198.147 212.157 198.049 212.589 198.242C212.661 198.274 212.769 198.271 212.846 198.243C213.545 197.989 214.24 197.725 214.937 197.466C215.407 197.291 215.87 197.088 216.352 196.949C217.324 196.667 218.307 196.418 219.286 196.162C219.504 196.105 219.738 196.008 219.947 196.041C220.779 196.173 221.416 195.729 222.101 195.398C222.297 195.303 222.536 195.254 222.755 195.255C223.346 195.259 223.935 195.293 224.42 194.857C224.479 194.804 224.553 194.739 224.626 194.73C225.744 194.593 226.863 194.384 227.984 194.366C228.617 194.356 229.14 194.127 229.595 193.835C229.939 193.614 230.235 193.554 230.594 193.552C230.985 193.551 231.387 193.494 231.765 193.564C232.63 193.723 233.266 193.214 233.978 192.907C234.254 192.788 234.553 192.663 234.846 192.651C235.714 192.618 236.584 192.634 237.453 192.641C237.973 192.645 238.508 192.54 238.942 193.006C239.047 193.119 239.373 193.013 239.595 193.034C239.905 193.063 240.236 193.057 240.515 193.171C241.873 193.722 243.207 194.336 244.572 194.867C245.024 195.042 245.549 195.019 246.032 195.127C246.221 195.169 246.386 195.32 246.561 195.421C246.404 195.494 246.226 195.655 246.092 195.624C244.98 195.37 244.322 196.229 243.53 196.692C243.044 196.976 242.626 197.253 242.038 197.37C241.285 197.52 240.585 197.937 239.86 198.231C239.19 198.502 238.487 198.709 237.852 199.046C237.31 199.332 236.78 199.429 236.18 199.449C235.877 199.459 235.596 199.793 235.283 199.932C234.384 200.332 233.487 200.741 232.564 201.079C231.901 201.321 231.195 201.445 230.514 201.644C230.345 201.693 230.153 201.791 230.051 201.927C229.732 202.355 229.325 202.423 228.816 202.437C227.763 202.464 226.698 202.245 225.654 202.656C225.328 202.784 224.89 202.622 224.503 202.596C224.429 202.59 224.343 202.573 224.282 202.601C222.91 203.226 221.544 203.863 220.17 204.482C219.97 204.572 219.731 204.573 219.518 204.64C219.289 204.712 218.949 204.753 218.868 204.914C218.617 205.411 218.215 205.422 217.766 205.421C217.037 205.42 216.363 205.478 215.643 205.808C214.977 206.113 214.229 206.496 213.382 206.349C212.854 206.257 212.296 206.304 211.755 206.339C211.057 206.383 210.393 206.335 209.667 206.647C209.083 206.898 208.294 206.85 207.708 207.257C207.397 207.473 207.211 207.863 206.911 208.102C206.514 208.418 206.016 208.615 205.64 208.95C204.907 209.604 204.201 210.294 203.536 211.017C202.967 211.636 203.145 212.444 203.138 213.194C203.132 213.868 203.174 214.544 203.128 215.215C203.05 216.374 203.475 217.389 203.929 218.408C204.371 219.398 204.677 220.471 205.252 221.374C205.967 222.496 206.411 223.81 207.477 224.701C207.629 224.828 207.772 225.018 207.823 225.205C208.351 227.143 209.469 228.906 210.483 230.375C211.475 231.813 212.855 232.835 213.922 234.161C214.613 235.018 215.169 235.985 215.78 236.907C216.368 237.792 216.99 238.658 217.524 239.576C218.47 241.205 219.803 242.422 221.431 243.308C221.932 243.58 222.562 243.614 223.133 243.757C223.31 243.802 223.542 243.789 223.655 243.899C223.962 244.197 224.243 244.228 224.62 244.033C224.759 243.961 224.985 244.07 225.173 244.079C225.392 244.089 225.622 244.118 225.83 244.069C226.121 243.999 226.426 243.91 226.672 243.749C227.356 243.302 228.235 243.402 228.891 242.768C229.604 242.079 230.535 241.62 231.346 241.026C231.589 240.848 231.759 240.563 231.94 240.31C232.069 240.131 232.132 239.901 232.273 239.734C232.661 239.276 233.109 238.941 233.2 238.209C233.276 237.603 233.897 237.083 234.191 236.483C234.499 235.854 234.709 235.177 234.953 234.518C235.052 234.254 235.119 233.978 235.218 233.715C235.411 233.206 235.879 232.8 235.752 232.167C235.727 232.043 235.873 231.876 235.957 231.739C236.322 231.151 236.687 230.562 237.064 229.981C237.266 229.67 237.521 229.391 237.701 229.07C238.019 228.504 238.28 227.949 238.398 227.26C238.56 226.312 238.508 225.268 238.823 224.447C239.167 223.55 239.113 222.694 239.292 221.833C239.469 220.982 239.932 220.192 240.239 219.364C240.624 218.327 240.977 217.279 241.346 216.236C241.386 216.123 241.419 215.998 241.491 215.907C242.038 215.218 242.614 214.551 243.14 213.847C243.429 213.46 243.663 213.025 243.881 212.591C244.396 211.567 244.887 210.531 245.388 209.499C245.871 208.504 246.347 207.505 246.843 206.516C246.928 206.346 247.098 206.218 247.228 206.071C247.372 206.241 247.55 206.393 247.647 206.586C247.727 206.744 247.731 206.951 247.732 207.136C247.737 208.961 247.724 210.787 247.744 212.612C247.748 212.999 247.869 213.383 247.934 213.769C247.947 213.843 247.973 213.92 247.962 213.991C247.891 214.417 247.719 214.848 247.753 215.264C247.844 216.36 247.503 217.285 246.924 218.194C246.652 218.621 246.604 219.186 246.426 219.679C246.303 220.018 246.189 220.385 245.97 220.658C245.579 221.144 245.703 221.69 245.634 222.223C245.572 222.7 245.384 223.16 245.259 223.629C245.206 223.825 245.146 224.025 245.132 224.226C245.102 224.642 245.142 225.016 244.815 225.414C244.519 225.774 244.428 226.344 244.358 226.838C244.224 227.775 243.532 228.604 243.821 229.62C243.832 229.658 243.835 229.723 243.813 229.744C242.75 230.734 242.731 232.262 241.907 233.399C241.302 234.234 240.943 235.25 240.503 236.199C240.335 236.562 240.298 236.988 240.117 237.342C239.776 238.008 239.477 238.741 238.975 239.27C238.107 240.185 237.973 241.585 236.862 242.309C236.827 242.332 236.788 242.364 236.771 242.401C236.086 243.951 234.563 244.754 233.554 246.014C232.641 247.154 231.407 247.788 230.129 248.424C228.853 249.059 227.489 249.472 226.141 249.416C225.306 249.381 224.247 249.581 223.62 249.163C222.891 248.678 222.106 248.922 221.372 248.542C220.725 248.206 219.91 247.971 219.225 247.615C218.357 247.165 217.634 246.43 216.757 246.007C215.728 245.512 215.134 244.587 214.3 243.91C213.414 243.191 212.901 242.225 212.414 241.233C211.834 240.052 211.132 238.957 210.153 238.062C209.327 237.308 208.646 236.477 208.239 235.398C208.013 234.801 207.594 234.236 207.141 233.776C206.515 233.139 206.198 232.325 205.707 231.634C204.411 229.814 203.637 227.743 202.593 225.806C202.583 225.787 202.564 225.773 202.547 225.759C201.471 224.892 201.19 223.533 200.474 222.456C199.988 221.726 199.345 221.079 198.901 220.294C198.73 219.991 198.495 219.725 198.315 219.427C197.874 218.698 197.435 217.968 197.022 217.223C196.888 216.981 196.84 216.692 196.746 216.426C196.672 216.218 196.642 215.958 196.499 215.817C195.662 214.995 195.342 214.018 195.433 212.857C195.488 212.144 195.444 211.424 195.442 210.706C195.441 210.334 194.938 209.99 195.41 209.559Z"
            fill="#3C3E5A" />
        <path
            d="M300.418 254.842C300.815 254.119 301.286 253.494 301.59 252.795C301.951 251.966 302.425 251.16 302.392 250.187C302.38 249.84 302.574 249.487 302.667 249.135C302.709 248.977 302.759 248.815 302.761 248.654C302.771 247.959 302.852 247.249 302.74 246.572C302.634 245.929 302.632 245.331 302.741 244.694C302.795 244.384 302.592 244.031 302.509 243.696C302.46 243.498 302.357 243.289 302.385 243.101C302.506 242.286 302.162 241.609 301.825 240.914C301.66 240.573 301.578 240.191 301.463 239.826C301.445 239.767 301.476 239.684 301.445 239.639C301.035 239.047 300.606 238.467 300.207 237.868C299.743 237.173 299.303 236.461 298.853 235.757C298.842 235.74 298.833 235.721 298.82 235.705C298.175 234.886 297.613 233.979 296.863 233.271C295.997 232.453 295.593 231.411 295.074 230.412C295.056 230.377 295.09 230.303 295.069 230.286C293.98 229.391 293.812 227.871 292.707 226.945C291.005 225.519 289.314 224.048 287.821 222.412C286.986 221.496 286.112 220.58 285.379 219.583C284.984 219.046 284.534 218.554 284.16 218.01C283.836 217.541 283.686 216.951 283.468 216.412C283.4 216.244 283.416 216.003 283.3 215.901C282.658 215.331 282.502 214.462 282.01 213.829C281.184 212.766 280.719 211.486 279.711 210.509C279.039 209.859 278.401 209.019 278.221 207.951C278.114 207.317 277.713 206.734 277.461 206.122C277.406 205.989 277.402 205.826 277.413 205.68C277.417 205.632 277.596 205.549 277.601 205.556C277.696 205.676 277.768 205.813 277.86 205.935C277.972 206.084 278.07 206.268 278.221 206.357C279.442 207.076 280.637 207.855 281.914 208.459C282.835 208.894 283.623 209.428 284.365 210.121C284.885 210.607 285.652 210.819 286.221 211.264C287.13 211.975 288.097 212.658 288.555 213.798C288.615 213.946 288.696 214.104 288.81 214.211C289.659 215 290.226 215.984 290.806 216.969C290.958 217.227 291.328 217.356 291.596 217.547C291.782 217.678 291.982 217.795 292.144 217.951C292.63 218.418 293.139 218.868 293.569 219.383C294.655 220.684 295.703 222.016 296.767 223.336C296.794 223.369 296.816 223.416 296.851 223.43C298.309 224.035 298.581 225.627 299.51 226.681C300.485 227.789 301.172 229.149 301.992 230.395C302.074 230.519 302.215 230.604 302.31 230.721C302.836 231.371 303.36 232.023 303.874 232.682C303.93 232.754 303.938 232.879 303.936 232.979C303.921 233.785 304.486 234.316 304.834 234.957C305.321 235.857 305.738 236.797 306.148 237.736C306.365 238.232 306.517 238.758 306.673 239.278C306.784 239.648 306.853 240.03 306.936 240.408C306.95 240.47 306.922 240.544 306.941 240.603C307.208 241.426 307.485 242.246 307.746 243.072C307.808 243.266 307.833 243.476 307.848 243.681C307.888 244.216 307.711 244.791 308.202 245.237C308.281 245.309 308.241 245.522 308.241 245.67C308.244 246.822 308.248 247.973 308.24 249.125C308.237 249.54 308.375 250.003 307.908 250.294C307.869 250.318 307.863 250.404 307.852 250.463C307.72 251.191 307.758 252.012 307.42 252.625C306.941 253.491 306.742 254.499 305.991 255.247C305.501 255.735 305.223 256.436 304.853 257.044C304.758 257.199 304.686 257.369 304.584 257.519C304.068 258.284 303.549 259.047 303.024 259.806C302.929 259.945 302.814 260.072 302.695 260.191C301.945 260.947 301.187 261.695 300.438 262.452C299.247 263.656 297.756 264.39 296.279 265.157C295.716 265.449 295.144 265.474 294.549 265.571C293.936 265.671 293.377 266.078 292.779 266.311C292.254 266.516 291.688 266.621 291.176 266.849C290.186 267.29 289.135 267.506 288.116 267.821C287.14 268.122 286.167 267.92 285.266 268.174C282.549 268.94 279.799 268.319 277.075 268.534C275.789 267.88 274.399 268.286 273.068 268.12C272.318 268.027 271.599 267.694 270.864 267.476C270.688 267.424 270.499 267.351 270.326 267.37C269.789 267.427 269.411 267.2 269.032 266.843C268.812 266.636 268.451 266.585 268.161 266.446C267.436 266.1 266.555 266.144 265.957 265.455C265.365 264.773 264.703 264.149 264.043 263.53C263.044 262.592 262.323 261.464 261.683 260.268C261.187 259.34 260.614 258.453 260.135 257.517C259.853 256.967 259.683 256.358 259.473 255.772C259.195 254.996 258.921 254.218 258.658 253.437C258.599 253.263 258.563 253.073 258.563 252.891C258.557 250.261 258.559 247.632 258.557 245.002C258.556 244.812 258.603 244.563 258.505 244.443C257.89 243.691 258.082 242.809 258.027 241.959C257.989 241.362 257.907 240.759 257.765 240.179C257.586 239.444 257.527 238.75 257.918 238.06C258.014 237.891 258.02 237.662 258.033 237.458C258.085 236.651 257.943 235.773 258.219 235.055C258.481 234.372 258.383 233.677 258.588 233.055C259.355 230.734 258.735 228.368 258.957 226.037C258.979 225.802 259.104 225.578 259.169 225.345C259.234 225.11 259.326 224.872 259.333 224.633C259.355 223.917 259.346 223.199 259.339 222.482C259.334 221.874 259.29 221.267 259.723 220.746C259.828 220.62 259.852 220.399 259.857 220.221C259.872 219.569 259.829 218.915 259.874 218.266C259.905 217.822 260.045 217.385 260.139 216.945C260.173 216.786 260.232 216.631 260.251 216.471C260.37 215.437 259.948 214.337 260.637 213.368C260.698 213.281 260.645 213.113 260.645 212.983C260.645 211.896 260.652 210.809 260.642 209.723C260.637 209.212 260.626 208.726 261.022 208.307C261.153 208.169 261.156 207.879 261.161 207.657C261.176 206.853 261.128 206.046 261.192 205.247C261.21 205.03 261.509 204.721 261.734 204.662C262.136 204.558 262.313 204.838 262.347 205.257C262.481 206.898 262.929 208.513 262.732 210.181C262.729 210.202 262.722 210.231 262.733 210.245C263.668 211.511 263.089 212.969 263.261 214.331C263.295 214.606 263.492 214.867 263.501 215.138C263.521 215.765 263.501 216.398 263.44 217.023C263.397 217.455 263.033 218.062 263.204 218.272C263.856 219.074 263.17 219.805 263.25 220.552C263.269 220.732 263.18 220.966 263.265 221.088C263.799 221.851 263.6 222.711 263.65 223.541C263.692 224.239 263.427 224.992 264.022 225.609C264.119 225.711 264.02 225.989 264.038 226.183C264.099 226.816 263.819 227.515 264.415 228.054C264.491 228.122 264.427 228.346 264.427 228.498C264.427 229.932 264.415 231.367 264.435 232.801C264.44 233.146 264.688 233.543 264.58 233.823C264.345 234.433 264.818 234.774 264.942 235.239C264.966 235.328 264.934 235.455 264.883 235.536C264.033 236.877 264.58 238.366 264.433 239.781C264.425 239.867 264.496 239.978 264.56 240.05C265.009 240.558 264.838 241.202 264.976 241.774C265.207 242.726 265.612 243.636 265.95 244.561C266.039 244.806 266.305 245.125 266.228 245.27C265.63 246.391 266.559 247.435 266.352 248.484C266.192 249.295 266.932 249.91 266.644 250.687C267.268 251.47 266.892 252.41 267.061 253.257C267.188 253.893 267.582 254.472 267.811 255.092C268.139 255.979 268.379 256.901 268.752 257.767C268.916 258.148 269.301 258.441 269.61 258.75C269.863 259.003 270.26 259.169 270.399 259.465C270.592 259.876 270.879 260.02 271.251 260.208C272.064 260.619 272.79 261.21 273.615 261.588C274.452 261.971 275.184 262.544 276.159 262.711C276.92 262.841 277.612 263.374 278.334 263.73C278.443 263.784 278.538 263.889 278.65 263.908C279.608 264.067 280.622 264.474 281.513 264.29C282.449 264.096 283.376 264.086 284.294 263.935C284.964 263.826 285.577 263.166 286.223 263.153C287.46 263.127 288.257 262.036 289.543 262.083C290.315 262.11 291.107 261.519 291.895 261.218C292.158 261.117 292.438 261.061 292.705 260.968C292.912 260.895 293.18 260.85 293.301 260.698C293.733 260.156 294.282 260.071 294.933 260.026C295.384 259.995 295.847 259.711 296.246 259.451C296.836 259.067 297.391 258.622 297.931 258.168C298.643 257.571 299.259 256.897 299.649 256.025C299.831 255.619 300.157 255.278 300.418 254.842Z"
            fill="#3C3E5A" />
        <path
            d="M276.685 115.049C277.341 114.744 277.91 114.381 278.529 114.152C279.192 113.907 279.896 113.762 280.592 113.626C280.926 113.56 281.288 113.642 281.632 113.609C282.793 113.498 283.832 113.753 284.848 114.365C285.398 114.697 286.126 114.726 286.762 114.927C287.007 115.005 287.256 115.145 287.442 115.322C288.134 115.981 288.783 116.686 289.485 117.335C289.796 117.622 290.211 117.793 290.548 118.056C290.74 118.205 290.859 118.443 291.031 118.621C291.555 119.16 292.081 119.699 292.621 120.221C292.972 120.56 293.338 120.886 293.721 121.187C294.026 121.426 294.367 121.617 294.692 121.83C294.743 121.863 294.802 121.889 294.845 121.931C295.471 122.554 296.088 123.187 296.722 123.803C297.88 124.927 298.796 126.212 299.376 127.725C299.39 127.762 299.415 127.797 299.441 127.828C300.07 128.589 300.688 129.361 301.334 130.108C302.306 131.231 303.349 132.298 304.26 133.469C304.706 134.042 304.92 134.796 305.244 135.466C305.612 136.226 305.988 136.983 306.354 137.744C306.432 137.907 306.553 138.089 306.536 138.25C306.433 139.219 306.786 140.013 307.301 140.813C307.606 141.288 307.64 141.928 307.862 142.466C308.047 142.911 308.307 143.331 308.574 143.735C309.226 144.726 309.913 145.674 309.97 146.951C309.991 147.434 310.396 147.894 310.591 148.377C310.711 148.676 310.76 149.002 310.852 149.313C310.944 149.621 311.057 149.924 311.148 150.233C311.194 150.39 311.238 150.555 311.237 150.716C311.235 151.553 311.28 152.341 311.664 153.151C312.004 153.868 312.042 154.742 312.142 155.556C312.21 156.112 312.113 156.688 312.168 157.248C312.21 157.665 312.376 158.07 312.489 158.48C312.499 158.518 312.547 158.554 312.543 158.586C312.35 159.913 312.775 161.152 313.049 162.417C313.108 162.688 312.941 163.011 312.861 163.306C312.766 163.656 312.568 164 312.561 164.349C312.537 165.533 312.107 166.6 311.547 167.582C311.056 168.442 310.391 169.219 309.707 169.943C309.381 170.288 308.827 170.413 308.387 170.658C308.12 170.806 307.872 170.991 307.617 171.162C307.447 171.276 307.295 171.439 307.108 171.506C306.558 171.703 305.986 171.839 305.439 172.044C304.819 172.276 304.212 172.545 303.61 172.822C303.153 173.032 302.726 173.31 302.263 173.505C301.709 173.74 301.077 173.832 300.575 174.142C299.783 174.629 298.949 174.503 298.117 174.51C296.813 174.521 295.504 174.45 294.206 174.536C293.42 174.588 292.816 174.215 292.138 173.995C291.293 173.721 290.519 173.271 289.596 173.182C288.97 173.122 288.37 172.805 287.755 172.611C287.524 172.538 287.282 172.427 287.05 172.437C285.994 172.479 285.093 172.163 284.332 171.419C284.217 171.306 283.977 171.333 283.824 171.245C283.691 171.168 283.599 171.02 283.489 170.903C283.596 170.846 283.71 170.729 283.808 170.741C284.533 170.83 285.032 170.329 285.622 170.071C285.66 170.055 285.688 169.982 285.715 169.985C286.515 170.078 287.185 169.584 287.906 169.478C288.818 169.344 289.639 169.038 290.482 168.74C290.635 168.686 290.803 168.65 290.965 168.649C292.225 168.642 293.499 168.534 294.742 168.685C295.508 168.779 296.215 169.028 296.97 168.655C297.309 168.487 297.699 168.418 298.07 168.323C298.387 168.242 298.708 168.158 299.032 168.13C299.528 168.089 300.063 168.232 300.451 167.769C300.472 167.743 300.528 167.728 300.564 167.734C301.736 167.929 302.507 167.173 303.343 166.568C303.409 166.52 303.476 166.437 303.545 166.434C304.741 166.376 305.473 165.516 306.251 164.798C306.777 164.313 306.931 163.598 307.115 162.878C307.367 161.895 307.323 161.032 307.117 160.05C306.903 159.03 307.082 157.93 307.059 156.866C307.054 156.611 306.982 156.321 306.841 156.116C306.636 155.818 306.513 155.592 306.495 155.171C306.466 154.449 306.1 153.744 305.899 153.025C305.708 152.341 305.505 151.656 305.388 150.958C305.31 150.493 305.363 150.004 305.376 149.526C305.41 148.165 304.875 146.975 304.254 145.817C303.508 144.429 302.754 143.046 301.977 141.675C301.644 141.086 301.587 140.432 301.401 139.819C301.104 138.842 300.959 137.754 300.128 136.95C299.629 136.467 299.386 135.732 298.945 135.175C298.037 134.028 297.65 132.556 296.534 131.525C296.049 131.078 295.813 130.361 295.462 129.768C295.431 129.715 295.398 129.662 295.358 129.616C294.437 128.562 293.562 127.462 292.578 126.472C291.701 125.589 290.752 124.758 289.738 124.042C289.167 123.638 288.363 123.584 287.729 123.249C286.465 122.583 285.175 122.104 283.719 122.22C283.633 122.227 283.507 122.259 283.464 122.215C282.852 121.597 281.965 121.848 281.274 121.514C280.779 121.274 280.561 121.707 280.495 121.919C280.235 122.749 279.582 123.389 279.514 124.333C279.469 124.961 279.038 125.557 278.8 126.175C278.655 126.551 278.534 126.937 278.43 127.326C278.208 128.162 277.539 128.642 276.954 129.178C276.014 130.039 275.474 131.047 275.643 132.354C275.745 133.142 275.079 133.663 274.952 134.346C274.745 135.452 273.919 136.318 273.902 137.519C273.893 138.178 273.431 138.828 273.18 139.485C272.994 139.973 272.839 140.473 272.638 140.955C272.23 141.938 271.801 142.912 271.382 143.891C271.359 143.946 271.339 144.009 271.34 144.068C271.362 145.063 270.748 145.92 270.632 146.818C270.501 147.836 270.05 148.631 269.689 149.514C269.333 150.388 269.008 151.293 268.826 152.215C268.684 152.938 268.155 153.554 268.309 154.372C268.361 154.648 268.037 154.982 267.929 155.305C267.783 155.746 267.689 156.204 267.55 156.648C267.506 156.79 267.391 156.909 267.309 157.039C267.217 156.896 267.046 156.753 267.049 156.612C267.058 156.057 267.158 155.502 267.159 154.948C267.169 150.166 267.161 145.385 267.176 140.604C267.177 140.313 267.376 140.029 267.418 139.733C267.491 139.211 267.487 138.679 267.565 138.159C267.619 137.803 267.763 137.46 267.857 137.109C267.9 136.951 267.941 136.787 267.944 136.624C267.954 136.038 267.948 135.451 267.948 134.864C267.948 134.342 267.873 133.807 267.965 133.302C268.11 132.508 268.359 131.802 268.019 130.923C267.836 130.45 268.381 129.695 268.599 129.068C268.685 128.821 268.804 128.582 268.855 128.328C269.107 127.081 269.357 125.847 270.295 124.875C270.617 124.542 270.848 124.114 271.084 123.707C271.909 122.29 272.732 120.871 273.519 119.434C273.669 119.16 273.628 118.788 273.721 118.475C274.073 117.286 275.107 116.637 275.885 115.787C276.119 115.531 276.374 115.294 276.685 115.049Z"
            fill="#3C3E5A" />
        <path
            d="M316.36 185.434C316.989 185.868 317.568 186.255 318.35 186.266C319.186 186.278 320.435 187.134 320.765 187.91C320.843 188.095 320.93 188.294 321.066 188.435C321.818 189.208 322.608 189.947 323.337 190.74C323.556 190.978 323.628 191.353 323.76 191.667C323.845 191.871 323.922 192.079 323.994 192.287C324.053 192.459 324.141 192.634 324.145 192.809C324.161 193.613 324.149 194.417 324.153 195.221C324.156 195.72 324.073 196.229 324.445 196.669C324.547 196.791 324.535 197.026 324.539 197.21C324.551 197.688 324.353 198.302 324.579 198.619C325.24 199.544 324.887 200.781 325.641 201.651C325.795 201.829 325.773 202.154 325.85 202.406C325.961 202.772 326.084 203.135 326.209 203.496C326.242 203.59 326.352 203.686 326.338 203.764C326.162 204.715 326.723 205.552 326.751 206.463C326.788 207.657 326.77 208.853 326.757 210.048C326.749 210.753 326.832 211.448 326.425 212.132C326.224 212.47 326.418 213.024 326.356 213.47C326.304 213.844 326.145 214.204 326.021 214.566C325.859 215.042 325.735 215.539 325.505 215.981C325.149 216.664 324.666 217.282 324.328 217.973C323.575 219.51 322.141 220.418 321.017 221.606C320.668 221.975 319.994 222.035 319.472 222.243C319.323 222.303 319.14 222.353 319.049 222.468C318.663 222.952 318.165 223.045 317.579 223.04C317.202 223.037 316.825 223.195 316.448 223.285C316.093 223.369 315.741 223.513 315.382 223.533C314.667 223.573 313.946 223.583 313.232 223.53C312.861 223.502 312.5 223.318 312.136 223.199C311.561 223.012 310.982 222.839 310.416 222.628C309.608 222.327 308.8 222.018 308.009 221.673C307.125 221.288 306.348 220.733 305.36 220.49C304.453 220.268 303.659 219.583 302.818 219.095C302.624 218.983 302.422 218.716 302.26 218.743C301.616 218.85 301.333 218.389 300.976 218.036C300.249 217.318 299.55 216.571 298.804 215.875C297.229 214.406 296.376 212.489 295.463 210.606C295.41 210.497 295.366 210.384 295.303 210.281C294.798 209.469 294.097 208.712 293.848 207.828C293.67 207.193 293.349 206.722 293.052 206.192C292.947 206.003 292.843 205.762 292.868 205.56C292.977 204.673 292.458 203.995 292.211 203.221C291.995 202.542 292.132 201.751 292.114 201.009C292.221 201.014 292.371 200.974 292.429 201.03C292.783 201.371 293.087 201.78 293.683 201.648C293.774 201.628 293.9 201.742 294.001 201.807C295.232 202.603 296.339 203.538 297.347 204.608C297.874 205.168 298.515 205.621 299.1 206.126C299.161 206.178 299.194 206.261 299.245 206.325C299.732 206.924 300.139 207.624 300.73 208.092C301.324 208.561 301.451 209.244 301.848 209.789C302.561 210.77 302.914 212.071 304.27 212.471C304.325 212.487 304.361 212.562 304.41 212.605C305.401 213.466 306.351 214.38 307.398 215.166C308.016 215.63 308.765 215.944 309.493 216.229C310.41 216.589 311.439 216.721 312.281 217.197C312.947 217.573 313.634 217.346 314.212 217.585C314.953 217.891 315.557 217.662 316.256 217.607C317.347 217.523 318.262 217.294 319.011 216.495C319.054 216.449 319.101 216.397 319.156 216.375C320.665 215.776 320.934 214.432 321.151 213.058C321.164 212.973 321.115 212.851 321.158 212.803C322.031 211.83 321.544 210.646 321.68 209.559C321.731 209.156 321.847 208.761 321.936 208.363C321.976 208.184 322.057 208.008 322.06 207.83C322.073 207.004 322.116 206.174 322.052 205.354C321.984 204.49 321.941 203.582 321.633 202.793C321.365 202.108 320.682 201.598 320.293 200.945C319.931 200.338 319.27 200.027 319.008 199.271C318.796 198.661 318.072 198.223 317.56 197.724C317.219 197.391 316.854 197.093 316.967 196.526C316.989 196.42 316.862 196.268 316.776 196.159C316.669 196.023 316.481 195.932 316.419 195.783C315.928 194.607 314.834 194.153 313.828 193.603C313.193 193.256 312.513 192.989 311.885 192.631C311.235 192.259 310.576 192.015 309.814 192.111C309.68 192.128 309.476 192.109 309.404 192.023C308.895 191.412 308.106 191.359 307.459 191.033C306.908 190.755 306.29 190.602 305.691 190.428C305.126 190.263 304.55 190.137 303.976 190.004C303.419 189.876 302.857 189.77 302.301 189.637C301.809 189.52 301.297 189.436 300.838 189.237C299.844 188.807 298.87 188.35 297.756 188.326C297.59 188.323 297.423 188.194 297.263 188.111C297.136 188.045 297.03 187.92 296.899 187.889C296.183 187.722 295.461 187.446 294.744 187.456C293.837 187.469 293.118 187.118 292.349 186.748C291.738 186.455 291.046 186.332 290.395 186.115C290.053 186.002 289.723 185.851 289.388 185.716C288.755 185.46 288.12 185.208 287.493 184.939C287.393 184.896 287.265 184.769 287.266 184.682C287.266 184.596 287.398 184.472 287.499 184.434C287.613 184.39 287.756 184.424 287.886 184.424C288.929 184.424 289.973 184.438 291.015 184.418C291.591 184.407 292.132 184.45 292.62 184.806C292.756 184.906 293.003 184.987 293.14 184.931C293.713 184.697 294.257 184.875 294.823 184.919C295.201 184.949 295.598 184.721 295.989 184.618C296.264 184.545 296.542 184.446 296.822 184.432C297.407 184.404 297.997 184.452 298.581 184.412C298.875 184.392 299.16 184.244 299.452 184.165C299.649 184.111 299.849 184.064 300.05 184.035C300.596 183.955 301.224 184.267 301.666 183.659C301.727 183.576 301.998 183.657 302.169 183.639C303.183 183.533 304.185 183.752 305.23 183.319C305.887 183.048 306.864 183.023 307.641 183.504C307.788 183.596 307.995 183.647 308.168 183.633C309.113 183.557 309.978 183.704 310.787 184.26C311.052 184.441 311.488 184.373 311.844 184.425C312.109 184.463 312.418 184.438 312.63 184.567C313.447 185.065 314.338 184.954 315.214 184.936C315.673 184.927 316.04 185.046 316.36 185.434Z"
            fill="#3C3E5A" />
        <path
            d="M261.721 170.243C261.398 170.762 261.48 171.191 261.957 171.436C262.073 171.496 262.324 171.435 262.433 171.339C262.808 171.01 263.155 170.648 263.5 170.286C263.958 169.806 264.431 169.831 264.974 170.153C265.191 170.281 265.487 170.343 265.741 170.328C266.254 170.297 266.617 170.495 266.972 170.846C267.324 171.195 267.785 171.435 268.136 171.785C268.47 172.117 268.761 172.507 269.003 172.912C269.258 173.341 269.361 173.873 269.659 174.262C270.156 174.911 270.014 175.624 270.032 176.329C270.043 176.741 269.973 177.165 270.045 177.565C270.275 178.844 269.527 179.817 269.075 180.886C268.825 181.477 268.492 182.053 268.358 182.671C268.096 183.89 267.557 184.936 266.722 185.842C266.487 186.098 266.209 186.317 265.991 186.585C265.224 187.524 264.157 187.73 263.042 187.81C262.588 187.842 262.13 187.817 261.674 187.814C261.048 187.811 260.47 187.798 259.863 187.454C258.962 186.945 257.924 186.685 256.982 186.24C255.659 185.614 254.904 184.456 254.237 183.2C253.89 182.546 253.85 181.895 253.858 181.202C253.859 181.068 253.793 180.925 253.731 180.801C253.25 179.834 252.834 178.847 252.959 177.735C252.997 177.396 253.158 177.072 253.204 176.733C253.277 176.211 253.27 175.679 253.352 175.16C253.409 174.805 253.559 174.466 253.671 174.121C253.864 173.527 254.076 172.94 254.251 172.341C254.415 171.776 254.361 170.98 254.726 170.681C255.267 170.238 255.479 169.488 256.023 169.215C257.158 168.645 258.272 167.821 259.673 168.134C260.058 168.221 260.421 168.424 260.783 168.595C260.948 168.673 261.073 168.842 261.241 168.907C261.899 169.159 262.165 169.546 261.721 170.243Z"
            fill="#3C3E5A" />
    </g>
    <defs>
        <clipPath id="clip0_366_213">
            <rect width="237.051" height="237.051" fill="white" transform="translate(113.733 70.0557)" />
        </clipPath>
    </defs>
</svg>