<svg width="1440" height="270" viewBox="0 0 1440 270" fill="none" xmlns="http://www.w3.org/2000/svg">
    <path
        d="M77.9012 72.8939C78.1914 72.1522 78.2559 71.4429 77.9334 70.669C77.5788 69.8629 76.9339 69.218 76.0955 69.0246C75.5796 68.8956 74.967 68.8633 74.4511 68.9923C72.9356 68.8956 71.4201 69.8307 71.0654 71.4106C71.0009 71.7976 70.9364 72.1845 71.0009 72.5714C70.9364 72.8294 70.9687 73.1196 71.0009 73.3453C71.0332 73.5065 71.0977 73.6355 71.1621 73.7644C71.2911 74.3448 71.5813 74.9575 72.065 75.3767C73.1613 76.4085 75.0315 76.5375 76.289 75.7314C77.2563 75.0865 77.8689 74.0224 77.9012 72.8939Z"
        fill="#F1EBD8" />
    <path
        d="M82.0285 83.7278C81.7383 82.9217 81.3191 82.2446 80.6098 81.7287C80.1261 81.374 79.6747 81.116 79.0943 80.9871C77.74 80.6646 76.2568 81.0515 75.2895 82.0834C75.1282 82.2446 75.0315 82.4058 74.9348 82.567C74.838 82.6638 74.7735 82.7927 74.709 82.9217C74.4511 83.3086 74.3221 83.8245 74.2899 84.3082C74.2254 84.8241 74.2254 85.34 74.3544 85.8559C74.4833 86.5008 74.838 87.1135 75.3539 87.5649C75.5152 87.7261 75.6764 87.8228 75.8699 87.9518C76.0311 88.0485 76.1601 88.1775 76.3213 88.2743C76.9339 88.6289 77.6755 88.7902 78.3849 88.7902C79.0943 88.7902 79.8036 88.5967 80.4163 88.242C81.7383 87.3069 82.5767 85.3078 82.0285 83.7278Z"
        fill="#F1EBD8" />
    <path
        d="M67.4541 81.4063C69.0018 79.7296 68.9373 77.408 67.4541 75.7313C66.9382 75.1509 66.39 74.5383 65.9063 73.9256C65.2615 73.1518 64.1974 72.7971 63.1656 72.7971C63.0044 72.7003 62.8431 72.6681 62.6174 72.6359C61.7146 72.4424 60.8118 72.5069 60.0057 72.9905C59.2318 73.442 58.5869 74.2803 58.3612 75.1509C58.1032 76.2472 58.3612 77.2145 58.9416 78.0529C58.9416 78.1819 58.9738 78.3431 59.0061 78.4398C59.393 80.439 61.102 81.89 63.0044 82.1157C63.5203 82.3736 64.0684 82.5348 64.7133 82.5348C65.5839 82.5671 66.7769 82.1479 67.4541 81.4063Z"
        fill="#F1EBD8" />
    <path
        d="M71.8718 99.5598C72.4845 98.5603 72.8069 97.3995 72.8069 96.1742C72.8069 94.2395 72.0331 92.1114 70.6788 90.7572C69.5825 89.6609 68.2605 89.0482 66.9385 88.8225C65.4875 88.5323 63.9398 88.6613 62.5533 89.4674C62.1986 89.6931 61.8439 89.9188 61.5214 90.1768C60.6186 90.8217 59.8447 91.7245 59.3288 92.8208C57.6199 96.2709 58.0068 101.108 61.8439 103.074C65.6809 105.041 70.2596 103.494 71.8718 99.5598Z"
        fill="#F1EBD8" />
    <path
        d="M86.6717 98.8183C86.7684 98.6571 86.8652 98.4959 86.9619 98.3346C88.2839 96.4967 87.2843 93.627 85.0272 93.0466C84.3179 92.8531 83.5762 92.7564 82.8346 92.7242C82.6089 92.6919 82.351 92.6919 82.1252 92.7241C81.5126 92.7564 80.8355 92.8531 80.3518 93.2078C80.0294 93.4013 79.7714 93.6592 79.4812 93.8849C79.0943 94.2074 78.7718 94.8523 78.6751 95.3359C78.5139 96.0131 78.5784 96.7224 78.8363 97.3673C78.9653 97.6253 79.0943 97.8832 79.2233 98.0767C79.2878 98.2702 79.32 98.4959 79.4167 98.6571C79.7392 99.4309 80.2873 100.173 81.0612 100.559C81.9318 100.979 82.9959 101.269 83.9632 100.946C84.3501 100.817 84.7693 100.656 85.1562 100.463C85.8333 99.9791 86.188 99.4954 86.6717 98.8183Z"
        fill="#F1EBD8" />
    <path
        d="M54.5243 84.0181C54.5565 83.9859 54.5243 83.9537 54.5565 83.9214L54.5888 83.8892C55.0402 83.1798 55.2659 82.3737 54.9435 81.5353C54.8467 81.0517 54.5888 80.6003 54.2341 80.2456C52.9766 79.0525 51.0097 79.1493 49.8166 80.3423C49.0428 81.1162 48.6558 82.148 48.5914 83.1798C48.5914 83.5022 48.6236 83.7924 48.7203 84.0826C48.7203 84.1471 48.7203 84.1471 48.7203 84.2116C48.7526 84.7598 48.9138 85.2434 49.2362 85.6948C49.9456 86.6622 51.3321 86.9524 52.3962 86.3397C52.6864 86.1785 52.9766 85.9528 53.2668 85.7271C53.8149 85.3724 54.2986 84.7598 54.5243 84.0181Z"
        fill="#F1EBD8" />
    <path
        d="M64.7131 61.1248C65.4547 60.4477 65.8416 59.5449 65.8739 58.6098C66.0029 58.0939 66.0351 57.5457 65.8739 56.9331C65.6482 56.127 65.0033 55.2241 64.2617 54.805C64.036 54.7082 63.8103 54.6115 63.6168 54.547C62.9074 54.1601 62.1336 54.0311 61.263 54.1278C60.7148 54.1601 60.2311 54.3213 59.7475 54.6115C59.425 54.805 59.1348 55.0307 58.8769 55.2886C58.6512 55.5143 58.4577 55.7723 58.2965 56.0625L58.2642 56.0947C57.6838 56.8686 57.1679 57.707 57.2324 58.7388C57.2647 59.6094 57.5549 60.4155 58.0708 61.1248C59.2638 62.7048 61.4242 63.1885 63.1976 62.1889C63.4556 62.0599 63.6813 61.8987 63.8425 61.7375C64.1004 61.6085 64.3584 61.415 64.5841 61.1893C64.6164 61.2216 64.6808 61.1571 64.7131 61.1248Z"
        fill="#F1EBD8" />
    <path
        d="M52.6544 69.0569C52.6867 68.9602 52.7189 68.9279 52.7511 68.8312C53.0091 67.7994 52.7834 66.4129 51.9128 65.7358L51.8806 65.7035C51.2679 65.2198 50.7198 64.8652 49.9459 64.8007C49.1398 64.7039 48.5916 64.8652 47.8823 65.1876C47.0762 65.5423 46.4635 66.4129 46.1411 67.1867C45.7864 68.0573 45.6897 68.8634 45.8831 69.7663C46.1733 71.1528 47.1084 72.2168 48.3014 72.894C49.2365 73.4421 50.4296 73.4744 51.3646 72.9262C52.6222 72.0556 53.1703 70.4757 52.6544 69.0569Z"
        fill="#F1EBD8" />
    <path
        d="M101.923 93.1755C102.246 92.6596 102.407 92.1115 102.407 91.5311C102.536 90.9507 102.504 90.4025 102.31 89.8221C102.181 89.2417 101.923 88.7258 101.504 88.2422C101.182 87.7263 100.73 87.3393 100.182 87.0491C99.4728 86.6622 98.7634 86.4687 97.9896 86.4687C97.0867 86.5332 96.4741 86.6299 95.6357 87.0814C94.217 87.9197 93.3786 89.4029 93.3464 91.0474C93.3141 91.66 93.4431 92.176 93.7011 92.6919C93.8945 93.2723 94.1847 93.7559 94.6684 94.1751C94.9908 94.433 95.281 94.6587 95.6035 94.9167C96.1194 95.2391 96.6675 95.4004 97.2157 95.4326C97.5704 95.5294 97.9573 95.5294 98.3765 95.4326C98.9246 95.4004 99.4728 95.2392 99.9887 94.9167C100.085 94.8845 100.118 94.8522 100.214 94.82C100.956 94.4653 101.536 93.8849 101.923 93.1755Z"
        fill="#F1EBD8" />
    <path
        d="M90.9277 80.1165C91.0567 79.9875 91.1212 79.8586 91.2501 79.7296C91.3791 79.5361 91.4758 79.3104 91.5403 79.1169C91.5726 79.0847 91.6371 79.0202 91.6371 78.9557C92.024 78.3108 92.153 77.537 92.0563 76.7954C92.0563 76.4729 91.9918 76.215 91.8305 75.9248C91.7338 75.6346 91.6048 75.3766 91.3791 75.1509C91.2179 74.8607 90.9922 74.635 90.7342 74.506C90.4118 74.1836 89.9926 73.9579 89.509 73.8611C89.3477 73.8289 89.1865 73.7966 89.0253 73.7644C88.7028 73.6999 88.3482 73.6677 88.0257 73.6677C87.5098 73.6677 87.1551 73.7644 86.8004 73.8611C86.8004 73.8611 86.8004 73.8611 86.8327 73.8289C86.8004 73.8611 86.7682 73.8289 86.736 73.8611C86.4135 73.9901 86.0911 74.1191 85.7686 74.2481C85.2527 74.506 84.898 74.8607 84.5756 75.3121C84.3176 75.5701 84.1564 75.8603 84.0597 76.215C83.834 76.6986 83.7372 77.1823 83.7372 77.6982C83.7372 78.4721 83.9307 79.1814 84.3176 79.8908C84.9625 81.1161 86.349 81.8577 87.7033 81.8577C88.4126 81.8577 89.0253 81.6965 89.6379 81.3418C90.1216 81.0516 90.573 80.6647 90.9277 80.1165Z"
        fill="#F1EBD8" />
    <path
        d="M82.6087 111.974C82.7377 111.587 82.7699 111.232 82.7377 110.877C82.6732 109.91 82.4152 109.072 81.8026 108.266C80.7063 106.847 78.7394 106.17 77.0304 106.718C75.386 106.815 73.806 107.492 72.613 108.685C71.7424 109.555 71.1943 110.877 71.1943 112.103C71.1943 112.554 71.291 113.038 71.42 113.489C71.5167 113.908 71.7101 114.36 71.9036 114.747C72.8064 116.294 74.4187 117.197 76.1921 117.23C77.6431 117.262 78.8361 116.585 80.0292 115.908C81.5124 115.198 82.512 113.618 82.6087 111.974Z"
        fill="#F1EBD8" />
    <path
        d="M53.1059 53.7086C53.2671 53.1605 53.2994 52.6123 53.1704 52.0319C53.1381 51.4838 52.9769 50.9356 52.6545 50.4197C52.4288 50.1295 52.1708 49.8071 51.9451 49.5169C51.397 48.9687 50.7521 48.5818 49.9782 48.3883C49.946 48.3561 49.946 48.3561 49.8815 48.3561C49.4945 48.2916 49.1399 48.2594 48.7529 48.1949C48.366 48.2594 48.0113 48.2916 47.6244 48.3561C47.2697 48.5173 46.8828 48.6463 46.5603 48.7753C46.1411 49.0655 45.6897 49.3879 45.335 49.7426C45.2383 49.8393 45.1416 49.9361 45.0448 50.0328C44.8836 50.194 44.7224 50.4197 44.5934 50.6132C44.3032 50.9034 44.1098 51.2258 44.0453 51.6128C43.9808 51.8062 43.8841 52.0319 43.8196 52.2254C43.6261 52.9348 43.6261 53.7086 43.8196 54.418C43.9485 54.8049 44.0775 55.1919 44.271 55.5143L44.3032 55.5466C44.4322 55.8045 44.6579 56.0302 44.8191 56.2559C44.8514 56.2882 44.9159 56.3527 44.9159 56.4171C45.2061 56.6429 45.4963 56.8686 45.7865 57.0943C45.851 57.0943 45.9154 57.1588 45.9799 57.1588C46.2056 57.2555 46.4313 57.3522 46.6248 57.4167C46.6571 57.449 46.7215 57.449 46.7538 57.4812C46.9472 57.5457 47.1407 57.5457 47.3342 57.6102C47.3987 57.6102 47.4309 57.6424 47.4632 57.6102C47.4954 57.6424 47.5276 57.6102 47.5599 57.6424C48.4305 57.7392 49.3011 57.5779 50.0427 57.0943C50.2362 56.9653 50.4296 56.8363 50.6553 56.6751C50.6876 56.6429 50.7843 56.6106 50.8166 56.5784C51.9774 55.9335 52.8157 54.9017 53.1059 53.7086Z"
        fill="#F1EBD8" />
    <path
        d="M78.9332 63.8009C79.5136 62.6401 79.8683 61.3826 79.5781 60.125C79.5459 59.8348 79.5136 59.5446 79.4492 59.2867C79.2879 58.932 79.159 58.5451 78.9977 58.1904C78.7398 57.8679 78.4818 57.5455 78.2561 57.1908C77.8369 56.7072 77.321 56.3847 76.7084 56.2235C76.3537 55.9978 75.9668 55.9333 75.5798 55.9333C75.1929 55.8043 74.806 55.8043 74.4191 55.9333C74.0321 55.9333 73.6129 56.03 73.2905 56.2235C72.9036 56.3525 72.5166 56.5459 72.1942 56.8039C71.8073 56.9329 71.4848 57.1263 71.1946 57.4165C70.9367 57.5455 70.7432 57.739 70.5497 57.9324C70.2595 58.2871 70.0016 58.674 69.7114 59.0287C69.3245 59.6091 69.1632 60.2218 69.131 60.8989C69.0343 61.3181 69.0343 61.7695 69.131 62.1887C69.1632 62.8658 69.3567 63.5107 69.7114 64.0588C70.2273 64.8327 70.8722 65.4776 71.6461 65.9935C72.2264 66.3804 72.8391 66.5416 73.5162 66.5739C74.1611 66.7029 74.806 66.7029 75.4509 66.5094C76.9341 66.1225 78.2561 65.1229 78.9332 63.8009Z"
        fill="#F1EBD8" />
    <path
        d="M100.924 109.136C101.375 108.362 101.601 107.427 101.633 106.557C101.697 105.203 101.02 103.881 100.117 102.913C99.0534 101.785 97.5057 101.14 95.9257 101.108C95.0229 101.108 93.8943 101.333 93.1205 101.785C92.1532 102.365 91.5405 103.107 90.9601 104.009C90.3797 104.912 90.1863 106.46 90.5087 107.492C90.6699 107.847 90.7989 108.233 90.9601 108.588C91.2825 109.169 91.6695 109.62 92.2176 109.975C92.5401 110.233 92.927 110.426 93.3139 110.62C93.8299 111.071 94.4747 111.458 95.1519 111.619C95.4098 111.684 95.7 111.716 95.9902 111.748C96.0547 111.748 96.0869 111.78 96.1192 111.748C96.2804 111.78 96.4416 111.748 96.6028 111.78C96.5384 111.78 96.5061 111.748 96.4739 111.78C97.3445 111.813 98.2473 111.619 99.0212 111.103C99.8595 110.587 100.375 110.071 100.924 109.136Z"
        fill="#F1EBD8" />
    <path
        d="M1384.9 48.8939C1385.19 48.1522 1385.26 47.4429 1384.93 46.669C1384.58 45.8629 1383.93 45.218 1383.1 45.0246C1382.58 44.8956 1381.97 44.8633 1381.45 44.9923C1379.94 44.8956 1378.42 45.8307 1378.07 47.4106C1378 47.7976 1377.94 48.1845 1378 48.5714C1377.94 48.8294 1377.97 49.1196 1378 49.3453C1378.03 49.5065 1378.1 49.6355 1378.16 49.7644C1378.29 50.3448 1378.58 50.9575 1379.06 51.3767C1380.16 52.4085 1382.03 52.5375 1383.29 51.7314C1384.26 51.0865 1384.87 50.0224 1384.9 48.8939Z"
        fill="#F1EBD8" />
    <path
        d="M1389.03 59.7278C1388.74 58.9217 1388.32 58.2446 1387.61 57.7287C1387.13 57.374 1386.67 57.116 1386.09 56.9871C1384.74 56.6646 1383.26 57.0515 1382.29 58.0834C1382.13 58.2446 1382.03 58.4058 1381.93 58.567C1381.84 58.6638 1381.77 58.7927 1381.71 58.9217C1381.45 59.3086 1381.32 59.8245 1381.29 60.3082C1381.23 60.8241 1381.23 61.34 1381.35 61.8559C1381.48 62.5008 1381.84 63.1135 1382.35 63.5649C1382.52 63.7261 1382.68 63.8228 1382.87 63.9518C1383.03 64.0485 1383.16 64.1775 1383.32 64.2743C1383.93 64.6289 1384.68 64.7902 1385.38 64.7902C1386.09 64.7902 1386.8 64.5967 1387.42 64.242C1388.74 63.3069 1389.58 61.3078 1389.03 59.7278Z"
        fill="#F1EBD8" />
    <path
        d="M1374.45 57.4063C1376 55.7296 1375.94 53.408 1374.45 51.7313C1373.94 51.1509 1373.39 50.5383 1372.91 49.9256C1372.26 49.1518 1371.2 48.7971 1370.17 48.7971C1370 48.7003 1369.84 48.6681 1369.62 48.6359C1368.71 48.4424 1367.81 48.5069 1367.01 48.9905C1366.23 49.442 1365.59 50.2803 1365.36 51.1509C1365.1 52.2472 1365.36 53.2145 1365.94 54.0529C1365.94 54.1819 1365.97 54.3431 1366.01 54.4398C1366.39 56.439 1368.1 57.89 1370 58.1157C1370.52 58.3736 1371.07 58.5348 1371.71 58.5348C1372.58 58.5671 1373.78 58.1479 1374.45 57.4063Z"
        fill="#F1EBD8" />
    <path
        d="M1378.87 75.5598C1379.48 74.5603 1379.81 73.3995 1379.81 72.1742C1379.81 70.2395 1379.03 68.1114 1377.68 66.7572C1376.58 65.6609 1375.26 65.0482 1373.94 64.8225C1372.49 64.5323 1370.94 64.6613 1369.55 65.4674C1369.2 65.6931 1368.84 65.9188 1368.52 66.1768C1367.62 66.8217 1366.84 67.7245 1366.33 68.8208C1364.62 72.2709 1365.01 77.1076 1368.84 79.0745C1372.68 81.0414 1377.26 79.4936 1378.87 75.5598Z"
        fill="#F1EBD8" />
    <path
        d="M1393.67 74.8183C1393.77 74.6571 1393.87 74.4959 1393.96 74.3346C1395.28 72.4967 1394.28 69.627 1392.03 69.0466C1391.32 68.8531 1390.58 68.7564 1389.83 68.7242C1389.61 68.6919 1389.35 68.6919 1389.13 68.7241C1388.51 68.7564 1387.84 68.8531 1387.35 69.2078C1387.03 69.4013 1386.77 69.6592 1386.48 69.8849C1386.09 70.2074 1385.77 70.8523 1385.68 71.3359C1385.51 72.0131 1385.58 72.7224 1385.84 73.3673C1385.97 73.6253 1386.09 73.8832 1386.22 74.0767C1386.29 74.2702 1386.32 74.4959 1386.42 74.6571C1386.74 75.4309 1387.29 76.1726 1388.06 76.5595C1388.93 76.9787 1390 77.2689 1390.96 76.9464C1391.35 76.8175 1391.77 76.6562 1392.16 76.4628C1392.83 75.9791 1393.19 75.4954 1393.67 74.8183Z"
        fill="#F1EBD8" />
    <path
        d="M1361.52 60.0181C1361.56 59.9859 1361.52 59.9537 1361.56 59.9214L1361.59 59.8892C1362.04 59.1798 1362.27 58.3737 1361.94 57.5353C1361.85 57.0517 1361.59 56.6003 1361.23 56.2456C1359.98 55.0525 1358.01 55.1493 1356.82 56.3423C1356.04 57.1162 1355.66 58.148 1355.59 59.1798C1355.59 59.5022 1355.62 59.7924 1355.72 60.0826C1355.72 60.1471 1355.72 60.1471 1355.72 60.2116C1355.75 60.7598 1355.91 61.2434 1356.24 61.6948C1356.95 62.6622 1358.33 62.9524 1359.4 62.3397C1359.69 62.1785 1359.98 61.9528 1360.27 61.7271C1360.81 61.3724 1361.3 60.7598 1361.52 60.0181Z"
        fill="#F1EBD8" />
    <path
        d="M1371.71 37.1248C1372.45 36.4477 1372.84 35.5449 1372.87 34.6098C1373 34.0939 1373.04 33.5457 1372.87 32.9331C1372.65 32.127 1372 31.2241 1371.26 30.805C1371.04 30.7082 1370.81 30.6115 1370.62 30.547C1369.91 30.1601 1369.13 30.0311 1368.26 30.1278C1367.71 30.1601 1367.23 30.3213 1366.75 30.6115C1366.43 30.805 1366.13 31.0307 1365.88 31.2886C1365.65 31.5143 1365.46 31.7723 1365.3 32.0625L1365.26 32.0947C1364.68 32.8686 1364.17 33.707 1364.23 34.7388C1364.26 35.6094 1364.55 36.4155 1365.07 37.1248C1366.26 38.7048 1368.42 39.1885 1370.2 38.1889C1370.46 38.0599 1370.68 37.8987 1370.84 37.7375C1371.1 37.6085 1371.36 37.415 1371.58 37.1893C1371.62 37.2216 1371.68 37.1571 1371.71 37.1248Z"
        fill="#F1EBD8" />
    <path
        d="M1359.65 45.0569C1359.69 44.9602 1359.72 44.9279 1359.75 44.8312C1360.01 43.7994 1359.78 42.4129 1358.91 41.7358L1358.88 41.7035C1358.27 41.2198 1357.72 40.8652 1356.95 40.8007C1356.14 40.7039 1355.59 40.8652 1354.88 41.1876C1354.08 41.5423 1353.46 42.4129 1353.14 43.1867C1352.79 44.0573 1352.69 44.8634 1352.88 45.7663C1353.17 47.1528 1354.11 48.2168 1355.3 48.894C1356.24 49.4421 1357.43 49.4744 1358.36 48.9262C1359.62 48.0556 1360.17 46.4757 1359.65 45.0569Z"
        fill="#F1EBD8" />
    <path
        d="M1408.92 69.1755C1409.25 68.6596 1409.41 68.1115 1409.41 67.5311C1409.54 66.9507 1409.5 66.4025 1409.31 65.8221C1409.18 65.2417 1408.92 64.7258 1408.5 64.2422C1408.18 63.7263 1407.73 63.3393 1407.18 63.0491C1406.47 62.6622 1405.76 62.4687 1404.99 62.4687C1404.09 62.5332 1403.47 62.6299 1402.64 63.0814C1401.22 63.9197 1400.38 65.4029 1400.35 67.0474C1400.31 67.66 1400.44 68.176 1400.7 68.6919C1400.89 69.2723 1401.18 69.7559 1401.67 70.1751C1401.99 70.433 1402.28 70.6587 1402.6 70.9167C1403.12 71.2391 1403.67 71.4004 1404.22 71.4326C1404.57 71.5294 1404.96 71.5294 1405.38 71.4326C1405.92 71.4004 1406.47 71.2392 1406.99 70.9167C1407.09 70.8845 1407.12 70.8522 1407.21 70.82C1407.96 70.4653 1408.54 69.8849 1408.92 69.1755Z"
        fill="#F1EBD8" />
    <path
        d="M1397.93 56.1165C1398.06 55.9875 1398.12 55.8586 1398.25 55.7296C1398.38 55.5361 1398.48 55.3104 1398.54 55.1169C1398.57 55.0847 1398.64 55.0202 1398.64 54.9557C1399.02 54.3108 1399.15 53.537 1399.06 52.7954C1399.06 52.4729 1398.99 52.215 1398.83 51.9248C1398.73 51.6346 1398.6 51.3766 1398.38 51.1509C1398.22 50.8607 1397.99 50.635 1397.73 50.506C1397.41 50.1836 1396.99 49.9579 1396.51 49.8611C1396.35 49.8289 1396.19 49.7966 1396.03 49.7644C1395.7 49.6999 1395.35 49.6677 1395.03 49.6677C1394.51 49.6677 1394.16 49.7644 1393.8 49.8611C1393.8 49.8611 1393.8 49.8611 1393.83 49.8289C1393.8 49.8611 1393.77 49.8289 1393.74 49.8611C1393.41 49.9901 1393.09 50.1191 1392.77 50.2481C1392.25 50.506 1391.9 50.8607 1391.58 51.3121C1391.32 51.5701 1391.16 51.8603 1391.06 52.215C1390.83 52.6986 1390.74 53.1823 1390.74 53.6982C1390.74 54.4721 1390.93 55.1814 1391.32 55.8908C1391.96 57.1161 1393.35 57.8577 1394.7 57.8577C1395.41 57.8577 1396.03 57.6965 1396.64 57.3418C1397.12 57.0516 1397.57 56.6647 1397.93 56.1165Z"
        fill="#F1EBD8" />
    <path
        d="M1389.61 87.9738C1389.74 87.5869 1389.77 87.2322 1389.74 86.8775C1389.67 85.9102 1389.42 85.0718 1388.8 84.2657C1387.71 82.847 1385.74 82.1698 1384.03 82.718C1382.39 82.8147 1380.81 83.4918 1379.61 84.6849C1378.74 85.5555 1378.19 86.8775 1378.19 88.1028C1378.19 88.5542 1378.29 89.0378 1378.42 89.4893C1378.52 89.9084 1378.71 90.3598 1378.9 90.7468C1379.81 92.2945 1381.42 93.1973 1383.19 93.2296C1384.64 93.2618 1385.84 92.5847 1387.03 91.9076C1388.51 91.1982 1389.51 89.6182 1389.61 87.9738Z"
        fill="#F1EBD8" />
    <path
        d="M1360.11 29.7086C1360.27 29.1605 1360.3 28.6123 1360.17 28.0319C1360.14 27.4838 1359.98 26.9356 1359.65 26.4197C1359.43 26.1295 1359.17 25.8071 1358.95 25.5169C1358.4 24.9687 1357.75 24.5818 1356.98 24.3883C1356.95 24.3561 1356.95 24.3561 1356.88 24.3561C1356.49 24.2916 1356.14 24.2594 1355.75 24.1949C1355.37 24.2594 1355.01 24.2916 1354.62 24.3561C1354.27 24.5173 1353.88 24.6463 1353.56 24.7753C1353.14 25.0655 1352.69 25.3879 1352.34 25.7426C1352.24 25.8393 1352.14 25.9361 1352.04 26.0328C1351.88 26.194 1351.72 26.4197 1351.59 26.6132C1351.3 26.9034 1351.11 27.2258 1351.05 27.6128C1350.98 27.8062 1350.88 28.0319 1350.82 28.2254C1350.63 28.9348 1350.63 29.7086 1350.82 30.418C1350.95 30.8049 1351.08 31.1919 1351.27 31.5143L1351.3 31.5466C1351.43 31.8045 1351.66 32.0302 1351.82 32.2559C1351.85 32.2882 1351.92 32.3527 1351.92 32.4171C1352.21 32.6429 1352.5 32.8686 1352.79 33.0943C1352.85 33.0943 1352.92 33.1588 1352.98 33.1588C1353.21 33.2555 1353.43 33.3522 1353.62 33.4167C1353.66 33.449 1353.72 33.449 1353.75 33.4812C1353.95 33.5457 1354.14 33.5457 1354.33 33.6102C1354.4 33.6102 1354.43 33.6424 1354.46 33.6102C1354.5 33.6424 1354.53 33.6102 1354.56 33.6424C1355.43 33.7392 1356.3 33.5779 1357.04 33.0943C1357.24 32.9653 1357.43 32.8363 1357.66 32.6751C1357.69 32.6429 1357.78 32.6106 1357.82 32.5784C1358.98 31.9335 1359.82 30.9017 1360.11 29.7086Z"
        fill="#F1EBD8" />
    <path
        d="M1385.93 39.8009C1386.51 38.6401 1386.87 37.3826 1386.58 36.125C1386.55 35.8348 1386.51 35.5446 1386.45 35.2867C1386.29 34.932 1386.16 34.5451 1386 34.1904C1385.74 33.8679 1385.48 33.5455 1385.26 33.1908C1384.84 32.7072 1384.32 32.3847 1383.71 32.2235C1383.35 31.9978 1382.97 31.9333 1382.58 31.9333C1382.19 31.8043 1381.81 31.8043 1381.42 31.9333C1381.03 31.9333 1380.61 32.03 1380.29 32.2235C1379.9 32.3525 1379.52 32.5459 1379.19 32.8039C1378.81 32.9329 1378.48 33.1263 1378.19 33.4165C1377.94 33.5455 1377.74 33.739 1377.55 33.9324C1377.26 34.2871 1377 34.674 1376.71 35.0287C1376.32 35.6091 1376.16 36.2218 1376.13 36.8989C1376.03 37.3181 1376.03 37.7695 1376.13 38.1887C1376.16 38.8658 1376.36 39.5107 1376.71 40.0588C1377.23 40.8327 1377.87 41.4776 1378.65 41.9935C1379.23 42.3804 1379.84 42.5416 1380.52 42.5739C1381.16 42.7029 1381.81 42.7029 1382.45 42.5094C1383.93 42.1225 1385.26 41.1229 1385.93 39.8009Z"
        fill="#F1EBD8" />
    <path
        d="M1407.92 85.1363C1408.38 84.3625 1408.6 83.4274 1408.63 82.5568C1408.7 81.2025 1408.02 79.8805 1407.12 78.9132C1406.05 77.7846 1404.51 77.1398 1402.93 77.1075C1402.02 77.1075 1400.89 77.3332 1400.12 77.7846C1399.15 78.365 1398.54 79.1067 1397.96 80.0095C1397.38 80.9123 1397.19 82.4601 1397.51 83.4919C1397.67 83.8466 1397.8 84.2335 1397.96 84.5882C1398.28 85.1686 1398.67 85.62 1399.22 85.9747C1399.54 86.2326 1399.93 86.4261 1400.31 86.6196C1400.83 87.071 1401.47 87.4579 1402.15 87.6191C1402.41 87.6836 1402.7 87.7159 1402.99 87.7481C1403.05 87.7481 1403.09 87.7804 1403.12 87.7481C1403.28 87.7804 1403.44 87.7481 1403.6 87.7804C1403.54 87.7804 1403.51 87.7481 1403.47 87.7803C1404.34 87.8126 1405.25 87.6191 1406.02 87.1032C1406.86 86.5873 1407.38 86.0714 1407.92 85.1363Z"
        fill="#F1EBD8" />
    <path
        d="M695.901 204.894C696.191 204.152 696.256 203.443 695.933 202.669C695.579 201.863 694.934 201.218 694.096 201.025C693.58 200.896 692.967 200.863 692.451 200.992C690.936 200.896 689.42 201.831 689.065 203.411C689.001 203.798 688.936 204.184 689.001 204.571C688.936 204.829 688.969 205.12 689.001 205.345C689.033 205.506 689.098 205.635 689.162 205.764C689.291 206.345 689.581 206.957 690.065 207.377C691.161 208.408 693.031 208.537 694.289 207.731C695.256 207.086 695.869 206.022 695.901 204.894Z"
        fill="#F1EBD8" />
    <path
        d="M700.029 215.728C699.738 214.922 699.319 214.245 698.61 213.729C698.126 213.374 697.675 213.116 697.094 212.987C695.74 212.665 694.257 213.052 693.289 214.083C693.128 214.245 693.032 214.406 692.935 214.567C692.838 214.664 692.774 214.793 692.709 214.922C692.451 215.309 692.322 215.825 692.29 216.308C692.225 216.824 692.225 217.34 692.354 217.856C692.483 218.501 692.838 219.113 693.354 219.565C693.515 219.726 693.676 219.823 693.87 219.952C694.031 220.049 694.16 220.178 694.321 220.274C694.934 220.629 695.676 220.79 696.385 220.79C697.094 220.79 697.804 220.597 698.416 220.242C699.738 219.307 700.577 217.308 700.029 215.728Z"
        fill="#F1EBD8" />
    <path
        d="M685.454 213.406C687.002 211.73 686.937 209.408 685.454 207.731C684.938 207.151 684.39 206.538 683.906 205.926C683.261 205.152 682.197 204.797 681.166 204.797C681.004 204.7 680.843 204.668 680.617 204.636C679.715 204.442 678.812 204.507 678.006 204.991C677.232 205.442 676.587 206.28 676.361 207.151C676.103 208.247 676.361 209.215 676.942 210.053C676.942 210.182 676.974 210.343 677.006 210.44C677.393 212.439 679.102 213.89 681.004 214.116C681.52 214.374 682.068 214.535 682.713 214.535C683.584 214.567 684.777 214.148 685.454 213.406Z"
        fill="#F1EBD8" />
    <path
        d="M689.872 231.56C690.484 230.56 690.807 229.399 690.807 228.174C690.807 226.24 690.033 224.111 688.679 222.757C687.582 221.661 686.26 221.048 684.938 220.823C683.487 220.532 681.94 220.661 680.553 221.467C680.199 221.693 679.844 221.919 679.521 222.177C678.619 222.822 677.845 223.724 677.329 224.821C675.62 228.271 676.007 233.108 679.844 235.074C683.681 237.041 688.26 235.494 689.872 231.56Z"
        fill="#F1EBD8" />
    <path
        d="M704.672 230.818C704.768 230.657 704.865 230.496 704.962 230.335C706.284 228.497 705.284 225.627 703.027 225.047C702.318 224.853 701.576 224.756 700.835 224.724C700.609 224.692 700.351 224.692 700.125 224.724C699.513 224.756 698.835 224.853 698.352 225.208C698.029 225.401 697.771 225.659 697.481 225.885C697.094 226.207 696.772 226.852 696.675 227.336C696.514 228.013 696.578 228.722 696.836 229.367C696.965 229.625 697.094 229.883 697.223 230.077C697.288 230.27 697.32 230.496 697.417 230.657C697.739 231.431 698.287 232.173 699.061 232.559C699.932 232.979 700.996 233.269 701.963 232.946C702.35 232.817 702.769 232.656 703.156 232.463C703.833 231.979 704.188 231.495 704.672 230.818Z"
        fill="#F1EBD8" />
    <path
        d="M672.524 216.018C672.557 215.986 672.524 215.954 672.557 215.921L672.589 215.889C673.04 215.18 673.266 214.374 672.943 213.535C672.847 213.052 672.589 212.6 672.234 212.246C670.977 211.053 669.01 211.149 667.817 212.342C667.043 213.116 666.656 214.148 666.591 215.18C666.591 215.502 666.624 215.792 666.72 216.083C666.72 216.147 666.72 216.147 666.72 216.212C666.753 216.76 666.914 217.243 667.236 217.695C667.946 218.662 669.332 218.952 670.396 218.34C670.686 218.179 670.977 217.953 671.267 217.727C671.815 217.372 672.299 216.76 672.524 216.018Z"
        fill="#F1EBD8" />
    <path
        d="M682.713 193.125C683.455 192.448 683.842 191.545 683.874 190.61C684.003 190.094 684.035 189.546 683.874 188.933C683.648 188.127 683.003 187.224 682.262 186.805C682.036 186.708 681.81 186.612 681.617 186.547C680.907 186.16 680.134 186.031 679.263 186.128C678.715 186.16 678.231 186.321 677.747 186.612C677.425 186.805 677.135 187.031 676.877 187.289C676.651 187.514 676.458 187.772 676.296 188.062L676.264 188.095C675.684 188.869 675.168 189.707 675.232 190.739C675.265 191.609 675.555 192.415 676.071 193.125C677.264 194.705 679.424 195.188 681.198 194.189C681.456 194.06 681.681 193.899 681.842 193.737C682.1 193.609 682.358 193.415 682.584 193.189C682.616 193.222 682.681 193.157 682.713 193.125Z"
        fill="#F1EBD8" />
    <path
        d="M670.654 201.057C670.687 200.96 670.719 200.928 670.751 200.831C671.009 199.799 670.783 198.413 669.913 197.736L669.881 197.704C669.268 197.22 668.72 196.865 667.946 196.801C667.14 196.704 666.592 196.865 665.882 197.188C665.076 197.542 664.464 198.413 664.141 199.187C663.786 200.057 663.69 200.863 663.883 201.766C664.173 203.153 665.108 204.217 666.301 204.894C667.237 205.442 668.43 205.474 669.365 204.926C670.622 204.056 671.17 202.476 670.654 201.057Z"
        fill="#F1EBD8" />
    <path
        d="M719.923 225.176C720.246 224.66 720.407 224.111 720.407 223.531C720.536 222.951 720.504 222.403 720.31 221.822C720.181 221.242 719.923 220.726 719.504 220.242C719.182 219.726 718.73 219.339 718.182 219.049C717.473 218.662 716.763 218.469 715.99 218.469C715.087 218.533 714.474 218.63 713.636 219.081C712.217 219.92 711.379 221.403 711.346 223.047C711.314 223.66 711.443 224.176 711.701 224.692C711.895 225.272 712.185 225.756 712.668 226.175C712.991 226.433 713.281 226.659 713.603 226.917C714.119 227.239 714.668 227.4 715.216 227.433C715.57 227.529 715.957 227.529 716.376 227.433C716.925 227.4 717.473 227.239 717.989 226.917C718.085 226.884 718.118 226.852 718.214 226.82C718.956 226.465 719.536 225.885 719.923 225.176Z"
        fill="#F1EBD8" />
    <path
        d="M708.928 212.117C709.057 211.988 709.121 211.859 709.25 211.73C709.379 211.536 709.476 211.31 709.54 211.117C709.573 211.085 709.637 211.02 709.637 210.956C710.024 210.311 710.153 209.537 710.056 208.795C710.056 208.473 709.992 208.215 709.831 207.925C709.734 207.635 709.605 207.377 709.379 207.151C709.218 206.861 708.992 206.635 708.734 206.506C708.412 206.184 707.993 205.958 707.509 205.861C707.348 205.829 707.187 205.797 707.025 205.764C706.703 205.7 706.348 205.668 706.026 205.668C705.51 205.668 705.155 205.764 704.8 205.861C704.8 205.861 704.8 205.861 704.833 205.829C704.8 205.861 704.768 205.829 704.736 205.861C704.414 205.99 704.091 206.119 703.769 206.248C703.253 206.506 702.898 206.861 702.576 207.312C702.318 207.57 702.156 207.86 702.06 208.215C701.834 208.699 701.737 209.182 701.737 209.698C701.737 210.472 701.931 211.181 702.318 211.891C702.963 213.116 704.349 213.858 705.703 213.858C706.413 213.858 707.025 213.696 707.638 213.342C708.122 213.052 708.573 212.665 708.928 212.117Z"
        fill="#F1EBD8" />
    <path
        d="M700.609 243.974C700.738 243.587 700.77 243.232 700.738 242.877C700.673 241.91 700.415 241.072 699.803 240.266C698.706 238.847 696.739 238.17 695.03 238.718C693.386 238.815 691.806 239.492 690.613 240.685C689.742 241.555 689.194 242.877 689.194 244.103C689.194 244.554 689.291 245.038 689.42 245.489C689.517 245.908 689.71 246.36 689.904 246.747C690.806 248.294 692.419 249.197 694.192 249.23C695.643 249.262 696.836 248.585 698.029 247.908C699.512 247.198 700.512 245.618 700.609 243.974Z"
        fill="#F1EBD8" />
    <path
        d="M671.106 185.709C671.267 185.16 671.299 184.612 671.17 184.032C671.138 183.484 670.977 182.936 670.654 182.42C670.429 182.13 670.171 181.807 669.945 181.517C669.397 180.969 668.752 180.582 667.978 180.388C667.946 180.356 667.946 180.356 667.881 180.356C667.495 180.292 667.14 180.259 666.753 180.195C666.366 180.259 666.011 180.292 665.624 180.356C665.27 180.517 664.883 180.646 664.56 180.775C664.141 181.065 663.69 181.388 663.335 181.743C663.238 181.839 663.142 181.936 663.045 182.033C662.884 182.194 662.722 182.42 662.593 182.613C662.303 182.903 662.11 183.226 662.045 183.613C661.981 183.806 661.884 184.032 661.82 184.225C661.626 184.935 661.626 185.709 661.82 186.418C661.949 186.805 662.078 187.192 662.271 187.514L662.303 187.547C662.432 187.805 662.658 188.03 662.819 188.256C662.851 188.288 662.916 188.353 662.916 188.417C663.206 188.643 663.496 188.869 663.786 189.094C663.851 189.094 663.915 189.159 663.98 189.159C664.206 189.256 664.431 189.352 664.625 189.417C664.657 189.449 664.722 189.449 664.754 189.481C664.947 189.546 665.141 189.546 665.334 189.61C665.399 189.61 665.431 189.642 665.463 189.61C665.495 189.642 665.528 189.61 665.56 189.642C666.43 189.739 667.301 189.578 668.043 189.094C668.236 188.965 668.43 188.836 668.655 188.675C668.688 188.643 668.784 188.611 668.817 188.578C669.977 187.933 670.816 186.902 671.106 185.709Z"
        fill="#F1EBD8" />
    <path
        d="M696.933 195.801C697.514 194.64 697.868 193.383 697.578 192.125C697.546 191.835 697.514 191.545 697.449 191.287C697.288 190.932 697.159 190.545 696.998 190.19C696.74 189.868 696.482 189.546 696.256 189.191C695.837 188.707 695.321 188.385 694.708 188.223C694.354 187.998 693.967 187.933 693.58 187.933C693.193 187.804 692.806 187.804 692.419 187.933C692.032 187.933 691.613 188.03 691.291 188.223C690.904 188.352 690.517 188.546 690.194 188.804C689.807 188.933 689.485 189.126 689.195 189.417C688.937 189.546 688.743 189.739 688.55 189.932C688.26 190.287 688.002 190.674 687.711 191.029C687.324 191.609 687.163 192.222 687.131 192.899C687.034 193.318 687.034 193.769 687.131 194.189C687.163 194.866 687.357 195.511 687.711 196.059C688.227 196.833 688.872 197.478 689.646 197.993C690.226 198.38 690.839 198.542 691.516 198.574C692.161 198.703 692.806 198.703 693.451 198.509C694.934 198.122 696.256 197.123 696.933 195.801Z"
        fill="#F1EBD8" />
    <path
        d="M718.924 241.136C719.375 240.362 719.601 239.427 719.633 238.557C719.697 237.203 719.02 235.881 718.117 234.913C717.053 233.785 715.506 233.14 713.926 233.108C713.023 233.108 711.894 233.333 711.12 233.785C710.153 234.365 709.541 235.107 708.96 236.009C708.38 236.912 708.186 238.46 708.509 239.492C708.67 239.847 708.799 240.233 708.96 240.588C709.283 241.169 709.669 241.62 710.218 241.975C710.54 242.233 710.927 242.426 711.314 242.62C711.83 243.071 712.475 243.458 713.152 243.619C713.41 243.684 713.7 243.716 713.99 243.748C714.055 243.748 714.087 243.78 714.119 243.748C714.28 243.78 714.442 243.748 714.603 243.78C714.538 243.78 714.506 243.748 714.474 243.78C715.344 243.813 716.247 243.619 717.021 243.103C717.86 242.587 718.375 242.071 718.924 241.136Z"
        fill="#F1EBD8" />
    <path
        d="M960.441 78.9036C968.785 69.2869 976.422 59.1046 983.069 48.3566C986.604 42.6997 989.786 36.8307 992.544 30.8203C993.18 29.4768 998.908 18.5167 996.221 18.6581C979.109 19.5066 962.916 27.0727 949.269 36.9014C936.4 46.2352 922.54 58.3975 922.965 75.6509C923.248 84.419 931.096 89.5809 939.299 89.5809C947.501 89.5809 955.279 84.914 960.441 78.9036Z"
        fill="#B2B4CC" />
    <path
        d="M974.513 33.5779C974.442 33.5072 974.372 33.5779 974.442 33.6486C974.442 33.7901 974.584 33.6486 974.513 33.5779Z"
        fill="#ECD8CB" />
    <path
        d="M977.483 33.2952C977.412 32.6588 977.271 32.0931 976.776 31.5982C976.351 31.1739 975.715 30.9618 975.079 30.8911C974.796 30.8911 974.442 30.9618 974.159 31.1032C973.877 31.2446 973.594 31.386 973.382 31.5982C972.957 32.0224 972.674 32.5881 972.674 33.2952C972.745 33.9316 972.887 34.4973 973.382 34.9923C973.806 35.4166 974.442 35.6287 975.079 35.6994C975.361 35.6994 975.715 35.6287 975.998 35.4873C976.281 35.3458 976.564 35.2044 976.776 34.9923C977.271 34.4973 977.553 33.9316 977.483 33.2952Z"
        fill="#F7F6F0" />
    <path
        d="M976.21 51.5386C976.634 51.1143 976.917 50.5486 977.059 49.9829C977.129 49.7708 977.129 49.6294 977.129 49.3465C977.271 48.7808 977.271 48.2152 977.058 47.5788C976.917 47.1545 976.776 46.8717 976.634 46.4474C976.493 46.306 976.422 46.0938 976.281 45.9524C976.069 45.5989 975.786 45.316 975.432 45.1039C975.008 44.6796 974.442 44.3968 973.877 44.2554C973.806 44.1846 973.664 44.1847 973.594 44.2554C973.594 44.2554 973.594 44.2554 973.523 44.1847C973.382 44.1847 973.24 44.1847 973.028 44.1139H972.887L972.745 44.1139C972.604 44.1139 972.533 44.0432 972.392 44.0432C971.967 44.0432 971.543 44.0432 971.19 44.1139L970.2 44.5382C969.492 44.9625 968.927 45.5282 968.573 46.1646C968.22 46.8009 968.078 47.2252 968.008 47.8616C968.008 48.003 967.866 48.2859 967.937 48.498C968.008 48.7101 968.008 48.8516 968.008 49.1344C968.008 49.7001 968.22 50.3365 968.573 50.8314C968.785 51.185 969.068 51.4679 969.28 51.8214C969.634 52.0335 969.917 52.3164 970.27 52.5285C970.695 52.6699 970.977 52.8113 971.402 52.9528C971.614 53.0235 971.755 53.0235 972.038 53.0235C972.179 53.0235 972.533 53.0942 972.674 53.0942C973.028 53.0235 973.452 53.0235 973.806 52.9528C974.371 52.8114 974.937 52.5285 975.361 52.1042C975.715 52.175 975.998 51.8921 976.21 51.5386Z"
        fill="#F7F6F0" />
    <path
        d="M959.239 50.1245C959.451 49.3466 959.451 48.4981 959.239 47.5789C958.815 45.8818 957.471 44.5383 955.774 44.114C954.077 43.6898 952.31 44.1848 951.108 45.3868C950.683 45.8111 950.4 46.2354 950.047 46.7303C949.764 47.296 949.481 47.8617 949.481 48.5688C949.34 49.1345 949.41 49.7709 949.552 50.478C949.693 50.9023 949.905 51.2558 950.047 51.6801C950.33 52.2458 950.825 52.7408 951.32 53.0943C951.603 53.3772 951.956 53.5893 952.38 53.7307C952.946 54.0135 953.512 54.155 954.219 54.155C954.643 54.155 955.067 54.0135 955.492 54.0135C956.34 53.7307 957.118 53.3771 957.754 52.7407C957.825 52.67 957.896 52.5993 958.037 52.4579C958.603 51.7508 959.098 50.973 959.239 50.1245Z"
        fill="#F7F6F0" />
    <path
        d="M962.563 65.8928C962.845 65.3272 962.987 64.7615 962.987 64.1958C962.987 63.9129 962.916 63.5594 962.845 63.3473C962.704 62.7816 962.421 62.2159 961.997 61.7916C961.643 61.4381 961.29 61.2259 960.866 61.0845C960.512 60.8724 960.017 60.8017 959.593 60.8017C959.169 60.8017 958.674 60.8724 958.32 61.0845C957.896 61.2259 957.542 61.4381 957.189 61.7916L956.623 62.4987C956.34 63.0644 956.199 63.6301 956.199 64.1958C956.199 64.4786 956.269 64.8322 956.34 65.0443C956.482 65.61 956.764 66.1757 957.189 66.5999C957.542 66.9535 957.896 67.1656 958.32 67.3071C958.674 67.5192 959.168 67.5899 959.593 67.5899C960.017 67.5899 960.512 67.5192 960.866 67.307C961.29 67.1656 961.643 66.9535 961.997 66.5999C962.209 66.3878 962.421 66.1757 962.563 65.8928Z"
        fill="#F7F6F0" />
    <path
        d="M947.855 69.4283C948.845 68.4384 949.481 67.0949 949.269 65.7514C949.199 65.3978 949.128 65.0442 949.128 64.7614C948.986 64.1957 948.774 63.7007 948.421 63.3472C947.855 62.6401 947.219 62.1451 946.229 61.8623C945.097 61.438 943.754 61.6501 942.693 62.2865C941.986 62.7108 941.491 63.2058 940.996 63.8422C940.289 64.6907 939.935 65.7513 939.935 66.8827C939.935 67.5898 940.148 68.5091 940.501 69.1455C940.996 69.9233 941.562 70.3475 942.269 70.9132C943.047 71.4082 944.532 71.6203 945.38 71.3375C945.663 71.1961 946.087 71.0546 946.37 70.9132C947.006 70.4182 947.501 70.0647 947.855 69.4283Z"
        fill="#F7F6F0" />
    <path
        d="M950.4 80.7421C950.612 80.2471 950.825 79.7521 950.825 79.1865C950.825 78.9036 950.754 78.6915 950.754 78.4087C950.612 77.843 950.33 77.4187 949.905 76.9944C949.622 76.7116 949.269 76.4995 948.845 76.358C948.491 76.1459 948.138 76.0752 947.643 76.1459C947.218 76.1459 946.865 76.2166 946.441 76.358C946.016 76.4995 945.663 76.7116 945.38 76.9944C945.168 77.2066 945.026 77.4894 944.885 77.6308C944.673 78.1258 944.461 78.6208 944.461 79.1865C944.461 79.4693 944.531 79.6814 944.531 79.9643C944.673 80.53 944.956 80.9542 945.38 81.3785C945.663 81.6613 946.016 81.8735 946.441 82.0149C946.794 82.227 947.148 82.2977 947.643 82.227C948.067 82.227 948.42 82.1563 948.845 82.0149C949.269 81.8735 949.622 81.6613 949.905 81.3785C950.047 81.2371 950.188 80.9542 950.4 80.7421Z"
        fill="#F7F6F0" />
    <path
        d="M935.764 68.0849C936.188 67.2364 936.259 66.4586 936.117 65.6101C936.188 65.8222 936.117 66.0343 936.188 66.2464C936.188 65.9636 936.117 65.7515 936.117 65.4686C936.188 64.8323 936.046 64.1251 935.693 63.4887C935.127 62.4988 934.208 61.8624 933.006 61.6503C930.885 61.3674 929.258 62.8524 929.046 64.7615C928.763 65.8929 929.046 67.1657 929.612 68.0142C930.531 69.4991 932.369 70.2063 933.996 69.5699C934.703 69.287 935.339 68.792 935.764 68.0849Z"
        fill="#F7F6F0" />
    <path
        d="M275.441 244.904C283.785 235.287 291.422 225.105 298.069 214.357C301.604 208.7 304.786 202.831 307.544 196.82C308.18 195.477 313.908 184.517 311.221 184.658C294.109 185.507 277.916 193.073 264.269 202.901C251.4 212.235 237.54 224.397 237.965 241.651C238.248 250.419 246.096 255.581 254.299 255.581C262.501 255.581 270.279 250.914 275.441 244.904Z"
        fill="#B2B4CC" />
    <path
        d="M289.513 199.578C289.442 199.507 289.372 199.578 289.442 199.649C289.442 199.79 289.584 199.649 289.513 199.578Z"
        fill="#ECD8CB" />
    <path
        d="M292.483 199.295C292.412 198.659 292.271 198.093 291.776 197.598C291.351 197.174 290.715 196.962 290.079 196.891C289.796 196.891 289.442 196.962 289.159 197.103C288.877 197.245 288.594 197.386 288.382 197.598C287.957 198.022 287.674 198.588 287.674 199.295C287.745 199.932 287.887 200.497 288.382 200.992C288.806 201.417 289.442 201.629 290.079 201.699C290.361 201.699 290.715 201.629 290.998 201.487C291.281 201.346 291.564 201.204 291.776 200.992C292.271 200.497 292.553 199.932 292.483 199.295Z"
        fill="#F7F6F0" />
    <path
        d="M291.21 217.539C291.634 217.114 291.917 216.549 292.059 215.983C292.129 215.771 292.129 215.629 292.129 215.347C292.271 214.781 292.271 214.215 292.058 213.579C291.917 213.154 291.776 212.872 291.634 212.447C291.493 212.306 291.422 212.094 291.281 211.952C291.069 211.599 290.786 211.316 290.432 211.104C290.008 210.68 289.442 210.397 288.877 210.255C288.806 210.185 288.664 210.185 288.594 210.255C288.594 210.255 288.594 210.255 288.523 210.185C288.382 210.185 288.24 210.185 288.028 210.114H287.887L287.745 210.114C287.604 210.114 287.533 210.043 287.392 210.043C286.967 210.043 286.543 210.043 286.19 210.114L285.2 210.538C284.492 210.962 283.927 211.528 283.573 212.165C283.22 212.801 283.078 213.225 283.008 213.862C283.008 214.003 282.866 214.286 282.937 214.498C283.008 214.71 283.008 214.852 283.008 215.134C283.008 215.7 283.22 216.336 283.573 216.831C283.785 217.185 284.068 217.468 284.28 217.821C284.634 218.034 284.917 218.316 285.27 218.529C285.695 218.67 285.977 218.811 286.402 218.953C286.614 219.023 286.755 219.023 287.038 219.023C287.179 219.023 287.533 219.094 287.674 219.094C288.028 219.023 288.452 219.023 288.806 218.953C289.371 218.811 289.937 218.529 290.361 218.104C290.715 218.175 290.998 217.892 291.21 217.539Z"
        fill="#F7F6F0" />
    <path
        d="M274.239 216.124C274.451 215.347 274.451 214.498 274.239 213.579C273.815 211.882 272.471 210.538 270.774 210.114C269.077 209.69 267.31 210.185 266.108 211.387C265.683 211.811 265.4 212.235 265.047 212.73C264.764 213.296 264.481 213.862 264.481 214.569C264.34 215.135 264.41 215.771 264.552 216.478C264.693 216.902 264.905 217.256 265.047 217.68C265.33 218.246 265.825 218.741 266.32 219.094C266.603 219.377 266.956 219.589 267.38 219.731C267.946 220.014 268.512 220.155 269.219 220.155C269.643 220.155 270.067 220.014 270.492 220.014C271.34 219.731 272.118 219.377 272.754 218.741C272.825 218.67 272.896 218.599 273.037 218.458C273.603 217.751 274.098 216.973 274.239 216.124Z"
        fill="#F7F6F0" />
    <path
        d="M277.563 231.893C277.845 231.327 277.987 230.761 277.987 230.196C277.987 229.913 277.916 229.559 277.845 229.347C277.704 228.782 277.421 228.216 276.997 227.792C276.643 227.438 276.29 227.226 275.866 227.085C275.512 226.872 275.017 226.802 274.593 226.802C274.169 226.802 273.674 226.872 273.32 227.084C272.896 227.226 272.542 227.438 272.189 227.792L271.623 228.499C271.34 229.064 271.199 229.63 271.199 230.196C271.199 230.479 271.269 230.832 271.34 231.044C271.482 231.61 271.764 232.176 272.189 232.6C272.542 232.953 272.896 233.166 273.32 233.307C273.674 233.519 274.168 233.59 274.593 233.59C275.017 233.59 275.512 233.519 275.866 233.307C276.29 233.166 276.643 232.953 276.997 232.6C277.209 232.388 277.421 232.176 277.563 231.893Z"
        fill="#F7F6F0" />
    <path
        d="M262.855 235.428C263.845 234.438 264.481 233.095 264.269 231.751C264.199 231.398 264.128 231.044 264.128 230.761C263.986 230.196 263.774 229.701 263.421 229.347C262.855 228.64 262.219 228.145 261.229 227.862C260.097 227.438 258.754 227.65 257.693 228.287C256.986 228.711 256.491 229.206 255.996 229.842C255.289 230.691 254.935 231.751 254.935 232.883C254.935 233.59 255.148 234.509 255.501 235.145C255.996 235.923 256.562 236.348 257.269 236.913C258.047 237.408 259.532 237.62 260.38 237.337C260.663 237.196 261.087 237.055 261.37 236.913C262.006 236.418 262.501 236.065 262.855 235.428Z"
        fill="#F7F6F0" />
    <path
        d="M265.4 246.742C265.612 246.247 265.825 245.752 265.825 245.186C265.825 244.904 265.754 244.691 265.754 244.409C265.612 243.843 265.33 243.419 264.905 242.994C264.622 242.712 264.269 242.499 263.845 242.358C263.491 242.146 263.138 242.075 262.643 242.146C262.218 242.146 261.865 242.217 261.441 242.358C261.016 242.499 260.663 242.712 260.38 242.994C260.168 243.207 260.026 243.489 259.885 243.631C259.673 244.126 259.461 244.621 259.461 245.186C259.461 245.469 259.531 245.681 259.531 245.964C259.673 246.53 259.956 246.954 260.38 247.378C260.663 247.661 261.016 247.873 261.441 248.015C261.794 248.227 262.148 248.298 262.643 248.227C263.067 248.227 263.42 248.156 263.845 248.015C264.269 247.873 264.622 247.661 264.905 247.379C265.047 247.237 265.188 246.954 265.4 246.742Z"
        fill="#F7F6F0" />
    <path
        d="M250.764 234.085C251.188 233.236 251.259 232.459 251.117 231.61C251.188 231.822 251.117 232.034 251.188 232.246C251.188 231.964 251.117 231.751 251.117 231.469C251.188 230.832 251.046 230.125 250.693 229.489C250.127 228.499 249.208 227.862 248.006 227.65C245.885 227.367 244.258 228.852 244.046 230.762C243.763 231.893 244.046 233.166 244.612 234.014C245.531 235.499 247.369 236.206 248.996 235.57C249.703 235.287 250.339 234.792 250.764 234.085Z"
        fill="#F7F6F0" />
    <path
        d="M495.243 92.0258C493.152 89.6653 489.205 88.9239 486.423 87.6256C483.469 86.2276 480.606 84.8052 477.752 83.2342C482.456 82.7981 487.193 82.3043 491.896 81.8682C500.108 81.074 508.54 80.5612 516.22 77.2308C518.881 76.077 519.346 72.3477 517.5 70.3596C514.063 66.6073 509.712 64.1722 505.195 62.0253C504.471 61.6841 503.804 61.3762 503.08 61.035C505.624 60.3513 508.053 59.6011 510.491 58.7023C516.614 56.4721 522.862 54.1598 527.775 49.7706C530.518 47.2799 528.065 43.0195 524.607 43.5594C518.589 44.5436 512.926 47.0397 506.987 48.6845C501.048 50.3294 495.027 51.8501 488.918 52.8587C484.857 53.5118 483.212 59.0196 485.985 61.9275C489.71 65.8461 494.458 68.1259 499.372 70.1174C500.853 70.7421 502.459 71.2847 503.998 71.9427C499.176 72.8489 494.069 73.0523 489.308 73.4552C480.619 74.2807 471.929 75.1061 463.33 75.9071C459.344 76.2965 458.969 81.9989 461.896 83.8425C466.31 86.6989 470.767 89.349 475.415 91.8018C476.945 92.6083 478.509 93.3572 479.981 94.1304C479.106 94.317 478.206 94.4126 477.331 94.5991C472.634 95.4232 467.969 96.1897 463.248 96.9229C453.862 98.4226 444.5 100.013 435.388 102.901C432.199 103.904 429.544 106.907 430.457 110.509C431.225 113.566 434.592 116.509 438.054 115.433C450.174 111.591 462.812 109.509 475.296 107.031C478.343 106.407 481.357 105.841 484.331 104.944C487.214 104.072 490.681 103.383 493.313 101.751C496.622 99.7407 498.031 95.1731 495.243 92.0258Z"
        fill="#F8AC67" />
    <path
        d="M1214.24 220.026C1212.15 217.665 1208.2 216.924 1205.42 215.626C1202.47 214.228 1199.61 212.805 1196.75 211.234C1201.46 210.798 1206.19 210.304 1210.9 209.868C1219.11 209.074 1227.54 208.561 1235.22 205.231C1237.88 204.077 1238.35 200.348 1236.5 198.36C1233.06 194.607 1228.71 192.172 1224.19 190.025C1223.47 189.684 1222.8 189.376 1222.08 189.035C1224.62 188.351 1227.05 187.601 1229.49 186.702C1235.61 184.472 1241.86 182.16 1246.78 177.771C1249.52 175.28 1247.07 171.019 1243.61 171.559C1237.59 172.544 1231.93 175.04 1225.99 176.685C1220.05 178.329 1214.03 179.85 1207.92 180.859C1203.86 181.512 1202.21 187.02 1204.99 189.928C1208.71 193.846 1213.46 196.126 1218.37 198.117C1219.85 198.742 1221.46 199.285 1223 199.943C1218.18 200.849 1213.07 201.052 1208.31 201.455C1199.62 202.281 1190.93 203.106 1182.33 203.907C1178.34 204.296 1177.97 209.999 1180.9 211.843C1185.31 214.699 1189.77 217.349 1194.42 219.802C1195.95 220.608 1197.51 221.357 1198.98 222.13C1198.11 222.317 1197.21 222.413 1196.33 222.599C1191.63 223.423 1186.97 224.19 1182.25 224.923C1172.86 226.423 1163.5 228.013 1154.39 230.901C1151.2 231.904 1148.54 234.907 1149.46 238.509C1150.23 241.566 1153.59 244.509 1157.05 243.433C1169.17 239.591 1181.81 237.509 1194.3 235.031C1197.34 234.407 1200.36 233.841 1203.33 232.944C1206.21 232.072 1209.68 231.383 1212.31 229.751C1215.62 227.741 1217.03 223.173 1214.24 220.026Z"
        fill="#F8AC67" />
</svg>