<svg width="356" height="379" viewBox="0 0 356 379" fill="none" xmlns="http://www.w3.org/2000/svg">
    <path fill-rule="evenodd" clip-rule="evenodd"
        d="M162.026 35.9702C119.216 56.3433 92.6359 20.3132 17.3032 122.086C-1.24749 147.148 -5.69711 184.95 7.93867 205.078C55.6096 275.445 154.924 407.346 257.912 373.564C276.205 367.564 313.215 319.369 322.376 301.338C341.287 264.12 363.248 136.581 353.686 98.9383C346.468 70.527 318.883 30.3402 297.763 9.55701C268.866 -18.8791 187.066 24.0532 162.026 35.9702V35.9702Z"
        fill="#FAD6D1" />
    <path fill-rule="evenodd" clip-rule="evenodd"
        d="M208.344 114.953C207.572 120.162 210.216 133.356 205.137 143.592C184.837 184.508 115.479 240.624 159.104 287.597C167.302 296.424 179.911 305.382 192.79 306.05C300.709 311.652 352.144 179.509 290.812 108.098C285.526 101.944 281.746 100.656 275.868 95.3727C267.709 88.0401 244.316 84.6422 223.337 91.2806C216.397 93.4766 209.288 108.583 208.344 114.953V114.953Z"
        fill="#F1EBD8" />
    <path fill-rule="evenodd" clip-rule="evenodd"
        d="M208.344 114.953L208.22 114.935C208.77 111.185 211.442 104.415 214.962 99.0105C217.459 95.1769 220.388 92.0352 223.284 91.1127C234.244 87.6203 245.869 86.8637 255.646 87.9779C264.666 89.0059 272.116 91.6334 276.057 95.1617C280.307 98.9658 283.459 100.691 286.876 103.666C288.204 104.822 289.571 106.166 291.056 107.888C322.505 144.384 324.556 196.788 304.624 238.644C285.441 278.926 245.914 309.419 192.757 306.699C186.257 306.362 179.822 303.956 173.974 300.51C168.087 297.041 162.795 292.521 158.631 288.035C144.955 273.293 142.246 257.664 145.67 241.89C149.391 224.749 160.375 207.426 172.296 190.912C184.55 173.936 197.799 157.818 204.988 143.518C206.752 140.014 207.602 136.154 207.993 132.388C208.74 125.205 207.819 118.361 208.344 114.953V114.953ZM208.344 114.953C207.858 118.37 208.858 125.209 208.193 132.408C207.841 136.21 207.025 140.112 205.287 143.666C198.24 158.058 185.194 174.367 173.059 191.458C161.362 207.933 150.517 225.135 146.879 242.151C143.587 257.551 146.218 272.788 159.577 287.157C163.664 291.556 168.858 295.987 174.635 299.388C180.301 302.725 186.528 305.074 192.824 305.401C245.437 308.171 284.552 277.998 303.634 238.171C323.523 196.661 321.673 144.645 290.568 108.308C289.112 106.606 287.77 105.278 286.467 104.134C283.061 101.144 279.914 99.4053 275.679 95.5833C271.048 91.4048 261.451 88.516 250.184 88.0223C241.733 87.6521 232.343 88.6348 223.39 91.4484C220.548 92.3417 217.681 95.4287 215.219 99.1784C211.703 104.533 209.026 111.249 208.468 114.971L208.344 114.953V114.953Z"
        fill="white" />
    <g clip-path="url(#clip0_366_233)">
        <path
            d="M313.263 227.966C313.199 228.051 313.12 228.121 313.133 228.164C313.317 228.774 312.758 229.143 312.645 229.657C312.623 229.756 312.424 229.809 312.324 229.901C312.184 230.031 312.058 230.177 311.93 230.32C311.898 230.356 311.895 230.419 311.862 230.453C311.136 231.191 310.863 232.27 309.927 232.879C309.567 233.113 309.443 233.708 309.205 234.135C309.073 234.372 308.966 234.637 308.783 234.828C308.12 235.524 307.427 236.193 306.752 236.878C306.644 236.986 306.5 237.123 306.491 237.254C306.425 238.226 305.521 238.766 305.285 239.644C305.255 239.758 305.169 239.875 305.184 239.979C305.289 240.675 304.911 241.203 304.595 241.754C304.528 241.87 304.423 241.995 304.423 242.115C304.427 242.794 303.987 243.279 303.744 243.852C303.542 244.326 303.277 244.69 302.946 245.049C302.878 245.122 302.895 245.283 302.892 245.403C302.873 246.34 302.18 247.31 301.291 247.652C301.135 247.712 300.969 247.787 300.852 247.9C300.316 248.416 299.817 248.973 299.264 249.468C298.288 250.343 297.683 251.479 297.017 252.571C296.756 252.999 296.596 253.488 296.349 253.925C296.181 254.222 295.786 254.464 295.76 254.754C295.645 256.046 294.463 256.481 293.792 257.316C293.6 257.556 293.182 257.601 292.921 257.804C292.747 257.94 292.691 258.218 292.539 258.397C292.331 258.644 292.107 258.892 291.845 259.076C291.389 259.394 290.91 259.683 290.42 259.947C289.963 260.193 289.482 260.396 289.005 260.604C288.868 260.665 288.675 260.637 288.567 260.724C287.272 261.76 285.766 262.598 284.837 263.99C284.51 264.479 284.165 264.962 283.768 265.363C283.405 265.731 282.805 265.852 282.381 266.176C281.915 266.532 281.535 267.001 281.108 267.411C280.961 267.553 280.805 267.709 280.622 267.787C280.175 267.978 279.6 268.01 279.274 268.316C278.511 269.034 277.519 269.285 276.672 269.81C276.195 270.105 275.835 270.584 275.391 270.94C275.188 271.103 274.911 271.175 274.664 271.279C274.216 271.468 273.744 271.612 273.319 271.841C271.901 272.603 270.946 273.895 269.865 275.024C269.562 275.34 269.332 275.682 268.914 275.862C268.808 275.908 268.728 276.047 268.667 276.16C268.12 277.167 267.386 277.971 266.346 278.506C266.085 278.64 265.974 279.039 265.749 279.275C265.498 279.539 265.229 279.816 264.912 279.98C264.138 280.38 263.35 280.77 262.532 281.064C261.933 281.278 261.424 281.814 260.693 281.635C260.562 281.604 260.364 281.658 260.258 281.746C259.522 282.349 258.789 282.956 258.086 283.597C257.898 283.769 257.875 284.129 257.681 284.285C257.287 284.602 256.817 284.825 256.4 285.117C256.191 285.262 255.979 285.446 255.858 285.662C255.671 285.994 255.475 286.233 255.072 286.324C254.804 286.384 254.584 286.629 254.321 286.738C253.33 287.151 252.284 287.458 251.356 287.98C250.938 288.215 250.579 288.248 250.164 288.268C250.075 288.273 249.955 288.242 249.902 288.288C249.081 288.998 248.094 288.592 247.187 288.71C246.922 288.744 246.665 288.848 246.405 288.922C246.292 288.955 246.176 289.037 246.07 289.024C245.205 288.919 244.562 289.398 243.889 289.817C243.678 289.949 243.435 290.033 243.198 290.117C242.811 290.255 242.59 290.508 242.355 290.862C242.157 291.162 241.638 291.257 241.252 291.421C241.114 291.48 240.913 291.429 240.803 291.511C240.351 291.85 239.839 291.834 239.314 291.886C238.934 291.924 238.505 292.111 238.226 292.37C237.92 292.654 237.611 292.578 237.288 292.635C236.995 292.686 236.715 292.823 236.433 292.929C236.355 292.959 236.291 293.045 236.214 293.055C235.334 293.171 234.454 293.356 233.573 293.361C232.887 293.366 232.415 293.738 231.87 294.007C231.734 294.075 231.62 294.23 231.483 294.249C230.55 294.375 229.612 294.463 228.68 294.592C228.402 294.631 228.134 294.758 227.865 294.854C227.739 294.898 227.622 295.008 227.498 295.013C226.704 295.043 226.107 295.44 225.54 295.957C225.273 296.2 224.92 296.391 224.572 296.495C223.517 296.809 222.778 297.657 221.796 298.078C221.365 298.263 220.888 298.337 220.452 298.513C220.032 298.682 219.621 298.888 219.241 299.133C218.89 299.36 217.905 299.445 217.491 299.432C216.699 299.407 215.868 299.117 215.106 299.638C214.994 299.715 214.734 299.662 214.587 299.585C214.086 299.323 213.687 299.35 213.13 299.6C212.679 299.802 212.164 300.047 211.664 300.11C211.049 300.187 210.606 300.556 210.076 300.766C209.529 300.982 209.057 301.315 208.411 301.378C207.751 301.442 207.067 301.626 206.432 301.966C206.095 302.147 205.52 302.097 205.14 301.94C204.389 301.629 203.728 301.477 202.974 301.951C202.731 302.103 202.232 302.079 201.972 301.927C201.419 301.603 200.851 301.644 200.281 301.674C199.813 301.699 199.503 301.528 199.139 301.243C198.686 300.887 198.203 300.479 197.518 300.563C197.071 300.619 196.611 300.589 196.159 300.566C195.979 300.558 195.777 300.504 195.631 300.405C195.09 300.036 194.809 300.072 194.206 300.385C193.887 300.55 193.461 300.501 193.09 300.579C192.811 300.637 192.546 300.764 192.267 300.82C192.078 300.857 191.869 300.853 191.681 300.812C191.453 300.763 191.241 300.597 191.018 300.586C190.589 300.565 190.17 300.597 189.856 300.211C189.799 300.14 189.629 300.144 189.511 300.141C189.112 300.133 188.706 300.093 188.315 300.147C187.425 300.27 186.688 299.93 185.975 299.474C185.905 299.43 185.817 299.373 185.744 299.381C184.557 299.516 183.745 298.689 182.778 298.254C182.536 298.145 182.221 298.186 181.938 298.181C181.284 298.168 180.692 298.212 180.126 297.628C179.795 297.288 179.226 296.899 178.567 296.96C178.352 296.98 178.125 296.705 177.886 296.665C177.212 296.551 176.619 296.077 175.89 296.216C175.841 296.225 175.767 296.227 175.737 296.198C175 295.48 174.079 295.864 173.239 295.792C172.837 295.757 172.477 295.698 172.089 295.538C171.638 295.354 171.082 295.449 170.592 295.335C169.921 295.179 169.276 294.912 168.606 294.749C168.169 294.642 167.707 294.59 167.257 294.594C166.44 294.603 165.796 294.265 165.211 293.739C164.261 292.886 163.301 292.043 162.344 291.197C162.305 291.162 162.258 291.099 162.222 291.104C161.383 291.224 160.838 290.584 160.15 290.316C159.728 290.152 159.278 289.905 158.854 289.93C157.998 289.98 157.385 289.527 156.705 289.168C156.488 289.053 156.202 289.069 155.946 289.032C155.734 289 155.468 289.049 155.316 288.938C154.601 288.416 153.917 287.852 153.224 287.301C153.167 287.256 153.081 287.203 153.075 287.147C152.983 286.249 152.13 286.088 151.573 285.704C151.066 285.354 150.668 285.049 150.401 284.454C150.132 283.856 149.593 283.382 149.202 282.833C149.06 282.633 149.002 282.374 148.909 282.14C148.834 281.953 148.757 281.766 148.697 281.575C148.647 281.413 148.589 281.244 148.587 281.078C148.577 280.485 148.614 279.913 148.254 279.358C148.007 278.977 147.991 278.454 147.802 278.026C147.727 277.855 147.343 277.627 147.301 277.663C146.668 278.2 145.921 278.011 145.213 278.025C144.938 278.031 144.541 278.058 144.412 277.901C144.132 277.56 143.862 277.121 143.814 276.696C143.691 275.607 143.394 274.588 142.795 273.685C142.511 273.256 142.659 272.829 142.585 272.405C142.539 272.143 142.43 271.891 142.346 271.635C142.325 271.571 142.259 271.505 142.27 271.452C142.442 270.584 141.78 269.967 141.612 269.223C141.376 268.175 140.606 267.383 140.363 266.422C140.1 265.381 139.406 264.569 139.167 263.596C138.998 262.909 138.459 262.301 138.642 261.499C138.689 261.296 138.418 260.968 138.218 260.775C137.971 260.538 137.9 260.297 137.903 259.97C137.916 258.21 137.917 256.45 137.9 254.689C137.897 254.465 137.758 254.243 137.693 254.017C137.614 253.74 137.515 253.464 137.48 253.181C137.386 252.425 137.587 251.67 137.19 250.899C136.954 250.44 137.155 249.76 137.142 249.18C137.138 249.012 137.124 248.808 137.03 248.687C136.609 248.143 136.551 247.454 136.752 246.925C137.034 246.184 136.949 245.366 137.217 244.724C137.499 244.051 137.322 243.43 137.486 242.819C137.676 242.115 137.894 241.423 138.049 240.707C138.144 240.271 138.575 239.918 138.802 239.499C138.952 239.223 138.999 238.893 139.109 238.593C139.311 238.042 139.525 237.495 139.739 236.948C139.757 236.902 139.838 236.876 139.848 236.831C140.004 236.114 140.179 235.4 140.295 234.677C140.354 234.305 140.235 233.899 140.321 233.539C140.456 232.97 140.714 232.432 140.887 231.871C141.134 231.065 141.822 230.453 141.851 229.539C141.861 229.232 142.101 228.922 142.269 228.633C142.553 228.148 142.869 227.684 143.16 227.204C143.379 226.843 143.581 226.471 143.79 226.104C143.915 225.883 144.036 225.661 144.164 225.442C144.437 224.974 144.737 224.52 144.981 224.038C145.276 223.458 145.532 222.878 145.995 222.381C146.574 221.76 147.018 221.021 147.402 220.251C147.846 219.361 148.339 218.497 148.792 217.613C148.875 217.452 148.847 217.238 148.914 217.065C149.017 216.8 149.138 216.537 149.289 216.296C149.426 216.078 149.732 215.905 149.757 215.687C149.903 214.44 150.743 213.513 151.202 212.415C151.228 212.353 151.307 212.29 151.298 212.24C151.161 211.507 151.706 211.151 152.126 210.729C153.06 209.789 154 208.856 154.935 207.917C155.267 207.584 155.589 207.27 155.767 206.791C155.94 206.326 156.316 205.939 156.581 205.504C156.799 205.144 156.966 204.753 157.189 204.397C157.441 203.992 157.739 203.616 157.999 203.216C158.145 202.994 158.268 202.754 158.376 202.51C158.423 202.404 158.36 202.229 158.426 202.154C159.047 201.444 159.548 200.597 160.519 200.273C160.618 200.24 160.737 200.148 160.771 200.056C161.14 199.061 161.864 198.423 162.797 197.978C162.941 197.91 163.152 197.77 163.156 197.657C163.172 197.181 163.463 197.187 163.824 197.096C164.302 196.976 164.818 196.772 165.176 196.447C166.182 195.533 167.118 194.541 168.076 193.574C168.169 193.48 168.279 193.347 168.283 193.229C168.323 192.14 169.145 191.687 169.916 191.202C170.399 190.897 170.838 190.607 171.042 190.003C171.141 189.711 171.527 189.508 171.796 189.282C172.236 188.913 172.706 188.578 173.128 188.19C173.654 187.708 174.048 187.113 174.78 186.826C175.179 186.669 175.429 186.141 175.758 185.792C176.053 185.48 176.358 185.178 176.669 184.882C176.794 184.764 176.959 184.689 177.081 184.569C177.626 184.036 178.18 183.51 178.693 182.948C178.968 182.647 179.169 182.278 179.399 181.937C179.693 181.5 180 181.07 180.269 180.618C180.768 179.778 181.233 178.917 181.733 178.078C182.002 177.625 182.328 177.207 182.604 176.758C182.86 176.342 183.12 175.921 183.311 175.473C183.614 174.768 183.823 174.061 184.694 173.759C185.095 173.62 185.373 173.125 185.706 172.791C186.078 172.419 186.442 172.038 186.826 171.678C187.096 171.423 187.333 171.179 187.25 170.757C187.227 170.641 187.296 170.485 187.366 170.376C187.663 169.916 187.978 169.468 188.285 169.013C188.341 168.929 188.43 168.839 188.431 168.75C188.445 167.765 189.211 167.103 189.495 166.25C189.844 165.202 190.551 164.474 191.273 163.71C191.574 163.392 191.731 162.928 191.919 162.515C192.321 161.628 193.01 160.972 193.805 160.502C194.192 160.273 194.537 160.085 194.752 159.697C194.858 159.507 194.929 159.297 195.037 159.108C195.299 158.653 195.63 158.228 195.829 157.748C196.087 157.125 196.184 156.433 196.686 155.923C196.725 155.883 196.718 155.787 196.713 155.719C196.627 154.722 197.136 153.993 197.704 153.235C198.029 152.8 198.385 152.306 198.372 151.658C198.367 151.375 198.612 151.076 198.772 150.801C199.055 150.317 199.363 149.848 199.652 149.368C199.791 149.137 199.929 148.902 200.035 148.656C200.25 148.158 200.526 147.72 200.903 147.316C201.078 147.128 201.001 146.718 201.077 146.418C201.138 146.176 201.206 145.909 201.357 145.723C201.761 145.226 202.429 144.892 202.276 144.08C202.266 144.023 202.36 143.926 202.428 143.878C202.949 143.506 203.099 143.011 203.052 142.381C203.032 142.128 203.269 141.863 203.353 141.591C203.616 140.747 203.913 139.911 203.806 138.995C203.784 138.799 203.936 138.584 204.003 138.376C204.081 138.136 204.194 137.898 204.219 137.651C204.256 137.292 204.219 136.926 204.231 136.564C204.244 136.166 204.168 135.788 204.52 135.42C204.803 135.125 204.544 134.513 204.991 134.211C204.592 133.854 204.944 133.493 204.996 133.14C205.12 132.296 205.508 131.595 206.142 131.007C206.367 130.8 206.476 130.463 206.621 130.176C206.743 129.938 206.803 129.659 206.957 129.447C207.359 128.89 207.611 128.282 207.874 127.646C208.167 126.937 207.912 126.103 208.474 125.498C208.518 125.451 208.553 125.383 208.564 125.319C208.683 124.569 208.822 123.821 208.9 123.066C208.941 122.676 208.944 122.327 209.245 122.001C209.539 121.683 209.695 121.242 209.958 120.889C210.383 120.317 210.846 119.774 211.291 119.216C211.31 119.193 211.313 119.146 211.305 119.115C211.138 118.415 211.688 118.103 212.057 117.681C212.376 117.316 212.609 116.872 212.952 116.536C213.232 116.262 213.603 116.066 213.961 115.892C214.211 115.77 214.501 115.752 214.476 115.36C214.47 115.267 214.598 115.156 214.681 115.07C215.062 114.681 215.438 114.287 215.837 113.917C216.373 113.419 216.615 112.765 216.868 112.109C216.927 111.954 217.047 111.767 217.187 111.707C217.592 111.535 217.633 111.218 217.626 110.853C217.624 110.751 217.621 110.612 217.681 110.554C218.321 109.927 218.97 109.31 219.623 108.697C219.734 108.593 219.943 108.551 219.994 108.432C220.355 107.588 220.923 107.03 221.812 106.689C222.261 106.518 222.566 105.976 222.944 105.61C223.093 105.466 223.256 105.335 223.423 105.212C223.683 105.021 223.954 104.845 224.217 104.657C224.303 104.596 224.37 104.47 224.459 104.455C225.3 104.314 225.65 103.548 226.234 103.083C226.366 102.978 226.536 102.811 226.664 102.831C227.167 102.908 227.466 102.643 227.768 102.314C228.126 101.922 228.469 101.496 229.113 101.601C229.221 101.619 229.365 101.441 229.489 101.347C230.765 100.385 231.909 99.2666 233.126 98.2442C233.769 97.7038 234.424 97.1355 235.109 96.6307C235.628 96.2476 236.275 96.0403 236.853 95.7311C237.168 95.5628 237.457 95.3463 237.756 95.1496C238.213 94.8492 238.644 94.5144 239.245 94.5313C239.905 94.5499 240.536 94.5689 241.176 94.1872C241.552 93.9623 242.172 94.1908 242.654 94.0847C243.307 93.9408 243.93 93.6671 244.569 93.4591C244.746 93.4013 244.95 93.3139 245.116 93.3512C245.932 93.534 246.563 93.072 247.215 92.7501C247.884 92.4194 248.503 92.0294 249.307 92.1243C249.547 92.1527 249.812 91.9626 250.067 91.8791C250.259 91.8163 250.455 91.7158 250.649 91.7142C252.301 91.7011 253.952 91.7039 255.604 91.7114C255.752 91.7121 255.937 91.7354 256.042 91.8232C256.511 92.2135 257.062 92.1156 257.6 92.155C257.857 92.1739 258.115 92.3066 258.354 92.426C258.641 92.5697 258.962 92.7041 259.174 92.9307C259.729 93.5251 260.429 93.2728 261.078 93.3497C261.374 93.3848 261.657 93.5216 261.946 93.6146C262.009 93.6351 262.07 93.6869 262.132 93.6874C262.777 93.6929 263.29 94.2137 263.978 94.1168C264.494 94.0441 265.028 94.1 265.555 94.1031C266.146 94.1066 266.703 94.2774 267.271 94.3968C268.175 94.5869 268.83 95.2671 269.79 95.3535C270.456 95.4134 271.069 95.9905 271.722 96.3024C272.22 96.5406 272.744 96.7257 273.256 96.9335C273.35 96.9713 273.456 96.9875 273.537 97.0425C274.02 97.3705 274.528 97.6711 274.965 98.0527C275.28 98.3278 275.582 98.5228 276 98.4555C276.437 98.385 276.757 98.5411 277.023 98.8854C277.52 99.5278 278.261 99.7785 278.965 100.105C279.44 100.326 279.841 100.701 280.301 100.96C280.96 101.331 281.643 101.66 282.318 102.004C282.376 102.034 282.449 102.04 282.515 102.052C283.142 102.161 283.788 102.207 284.388 102.399C284.877 102.555 285.282 102.981 285.772 103.12C286.597 103.355 287.335 103.647 287.988 104.251C288.327 104.565 288.937 104.564 289.385 104.786C289.914 105.048 290.546 105.133 290.917 105.689C291.234 106.163 291.57 106.633 291.957 107.05C292.181 107.291 292.54 107.401 292.803 107.613C293.033 107.799 293.313 108.014 293.395 108.272C293.551 108.764 293.788 109.078 294.317 109.134C294.396 109.143 294.479 109.191 294.543 109.241C295.093 109.671 295.659 110.081 296.177 110.546C296.53 110.863 296.816 111.202 297.375 111.112C297.542 111.085 297.85 111.267 297.924 111.431C298.275 112.203 299.064 112.389 299.697 112.686C300.336 112.986 300.756 113.438 301.133 113.951C301.395 114.308 301.464 114.803 301.716 115.17C301.916 115.46 302.265 115.646 302.543 115.883C302.771 116.077 303.078 116.236 303.2 116.484C303.487 117.07 303.764 117.634 304.189 118.152C304.525 118.561 304.639 119.154 304.85 119.665C305.024 120.083 305.163 120.519 305.377 120.916C305.721 121.557 306.095 122.184 306.494 122.793C306.66 123.046 306.937 123.222 307.135 123.457C307.323 123.679 307.472 123.933 307.641 124.171C307.718 124.278 307.786 124.4 307.885 124.482C308.369 124.883 308.948 125.205 309.327 125.687C309.655 126.103 309.878 126.626 310.004 127.2C310.125 127.745 310.523 128.236 310.836 128.727C311.017 129.012 311.346 129.217 311.476 129.515C311.669 129.957 311.991 130.353 311.956 130.907C311.94 131.145 312.25 131.39 312.357 131.654C312.529 132.073 312.661 132.509 312.798 132.941C312.916 133.31 312.972 133.707 313.138 134.052C313.359 134.508 313.676 134.917 313.922 135.362C314.083 135.654 314.265 135.965 314.308 136.286C314.377 136.799 314.479 137.289 314.604 137.793C314.947 139.184 315.812 140.31 316.317 141.611C316.498 142.076 317.078 142.372 317.42 142.791C317.639 143.059 317.857 143.4 317.89 143.727C317.925 144.07 318.029 144.308 318.279 144.499C319.116 145.138 319.303 146.19 319.875 146.997C320.041 147.231 320.156 147.502 320.321 147.736C320.659 148.217 320.992 148.68 320.978 149.321C320.965 149.886 320.909 150.505 321.112 151.004C321.333 151.548 321.311 152.162 321.699 152.676C321.906 152.949 321.831 153.457 321.833 153.86C321.837 154.724 322.12 155.505 322.519 156.245C322.832 156.827 323.23 157.364 323.54 157.948C323.687 158.224 323.688 158.574 323.806 158.871C323.965 159.276 324.172 159.663 324.361 160.056C324.376 160.087 324.433 160.107 324.434 160.134C324.463 160.931 325.242 161.587 324.967 162.396C324.816 162.841 324.688 163.065 324.928 163.601C325.207 164.223 325.511 164.985 325.335 165.778C325.234 166.236 325.046 166.678 325.298 167.205C325.536 167.704 325.075 168.158 324.828 168.563C324.489 169.122 324.417 170.319 324.858 170.78C325.13 171.064 324.938 171.258 324.791 171.456C324.455 171.906 324.462 172.713 324.828 173.157C324.884 173.225 324.979 173.286 324.991 173.36C325.109 174.112 325.285 174.864 325.309 175.62C325.358 177.179 325.323 178.741 325.323 180.302C325.323 180.429 325.375 180.592 325.315 180.677C324.728 181.526 325.117 182.482 324.988 183.377C324.948 183.654 324.799 183.914 324.704 184.183C324.653 184.325 324.574 184.469 324.568 184.614C324.549 185.049 324.579 185.486 324.557 185.92C324.531 186.435 324.711 186.979 324.25 187.435C324.112 187.571 324.148 187.896 324.129 188.136C324.093 188.583 324.243 189.065 323.826 189.433C323.761 189.491 323.8 189.673 323.8 189.797C323.798 191.013 323.794 192.229 323.805 193.445C323.806 193.608 323.847 193.802 323.941 193.928C324.232 194.318 324.186 194.704 324.012 195.114C323.96 195.237 323.87 195.442 323.919 195.495C324.284 195.885 324.108 196.35 324.117 196.777C324.141 197.92 324.087 199.065 324.138 200.206C324.175 201.031 323.911 201.708 323.505 202.404C323.232 202.871 323.01 203.383 322.994 204.001C322.981 204.495 322.583 204.976 322.37 205.469C322.283 205.669 322.198 205.879 322.172 206.093C322.106 206.621 322.289 207.172 321.861 207.664C321.718 207.829 321.839 208.225 321.839 208.515C321.839 209.096 321.848 209.677 321.833 210.257C321.828 210.441 321.812 210.675 321.702 210.795C321.333 211.197 321.284 211.528 321.734 211.911C321.816 211.981 321.747 212.277 321.688 212.448C321.644 212.572 321.399 212.689 321.419 212.761C321.576 213.338 321.153 213.711 320.963 214.162C320.885 214.348 320.792 214.545 320.653 214.683C320.364 214.969 320.316 215.344 320.165 215.681C319.897 216.277 319.828 216.923 319.432 217.513C318.679 218.637 317.735 219.551 316.809 220.499C316.784 220.525 316.733 220.554 316.736 220.576C316.873 221.619 315.797 222.065 315.581 222.93C315.535 223.115 315.606 223.358 315.511 223.497C315.129 224.055 315.109 224.684 315.018 225.316C314.965 225.681 314.747 226.045 314.529 226.358C314.146 226.906 313.706 227.414 313.263 227.966ZM315.196 163.09C315.051 162.392 314.907 161.693 314.759 160.996C314.734 160.881 314.717 160.745 314.646 160.664C314.288 160.252 314.322 159.763 314.321 159.27C314.318 158.551 314.048 157.916 313.539 157.423C313.227 157.121 313.087 156.824 313.114 156.39C313.137 156.047 313.065 155.694 313.004 155.351C312.969 155.156 312.868 154.973 312.801 154.783C312.727 154.578 312.659 154.37 312.586 154.164C312.513 153.958 312.393 153.758 312.374 153.547C312.336 153.131 312.439 152.699 312.048 152.365C311.945 152.277 311.928 152.042 311.935 151.878C311.974 151.035 311.652 150.339 311.039 149.801C310.571 149.392 310.285 148.959 310.396 148.315C310.417 148.195 310.362 148.036 310.29 147.929C309.816 147.224 309.688 146.31 308.973 145.746C308.899 145.688 308.914 145.522 308.879 145.409C308.692 144.797 308.505 144.185 308.309 143.576C308.289 143.514 308.214 143.467 308.158 143.421C307.827 143.146 307.621 142.823 307.674 142.365C307.688 142.24 307.637 142.088 307.568 141.978C307.131 141.268 306.653 140.582 306.242 139.857C305.886 139.23 305.651 138.532 305.272 137.922C304.887 137.299 304.475 136.704 304.303 135.978C304.266 135.818 304.109 135.679 304.097 135.523C304.034 134.731 304.213 133.939 303.686 133.176C303.392 132.751 303.438 132.091 303.322 131.538C303.302 131.443 303.252 131.344 303.19 131.268C302.629 130.591 302.071 129.912 301.495 129.248C301.086 128.776 300.657 128.32 300.223 127.871C300.122 127.766 299.965 127.661 299.829 127.655C299.551 127.644 299.396 127.591 299.391 127.264C299.389 127.137 299.232 127.008 299.137 126.886C298.479 126.041 297.971 125.075 297.1 124.404C297.044 124.361 297.04 124.251 297.009 124.173C296.731 123.472 296.549 122.707 296.147 122.086C295.704 121.402 295.072 120.834 294.49 120.248C294.338 120.093 294.058 120.073 293.853 119.961C293.51 119.775 293.175 119.575 292.85 119.361C292.761 119.303 292.673 119.182 292.661 119.081C292.603 118.582 292.283 118.342 291.859 118.16C291.703 118.094 291.531 117.955 291.466 117.805C291.227 117.249 290.862 116.85 290.294 116.617C289.906 116.457 289.501 116.291 289.178 116.034C288.524 115.514 287.975 114.906 287.22 114.461C286.174 113.843 285.333 112.886 284.361 112.132C283.957 111.818 283.459 111.539 282.967 111.45C282.521 111.37 282.248 111.154 281.935 110.894C281.501 110.533 281.065 110.098 280.553 109.928C280.047 109.761 279.624 109.252 279 109.448C278.957 109.461 278.879 109.324 278.805 109.278C278.258 108.935 277.713 108.589 277.156 108.262C276.764 108.033 276.297 107.899 275.965 107.607C275.305 107.027 274.609 106.634 273.706 106.736C273.283 106.784 272.991 106.589 272.671 106.326C272.284 106.007 271.819 105.603 271.368 105.578C270.484 105.528 269.811 105.018 269.132 104.647C268.179 104.128 267.432 103.244 266.541 102.593C266.118 102.285 265.583 102.081 265.069 101.962C264.453 101.819 263.753 102.14 263.186 101.625C263.116 101.562 262.94 101.616 262.813 101.616C261.651 101.616 260.489 101.617 259.328 101.616C259.201 101.616 259.008 101.668 258.958 101.606C258.397 100.912 257.628 101.27 256.949 101.179C256.781 101.156 256.592 101.151 256.452 101.069C255.743 100.65 255.038 100.291 254.16 100.406C253.624 100.475 253.072 100.416 252.528 100.42C252.406 100.421 252.232 100.395 252.17 100.463C251.846 100.82 251.43 100.742 251.03 100.744C250.376 100.748 249.719 100.699 249.071 100.758C248.378 100.821 247.785 101.368 247.035 101.229C247.015 101.225 246.987 101.28 246.958 101.301C246.404 101.702 245.82 102.03 245.101 101.941C244.26 101.837 243.593 102.653 242.722 102.384C242.705 102.379 242.668 102.429 242.646 102.457C242.363 102.84 241.956 102.832 241.541 102.817C241.382 102.811 241.194 102.782 241.068 102.851C240.474 103.174 239.858 103.468 239.424 104.028C239.31 104.177 239.093 104.27 238.904 104.332C238.513 104.461 238.384 104.813 238.694 105.085C239.001 105.354 239.339 105.626 239.713 105.772C240.509 106.084 241.165 106.744 242.091 106.741C242.2 106.74 242.321 106.804 242.416 106.868C242.983 107.244 243.549 107.589 244.281 107.51C244.442 107.493 244.62 107.641 244.79 107.712C245.316 107.931 245.832 108.293 246.372 108.333C247.088 108.386 247.604 108.71 248.138 109.095C248.709 109.505 249.268 109.943 249.88 110.28C250.866 110.822 251.856 111.4 252.914 111.752C253.527 111.955 254.191 112.065 254.828 112.257C255.19 112.366 255.544 112.407 255.781 112.719C256.002 113.008 256.279 113.073 256.627 113.061C256.898 113.052 257.249 113.044 257.43 113.196C257.955 113.637 258.438 114.135 258.886 114.655C259.184 115.001 259.439 115.318 259.916 115.477C260.208 115.574 260.406 115.963 260.636 116.231C260.815 116.44 260.975 116.665 261.146 116.88C261.375 117.167 261.712 117.419 261.813 117.745C262.006 118.369 262.502 118.656 262.952 119.006C263.29 119.269 263.659 119.491 264.002 119.748C264.061 119.791 264.106 119.94 264.076 120.001C263.771 120.631 263.422 121.231 262.856 121.678C262.742 121.768 262.633 121.919 262.606 122.059C262.495 122.638 262.065 122.936 261.622 123.217C261.518 123.283 261.29 123.322 261.233 123.263C260.806 122.819 260.37 122.556 259.7 122.443C259.122 122.346 258.556 121.802 258.117 121.332C257.43 120.596 256.507 120.296 255.69 119.804C255.43 119.648 255.153 119.381 254.892 119.391C253.96 119.425 253.318 118.779 252.537 118.476C251.567 118.098 250.766 117.271 249.604 117.401C249.532 117.409 249.448 117.345 249.375 117.305C248.709 116.941 248.052 116.559 247.377 116.213C246.63 115.829 245.865 115.48 245.111 115.11C244.538 114.828 243.986 114.355 243.394 114.3C242.808 114.246 242.415 113.904 241.919 113.743C240.828 113.39 240.011 112.464 238.851 112.207C238.622 112.156 238.449 111.879 238.236 111.725C237.735 111.362 237.269 110.898 236.709 110.686C236.11 110.459 235.755 110.028 235.371 109.606C234.75 108.923 234.045 108.357 233.225 107.941C233.113 107.884 232.883 107.883 232.81 107.957C232.447 108.321 232.119 108.717 231.78 109.104C231.583 109.329 231.409 109.58 231.187 109.778C230.918 110.018 230.599 110.203 230.319 110.432C229.463 111.132 228.615 111.843 227.762 112.545C227.713 112.585 227.638 112.608 227.574 112.613C226.742 112.671 226.062 113.039 225.487 113.625C225.424 113.69 225.368 113.787 225.292 113.807C224.575 114.001 224.127 114.475 223.857 115.145C223.819 115.238 223.776 115.346 223.702 115.405C222.933 116.017 222.631 116.968 222.391 117.796C222.19 118.489 221.801 118.884 221.396 119.353C221.329 119.431 221.273 119.519 221.217 119.605C220.618 120.539 220.116 121.54 219.242 122.275C218.91 122.555 218.62 122.884 218.316 123.196C218.22 123.295 218.116 123.402 218.063 123.526C217.656 124.464 217.276 125.415 216.856 126.347C216.518 127.097 216.135 127.828 215.774 128.567C215.48 129.167 215.05 129.725 215.222 130.465C215.258 130.62 215.294 130.882 215.216 130.94C214.611 131.387 214.441 132.027 214.346 132.714C214.342 132.742 214.292 132.762 214.273 132.792C214.081 133.093 213.872 133.386 213.708 133.701C213.538 134.028 213.309 134.371 213.289 134.717C213.252 135.375 212.825 135.841 212.625 136.41C212.43 136.964 211.933 137.401 212.049 138.089C212.103 138.407 212.014 138.793 211.873 139.093C211.377 140.143 210.651 141.11 210.86 142.383C210.891 142.568 210.805 142.79 210.725 142.974C210.359 143.82 209.725 144.555 209.668 145.533C209.662 145.625 209.578 145.711 209.537 145.803C209.273 146.387 208.771 146.878 208.899 147.615C208.941 147.859 208.888 148.147 208.796 148.382C208.454 149.256 208.082 150.119 207.71 150.981C207.584 151.274 207.434 151.558 207.275 151.835C206.813 152.645 206.577 153.56 205.829 154.236C205.165 154.837 204.655 155.616 204.124 156.35C203.819 156.771 203.552 157.238 203.373 157.723C203.192 158.214 203.152 158.756 203.022 159.268C202.987 159.408 202.851 159.521 202.768 159.652C202.705 159.751 202.629 159.851 202.599 159.962C202.43 160.583 202.378 161.262 202.087 161.817C201.687 162.578 201.497 163.48 200.766 164.05C200.713 164.092 200.655 164.152 200.638 164.214C200.43 164.966 200.046 165.599 199.46 166.125C199.001 166.536 198.576 166.986 198.151 167.433C198.011 167.579 197.904 167.762 197.806 167.941C197.272 168.918 197.01 170.039 196.223 170.88C196.009 171.109 195.805 171.35 195.614 171.599C195.311 171.996 195.017 172.402 194.729 172.81C194.582 173.019 194.438 173.232 194.322 173.458C193.999 174.086 193.753 174.763 193.364 175.344C192.861 176.096 192.251 176.775 191.685 177.484C191.393 177.849 191.449 177.983 191.909 178.178C192.326 178.354 192.736 178.556 193.126 178.786C193.538 179.029 193.894 179.388 194.327 179.57C194.865 179.796 195.293 180.128 195.66 180.553C196.566 181.603 197.665 182.451 198.484 183.616C199.09 184.478 199.882 185.285 200.896 185.845C201.599 186.232 202.109 186.976 202.687 187.579C203.739 188.678 205.023 189.591 205.509 191.147C205.612 191.479 205.787 191.813 206.01 192.077C206.404 192.544 206.892 192.922 207.126 193.525C207.308 193.993 207.585 194.424 207.808 194.876C208.038 195.343 208.277 195.808 208.469 196.29C208.662 196.774 208.676 197.389 208.993 197.748C209.523 198.347 209.776 199.073 210.192 199.707C210.614 200.35 211.148 200.937 211.622 201.559C212.241 202.372 212.99 203.06 213.33 204.079C213.6 204.885 214.324 205.445 214.649 206.254C214.791 206.606 214.853 206.817 214.576 207.087C214.03 207.618 213.495 208.162 212.957 208.702C212.637 209.022 212.253 209.143 211.877 208.87C211.573 208.65 211.311 208.352 211.084 208.049C210.4 207.14 209.755 206.202 209.069 205.294C208.844 204.995 208.518 204.773 208.28 204.482C207.998 204.138 207.796 203.723 207.496 203.398C206.919 202.77 206.297 202.184 205.694 201.581C205.605 201.491 205.44 201.402 205.438 201.311C205.426 200.528 204.782 200.042 204.374 199.594C203.602 198.747 203.09 197.778 202.689 196.782C202.218 195.61 201.261 194.822 200.653 193.766C200.241 193.052 199.483 192.538 198.88 191.935C198.561 191.616 198.133 191.352 197.944 190.969C197.401 189.868 196.57 189.175 195.408 188.836C195.318 188.81 195.219 188.68 195.197 188.582C195.02 187.804 194.325 187.477 193.817 186.998C193.442 186.645 192.991 186.374 192.575 186.065C192.407 185.941 192.247 185.807 192.077 185.687C191.741 185.45 191.349 185.268 191.072 184.977C190.599 184.479 190.029 184.221 189.39 184.047C189.117 183.972 188.845 183.861 188.603 183.717C188.235 183.498 187.897 183.231 187.536 182.998C187.493 182.97 187.356 183.006 187.322 183.055C187.033 183.458 186.765 183.877 186.476 184.282C185.875 185.123 185.31 185.996 184.649 186.788C183.608 188.035 182.098 188.904 181.609 190.598C181.583 190.687 181.424 190.743 181.32 190.803C181.16 190.895 180.938 190.936 180.84 191.07C180.613 191.383 180.504 191.798 180.239 192.062C179.789 192.51 179.46 193.154 178.703 193.206C178.648 193.21 178.55 193.301 178.553 193.345C178.607 194.08 177.904 194.028 177.536 194.269C176.734 194.795 175.819 195.149 175.03 195.69C173.98 196.411 173.398 197.564 172.648 198.559C172.608 198.613 172.575 198.673 172.539 198.731C172.185 199.292 171.916 199.937 171.461 200.399C170.24 201.637 169.141 203.022 167.577 203.881C167.384 203.987 167.183 204.09 167.016 204.23C166.634 204.551 166.17 204.832 165.924 205.24C165.445 206.036 165.084 206.929 164.351 207.516C163.233 208.41 162.679 209.763 161.631 210.701C161.584 210.743 161.535 210.826 161.545 210.879C161.675 211.564 161.148 211.883 160.788 212.314C159.951 213.315 158.683 213.947 158.238 215.284C158.228 215.315 158.193 215.343 158.163 215.361C157.367 215.822 157.464 216.844 156.865 217.43C156.846 217.449 156.871 217.531 156.894 217.573C157.045 217.838 157.151 218.151 157.363 218.354C158.481 219.425 159.503 220.573 160.405 221.834C160.655 222.183 161.015 222.453 161.319 222.765C161.403 222.852 161.504 222.947 161.534 223.056C161.713 223.7 162.065 224.224 162.501 224.73C162.993 225.301 163.391 225.953 163.824 226.573C163.88 226.653 163.888 226.766 163.938 226.852C164.033 227.013 164.12 227.19 164.251 227.319C164.555 227.616 164.901 227.871 165.199 228.174C165.935 228.925 166.795 229.496 167.699 230.023C167.952 230.17 168.093 230.503 168.294 230.744C168.398 230.87 168.507 231 168.639 231.091C168.775 231.185 168.954 231.215 169.093 231.305C169.453 231.538 169.813 231.773 170.148 232.039C170.32 232.176 170.434 232.383 170.579 232.554C170.939 232.977 171.24 233.485 171.679 233.796C172.17 234.143 172.881 234.18 173.113 234.88C173.129 234.926 173.181 234.979 173.227 234.993C174.324 235.323 174.782 236.495 175.851 236.94C176.328 237.138 176.729 237.459 177.289 237.416C177.836 237.373 178.338 237.445 178.842 237.747C179.232 237.981 179.648 238.301 180.188 238.19C180.267 238.174 180.48 238.37 180.474 238.456C180.428 239.091 180.696 239.775 180.172 240.346C180.064 240.465 180.06 240.706 180.058 240.891C180.047 241.816 180.054 242.742 180.052 243.668C180.052 244.039 179.878 244.329 179.522 244.403C179.33 244.443 179.013 244.38 178.905 244.243C178.197 243.347 177.138 243.572 176.416 243.816C175.529 244.114 174.698 243.939 173.852 244.049C173.747 244.062 173.631 243.978 173.517 243.948C173.239 243.872 172.964 243.772 172.681 243.735C172.052 243.654 171.406 243.886 170.824 243.317C170.397 242.901 169.62 242.826 169.232 242.39C167.892 240.886 166.201 239.794 164.763 238.412C164.647 238.301 164.458 238.268 164.322 238.172C164.077 237.998 163.807 237.837 163.617 237.612C163.228 237.149 162.905 236.631 162.518 236.167C162.024 235.575 161.484 235.038 161.023 234.399C160.106 233.126 158.964 232.018 157.948 230.813C157.437 230.207 157.001 229.539 156.531 228.898C156.5 228.857 156.471 228.814 156.439 228.773C156.077 228.313 155.701 227.863 155.356 227.39C155.175 227.144 155.036 226.864 154.901 226.588C154.783 226.347 154.751 226.047 154.587 225.851C154.219 225.412 153.777 225.053 153.573 224.469C153.397 223.964 153.012 223.918 152.696 224.331C152.441 224.663 152.256 225.052 152.071 225.431C151.902 225.776 151.779 226.144 151.629 226.5C151.499 226.809 151.357 227.113 151.224 227.42C151.103 227.697 150.985 227.975 150.869 228.254C150.804 228.408 150.739 228.563 150.685 228.722C150.527 229.19 150.223 229.543 149.91 229.925C149.307 230.661 148.847 231.513 148.298 232.296C147.929 232.823 147.497 233.305 147.118 233.826C147.014 233.967 146.99 234.172 146.952 234.353C146.922 234.49 146.983 234.684 146.909 234.767C146.34 235.402 146.552 236.169 146.509 236.894C146.5 237.045 146.458 237.197 146.415 237.344C146.345 237.586 146.225 237.82 146.193 238.066C146.13 238.556 146.248 239.121 146.04 239.526C145.815 239.965 145.755 240.368 145.741 240.825C145.736 241.001 145.627 241.174 145.571 241.35C145.483 241.622 145.387 241.893 145.317 242.17C145.163 242.779 145.168 243.486 144.844 243.981C144.319 244.785 144.147 245.598 144.229 246.509C144.24 246.623 144.281 246.749 144.347 246.839C144.782 247.428 144.664 248.161 144.466 248.682C144.309 249.099 144.244 249.478 144.231 249.887C144.209 250.576 144.221 251.267 144.229 251.956C144.23 252.09 144.269 252.227 144.308 252.358C144.382 252.598 144.512 252.829 144.545 253.074C144.669 254.016 144.25 255.038 144.979 255.894C145.042 255.968 144.988 256.142 144.988 256.269C144.988 257.43 144.978 258.592 144.997 259.753C145 259.944 145.135 260.129 145.189 260.323C145.344 260.874 145.841 261.292 145.761 261.944C145.705 262.391 145.669 262.86 146.067 263.233C146.169 263.329 146.201 263.564 146.176 263.72C146.068 264.4 146.59 264.918 146.618 265.558C146.62 265.608 146.64 265.657 146.655 265.705C146.752 266.028 146.881 266.345 146.939 266.675C146.997 267.005 146.849 267.477 147.026 267.662C147.634 268.298 147.182 269.21 147.699 269.851C147.857 270.047 147.868 270.357 147.966 270.607C148.126 271.013 148.399 271.401 148.446 271.816C148.495 272.249 148.664 272.547 148.969 272.803C149.03 272.854 149.157 272.887 149.225 272.86C149.784 272.633 150.339 272.394 150.891 272.15C151.198 272.014 151.502 271.87 151.799 271.714C152.426 271.385 153.045 271.042 153.672 270.713C153.787 270.653 153.923 270.633 154.049 270.595C154.017 270.721 154.021 270.879 153.945 270.968C153.576 271.398 153.555 272.681 153.994 273.027C154.734 273.612 155.103 274.532 155.895 275.063C155.971 275.114 156.025 275.227 156.048 275.322C156.285 276.271 157.314 276.839 157.294 277.91C157.294 277.942 157.303 277.984 157.324 278.006C158.117 278.824 158.891 279.652 160.012 280.061C160.544 280.255 161.022 280.598 161.531 280.861C161.919 281.062 162.379 281.171 162.697 281.448C163.427 282.086 164.212 282.442 165.201 282.41C165.505 282.4 165.831 282.625 166.123 282.787C166.568 283.033 166.979 283.344 167.429 283.579C168.069 283.914 168.742 284.184 169.381 284.518C170.43 285.068 171.421 285.766 172.715 285.561C172.922 285.528 173.222 285.628 173.372 285.776C173.744 286.141 174.121 286.399 174.672 286.327C174.763 286.315 174.865 286.461 174.974 286.506C175.191 286.595 175.411 286.713 175.638 286.735C176.481 286.817 177.385 286.513 178.134 287.161C178.166 287.189 178.237 287.168 178.288 287.18C178.8 287.302 179.312 287.423 179.823 287.551C179.902 287.571 179.97 287.633 180.048 287.663C180.299 287.759 180.55 287.854 180.805 287.939C180.917 287.977 181.038 287.997 181.157 288.008C181.374 288.029 181.593 288.048 181.812 288.048C182.401 288.05 183.053 287.879 183.563 288.077C184.23 288.338 184.895 288.558 185.59 288.698C185.982 288.777 186.43 288.703 186.773 288.866C187.41 289.169 188.217 289.193 188.64 289.897C188.679 289.964 188.827 289.958 188.917 290.002C189.49 290.284 189.955 290.806 190.667 290.778C190.705 290.777 190.738 290.864 190.785 290.883C190.97 290.961 191.159 291.087 191.349 291.09C192.528 291.109 193.708 291.104 194.888 291.095C195.054 291.094 195.277 291.083 195.377 290.981C195.787 290.567 196.289 290.667 196.776 290.665C197.847 290.662 198.918 290.661 199.989 290.668C200.141 290.669 200.303 290.694 200.443 290.751C201.064 291.004 201.657 291.362 202.3 291.516C203.578 291.824 204.757 291.13 206.001 291.015C206.034 291.011 206.082 291.01 206.097 290.989C206.401 290.561 206.853 290.668 207.271 290.665C207.979 290.661 208.688 290.643 209.394 290.672C209.784 290.689 210.09 290.609 210.329 290.286C210.556 289.979 210.872 289.88 211.257 289.895C211.777 289.915 212.318 290.004 212.762 289.583C212.859 289.492 213.051 289.475 213.2 289.471C213.726 289.458 214.253 289.473 214.779 289.461C214.91 289.458 215.04 289.396 215.17 289.36C215.43 289.287 215.686 289.187 215.951 289.146C216.332 289.085 216.753 289.151 217.096 289.013C217.748 288.748 218.33 288.296 218.992 288.074C219.628 287.861 220.308 287.804 220.95 287.541C221.239 287.422 221.539 287.382 221.763 287.13C221.864 287.017 221.999 286.889 222.138 286.862C222.804 286.732 223.484 286.677 224.094 286.318C224.319 286.185 224.604 286.143 224.868 286.091C225.517 285.961 226.151 285.741 226.78 285.602C227.435 285.458 227.787 285.106 228.193 284.696C228.345 284.542 228.587 284.346 228.764 284.368C229.497 284.458 230.087 284.01 230.763 283.907C230.891 283.888 231.006 283.797 231.13 283.746C231.27 283.689 231.413 283.593 231.554 283.594C231.999 283.6 232.424 283.606 232.789 283.269C232.897 283.169 233.113 283.156 233.279 283.155C234.441 283.146 235.602 283.151 236.764 283.149C236.906 283.149 237.069 283.178 237.188 283.122C237.749 282.855 238.313 282.586 238.848 282.27C239.134 282.1 239.584 281.857 239.277 281.455C238.757 280.773 238.907 279.922 238.607 279.169C238.291 278.377 237.838 277.693 237.357 277.086C236.484 275.984 235.392 275.054 234.389 274.055C234.29 273.957 234.184 273.813 234.065 273.795C233.404 273.694 233.273 273.102 233.108 272.654C232.661 271.444 231.826 270.452 231.002 269.581C230.178 268.71 229.089 268.041 228.237 267.14C228.15 267.047 228.01 266.975 227.975 266.867C227.554 265.571 226.796 264.464 225.997 263.388C225.712 263.004 225.614 262.679 225.897 262.279C225.915 262.254 225.899 262.208 225.911 262.177C226.193 261.461 226.977 261.053 227.523 261.517C227.961 261.889 228.323 262.234 228.905 262.391C229.396 262.525 229.83 262.865 230.29 263.113C231.096 263.545 232.018 263.774 232.664 264.484C232.721 264.546 232.794 264.607 232.872 264.634C233.655 264.904 234.265 265.441 234.882 265.954C235.391 266.377 235.766 266.95 236.455 267.164C236.646 267.223 236.744 267.553 236.904 267.743C237.139 268.022 237.384 268.293 237.637 268.556C237.816 268.741 238.019 268.903 238.204 269.083C238.58 269.45 238.909 269.887 239.34 270.17C239.663 270.382 239.989 270.5 240.103 270.929C240.166 271.163 240.355 271.374 240.516 271.571C241.227 272.442 242.309 273.001 242.678 274.163C242.701 274.237 242.865 274.256 242.924 274.332C243.174 274.658 243.426 274.985 243.646 275.331C244.137 276.105 244.607 276.893 245.089 277.673C245.294 278.006 245.497 278.342 245.725 278.66C245.802 278.767 245.962 278.905 246.064 278.89C246.788 278.783 247.446 278.448 248.205 278.375C248.697 278.328 249.252 277.872 249.586 277.447C250.474 276.321 251.864 276.059 252.985 275.344C253.539 274.99 254.262 274.944 254.475 274.146C254.522 273.97 254.791 273.814 254.991 273.725C255.861 273.339 256.764 273.026 257.472 272.341C257.602 272.215 257.847 272.167 258.042 272.161C258.418 272.148 258.71 272.056 258.905 271.698C258.978 271.564 259.155 271.479 259.297 271.392C259.527 271.249 259.817 271.171 259.994 270.983C261.118 269.789 262.33 268.721 263.825 267.998C264.008 267.91 264.084 267.613 264.225 267.425C264.332 267.284 264.444 267.128 264.591 267.04C264.994 266.796 265.499 266.664 265.816 266.342C266.56 265.586 267.331 264.919 268.359 264.568C268.587 264.489 268.744 264.174 268.909 263.949C269.018 263.802 269.044 263.579 269.174 263.466C269.768 262.948 270.402 262.476 270.992 261.953C272.003 261.058 273.064 260.29 274.494 260.277C274.572 260.277 274.649 260.219 274.727 260.186C275.252 259.964 275.795 259.776 276.297 259.51C276.926 259.178 277.524 258.787 278.129 258.411C278.232 258.347 278.38 258.228 278.375 258.141C278.347 257.608 278.775 257.383 279.054 257.054C279.413 256.632 279.922 256.345 280.076 255.733C280.158 255.407 280.383 254.97 280.651 254.87C281.265 254.64 281.604 254.145 282.033 253.739C282.42 253.373 282.698 252.864 283.131 252.58C283.713 252.198 284.397 251.971 285.039 251.679C285.906 251.284 286.422 250.509 287.033 249.837C287.066 249.801 287.075 249.745 287.101 249.702C287.399 249.208 287.693 248.712 288.003 248.226C288.05 248.153 288.194 248.149 288.264 248.082C288.536 247.819 288.877 247.586 289.04 247.265C289.25 246.85 289.469 246.533 289.948 246.446C290.057 246.426 290.204 246.365 290.249 246.279C290.414 245.969 290.561 245.646 290.681 245.316C290.925 244.642 291.241 244.031 291.794 243.539C292.39 243.01 292.933 242.421 293.493 241.851C293.6 241.742 293.671 241.598 293.765 241.475C294.136 240.993 294.442 240.431 294.901 240.056C295.305 239.726 295.415 239.395 295.376 238.939C295.337 238.485 295.502 238.162 295.899 237.903C296.138 237.746 296.36 237.486 296.468 237.223C296.61 236.877 296.735 236.596 297.15 236.527C297.228 236.514 297.328 236.31 297.328 236.195C297.328 235.502 297.773 235.029 298.119 234.504C298.268 234.278 298.393 234.036 298.535 233.806C298.916 233.19 299.228 232.548 299.784 232.03C300.14 231.698 300.398 231.136 300.46 230.647C300.535 230.063 300.86 229.626 301.105 229.166C301.459 228.501 301.997 227.935 302.453 227.324C302.502 227.258 302.521 227.17 302.565 227.099C302.902 226.549 303.235 225.995 303.587 225.455C303.657 225.348 303.805 225.291 303.92 225.217C304.221 225.024 304.564 224.876 304.818 224.634C305.554 223.93 306.373 223.272 306.74 222.278C306.949 221.71 307.449 221.219 307.252 220.525C307.226 220.434 307.242 220.299 307.295 220.222C307.726 219.585 308.108 218.94 308.018 218.119C308.004 217.986 308.109 217.834 308.177 217.7C308.46 217.145 308.851 216.666 308.915 215.98C308.956 215.53 309.225 214.932 309.583 214.716C310.385 214.232 310.392 213.189 311.165 212.737C311.18 212.728 311.155 212.663 311.168 212.632C311.417 212.064 311.741 211.515 311.603 210.852C311.599 210.834 311.594 210.806 311.603 210.799C312.109 210.364 311.873 209.774 311.932 209.245C311.95 209.077 311.959 208.885 312.045 208.75C312.475 208.077 312.91 207.413 312.802 206.556C312.796 206.507 312.799 206.433 312.83 206.408C313.216 206.082 313.104 205.638 313.129 205.222C313.171 204.534 312.925 203.793 313.511 203.198C313.588 203.12 313.535 202.925 313.566 202.789C313.6 202.643 313.662 202.503 313.713 202.361C313.808 202.092 313.919 201.827 313.994 201.552C314.084 201.224 314.14 200.887 314.217 200.555C314.244 200.441 314.301 200.333 314.323 200.218C314.452 199.514 314.096 198.953 313.786 198.372C313.548 197.928 313.178 197.472 313.162 197.011C313.131 196.099 312.782 195.411 312.171 194.791C312.049 194.667 311.932 194.458 311.943 194.297C311.98 193.755 311.893 193.25 311.598 192.8C311.106 192.048 310.954 191.099 310.243 190.473C310.13 190.373 310.019 190.236 309.977 190.096C309.741 189.297 309.285 188.638 308.698 188.067C308.041 187.429 307.353 186.823 306.708 186.175C305.82 185.281 304.963 184.357 304.085 183.453C303.532 182.885 302.95 182.346 302.413 181.764C302.199 181.531 302.125 181.161 301.896 180.953C300.667 179.84 299.699 178.455 298.24 177.575C297.63 177.207 297.196 176.539 296.475 176.332C295.838 176.149 295.452 175.678 295.014 175.253C294.926 175.167 294.839 175.055 294.731 175.02C294.03 174.795 293.424 174.449 292.899 173.911C291.249 172.224 289.565 170.571 287.905 168.895C287.728 168.716 287.64 168.453 287.473 168.262C287.051 167.78 286.683 167.188 286.155 166.881C285.555 166.532 285.097 166.073 284.618 165.613C284.394 165.398 284.428 165.207 284.663 164.987C284.86 164.803 284.962 164.521 285.146 164.32C285.328 164.122 285.546 163.859 285.776 163.827C286.026 163.793 286.321 163.967 286.574 164.095C287.49 164.558 288.362 165.133 289.316 165.492C290.567 165.962 291.373 167.032 292.509 167.641C292.916 167.858 293.264 168.181 293.651 168.438C294.018 168.682 294.4 168.905 294.778 169.133C295.024 169.282 295.28 169.415 295.522 169.571C296.353 170.106 297.332 170.362 298.04 171.152C298.571 171.744 299.323 172.137 299.977 172.618C300.005 172.638 300.033 172.658 300.062 172.676C300.588 172.984 301.113 173.293 301.64 173.6C302.183 173.916 302.678 174.256 303.14 174.723C304.298 175.891 305.607 176.908 306.813 178.032C307.292 178.479 307.9 178.853 308.065 179.577C308.086 179.67 308.241 179.74 308.344 179.803C308.545 179.928 308.768 180.02 308.957 180.16C310.206 181.087 310.846 182.549 311.959 183.599C312.364 183.98 312.789 184.356 313.114 184.801C313.533 185.374 313.798 186.063 314.245 186.608C314.675 187.133 314.948 187.689 315.092 188.335C315.116 188.44 315.211 188.53 315.273 188.626C315.359 188.57 315.482 188.531 315.521 188.452C315.586 188.318 315.631 188.156 315.625 188.008C315.608 187.623 315.558 187.24 315.523 186.855C315.493 186.53 315.644 186.159 315.274 185.92C315.252 185.905 315.263 185.819 315.276 185.771C315.355 185.478 315.502 185.188 315.511 184.893C315.541 183.914 315.514 182.933 315.53 181.953C315.533 181.777 315.64 181.603 315.698 181.427C316.012 180.47 316.877 179.711 316.724 178.583C316.716 178.522 316.738 178.436 316.779 178.391C317.306 177.81 317.15 177.098 317.146 176.423C317.145 176.232 317.025 176.041 316.958 175.851C316.88 175.63 316.767 175.414 316.727 175.186C316.648 174.728 316.78 174.272 316.529 173.794C316.236 173.238 316.082 172.589 315.972 171.962C315.81 171.045 316.263 170.033 315.541 169.194C315.486 169.13 315.54 168.982 315.52 168.878C315.422 168.349 315.91 167.932 315.91 167.533C315.912 166.42 316.275 165.25 315.637 164.181C315.562 164.056 315.573 163.882 315.519 163.74C315.442 163.537 315.341 163.342 315.196 163.09Z"
            fill="#3C3E5A" />
        <path
            d="M247.325 191.158C248.238 192.07 249.138 192.941 250.001 193.848C250.342 194.208 250.59 194.655 250.897 195.05C251.039 195.232 251.223 195.382 251.387 195.546C251.9 196.06 252.417 196.569 252.923 197.09C253.014 197.183 253.112 197.321 253.114 197.44C253.12 197.816 253.268 198 253.657 197.999C253.764 197.998 253.887 198.069 253.975 198.14C254.602 198.648 255.2 199.194 255.852 199.665C256.243 199.946 256.727 200.094 257.149 200.335C257.885 200.756 258.578 201.26 259.34 201.622C259.958 201.915 260.46 202.307 260.925 202.79C261.655 203.548 262.431 204.262 263.146 205.033C263.618 205.543 264.03 206.111 264.445 206.67C264.729 207.053 264.977 207.463 265.228 207.87C265.287 207.966 265.301 208.095 265.318 208.212C265.338 208.351 265.282 208.545 265.356 208.627C265.93 209.26 265.699 210.029 265.767 210.751C265.792 211.009 265.966 211.249 266.033 211.508C266.089 211.721 266.162 211.979 266.09 212.163C266.033 212.309 265.778 212.421 265.592 212.463C265.368 212.513 265.118 212.445 264.888 212.48C264.177 212.587 263.65 212.168 263.05 211.916C262.393 211.641 261.984 211.006 261.408 210.751C260.385 210.297 259.847 209.373 259.022 208.753C258.525 208.378 257.871 208.186 257.434 207.761C256.774 207.122 255.793 206.948 255.267 206.11C255.062 205.782 254.576 205.631 254.221 205.395C254.12 205.328 254.021 205.254 253.934 205.169C253.636 204.878 253.318 204.601 253.053 204.281C252.558 203.683 251.906 203.357 251.204 203.084C251.018 203.011 250.857 202.851 250.71 202.705C249.41 201.413 248.096 200.134 246.827 198.813C246.071 198.026 245.275 197.239 244.711 196.32C244.337 195.712 243.859 195.225 243.457 194.665C242.937 193.941 242.507 193.144 242.103 192.346C241.687 191.524 241.308 190.678 240.996 189.812C240.864 189.443 240.89 188.991 240.94 188.589C241.023 187.919 240.646 187.417 240.339 186.931C240.035 186.451 240.252 185.988 240.177 185.527C240.171 185.485 240.34 185.36 240.417 185.368C241.083 185.439 241.527 184.962 242.051 184.705C242.405 184.532 242.459 184.605 242.578 184.949C242.748 185.437 242.998 185.909 243.286 186.34C243.663 186.904 244.383 187.19 244.57 187.937C244.603 188.069 245.001 188.073 245.131 188.223C245.432 188.571 245.784 188.939 245.913 189.361C246.154 190.155 246.806 190.568 247.325 191.158Z"
            fill="#3C3E5A" />
    </g>
    <defs>
        <clipPath id="clip0_366_233">
            <rect width="210.376" height="210.376" fill="white" transform="translate(125.826 91.7051)" />
        </clipPath>
    </defs>
</svg>