<svg width="250" height="250" viewBox="0 0 250 250" fill="none" xmlns="http://www.w3.org/2000/svg">
    <path
        d="M101.83 112.031L65.6471 102.336C68.826 95.0384 73.492 88.4845 79.3469 83.0924C85.2018 77.7003 92.1169 73.5886 99.6506 71.0199L112.622 66.5945L108.597 54.5863L95.6256 59.0116C84.7169 62.6997 74.8872 69.0235 67.0088 77.4219C59.1304 85.8204 53.447 96.0337 50.4629 107.156L39.5167 148.008C38.6436 151.266 39.1006 154.738 40.7874 157.659C42.4741 160.581 45.2523 162.713 48.5109 163.586L85.3697 173.462C88.6282 174.335 92.1001 173.878 95.0216 172.192C97.9431 170.505 100.075 167.727 100.948 164.468L110.824 127.609C111.697 124.351 111.24 120.879 109.554 117.957C107.867 115.036 105.089 112.904 101.83 112.031Z"
        fill="black" />
    <path
        d="M187.835 135.076L151.651 125.38C154.83 118.083 159.496 111.529 165.351 106.137C171.206 100.745 178.121 96.6332 185.655 94.0646L198.627 89.6392L194.663 77.6474L181.63 82.0563C170.721 85.7443 160.892 92.0682 153.013 100.467C145.135 108.865 139.451 119.078 136.467 130.2L125.521 171.052C124.648 174.311 125.105 177.783 126.792 180.704C128.479 183.626 131.257 185.757 134.515 186.631L171.374 196.507C174.633 197.38 178.105 196.923 181.026 195.236C183.948 193.549 186.079 190.771 186.952 187.513L196.829 150.654C197.702 147.395 197.245 143.923 195.558 141.002C193.871 138.08 191.093 135.949 187.835 135.076Z"
        fill="black" />
</svg>