<svg width="295" height="295" viewBox="0 0 295 295" fill="none" xmlns="http://www.w3.org/2000/svg">
    <path fill-rule="evenodd" clip-rule="evenodd"
        d="M87.3476 215.706C105.428 231.669 129.108 239.796 153.18 238.299C177.252 236.802 199.744 225.804 215.706 207.724C231.669 189.644 239.796 165.963 238.299 141.891C236.802 117.819 225.804 95.3278 207.724 79.3649C189.644 63.402 165.963 55.2752 141.891 56.7723C117.819 58.2693 95.3278 69.2676 79.3649 87.3476C63.402 105.428 55.2752 129.108 56.7722 153.18C58.2693 177.252 69.2676 199.744 87.3476 215.706ZM78.7493 225.445C99.4121 243.688 126.476 252.976 153.987 251.265C181.497 249.554 207.202 236.985 225.445 216.322C243.688 195.659 252.976 168.596 251.265 141.085C249.554 113.574 236.985 87.8695 216.322 69.6262C195.659 51.3829 168.595 42.0952 141.085 43.8061C113.574 45.517 87.8695 58.0864 69.6262 78.7493C51.3829 99.4122 42.0951 126.476 43.806 153.987C45.5169 181.497 58.0864 207.202 78.7493 225.445Z"
        fill="black" />
    <path fill-rule="evenodd" clip-rule="evenodd"
        d="M97.8831 130.853C99.5715 131.195 101.055 132.194 102.007 133.629C102.96 135.065 103.303 136.82 102.961 138.508C101.375 146.333 101.878 154.438 104.42 162.006C106.962 169.575 111.454 176.34 117.442 181.621C123.424 186.909 130.693 190.527 138.519 192.112C146.344 193.697 154.448 193.192 162.016 190.648C162.827 190.37 163.684 190.255 164.539 190.31C165.394 190.365 166.229 190.588 166.998 190.967C167.766 191.346 168.452 191.873 169.016 192.518C169.579 193.163 170.01 193.913 170.282 194.725C170.555 195.537 170.664 196.395 170.604 197.25C170.544 198.104 170.315 198.938 169.931 199.704C169.547 200.47 169.015 201.152 168.367 201.711C167.718 202.271 166.965 202.696 166.151 202.964C156.421 206.233 146.002 206.882 135.941 204.845C125.881 202.808 116.535 198.157 108.843 191.36C101.146 184.57 95.3725 175.872 92.1046 166.141C88.8367 156.411 88.1896 145.991 90.2283 135.931C90.57 134.243 91.5685 132.759 93.004 131.807C94.4395 130.855 96.1946 130.512 97.8831 130.853Z"
        fill="black" />
    <path
        d="M150.695 124.329C143.575 132.393 133.434 135.085 128.059 130.339C122.683 125.592 124.098 115.196 131.217 107.132C138.337 99.0688 148.478 96.3765 153.853 101.123C159.229 105.869 157.814 116.265 150.695 124.329ZM189.649 158.722C182.53 166.786 172.389 169.478 167.013 164.732C161.638 159.986 163.053 149.589 170.172 141.526C177.291 133.462 187.432 130.77 192.808 135.516C198.184 140.262 196.769 150.659 189.649 158.722Z"
        fill="black" />
</svg>