<svg width="41" height="39" viewBox="0 0 41 39" fill="none" xmlns="http://www.w3.org/2000/svg">
    <path
        d="M31.8513 38.8743C31.5248 38.8756 31.2027 38.7986 30.9121 38.6497L20.4996 33.1984L10.0871 38.6497C9.74902 38.8275 9.36781 38.9069 8.98684 38.8788C8.60586 38.8507 8.2404 38.7163 7.93201 38.4908C7.62362 38.2654 7.38466 37.958 7.24231 37.6035C7.09995 37.249 7.0599 36.8616 7.12672 36.4855L9.16839 24.9909L0.756721 16.8243C0.49428 16.5624 0.308109 16.234 0.218186 15.8743C0.128263 15.5146 0.137983 15.1372 0.246304 14.7826C0.364639 14.4198 0.582314 14.0973 0.874627 13.8519C1.16694 13.6065 1.52219 13.448 1.90005 13.3943L13.5376 11.6997L18.6621 1.22594C18.8293 0.880757 19.0903 0.589642 19.4153 0.385948C19.7403 0.182254 20.1161 0.0742188 20.4996 0.0742188C20.8832 0.0742188 21.259 0.182254 21.5839 0.385948C21.9089 0.589642 22.17 0.880757 22.3371 1.22594L27.523 11.6793L39.1605 13.3739C39.5383 13.4276 39.8936 13.5861 40.1859 13.8315C40.4782 14.0769 40.6959 14.3993 40.8142 14.7622C40.9225 15.1168 40.9323 15.4942 40.8423 15.8539C40.7524 16.2136 40.5662 16.542 40.3038 16.8039L31.8921 24.9705L33.9338 36.4651C34.0067 36.8479 33.9685 37.2435 33.8238 37.6053C33.6791 37.9671 33.4339 38.2799 33.1171 38.5068C32.7474 38.7659 32.3023 38.8951 31.8513 38.8743Z"
        fill="#D9D9D9" />
</svg>